  0
SECTION
  2
HEADER
  9
$ACADVER
  1
AC1015
  9
$ACADMAINTVER
 70
     6
  9
$DWGCODEPAGE
  3
ANSI_1252
  9
$INSBASE
 10
0.0
 20
0.0
 30
0.0
  9
$EXTMIN
 10
-86.5596
 20
-93.1961252777
 30
0.0
  9
$EXTMAX
 10
84.9419986143
 20
77.069344738
 30
0.0
  9
$LIMMIN
 10
0.0
 20
0.0
  9
$LIMMAX
 10
420.0
 20
297.0
  9
$ORTHOMODE
 70
     0
  9
$REGENMODE
 70
     1
  9
$FILLMODE
 70
     1
  9
$QTEXTMODE
 70
     0
  9
$MIRRTEXT
 70
     1
  9
$LTSCALE
 40
1.0
  9
$ATTMODE
 70
     1
  9
$TEXTSIZE
 40
3.5
  9
$TRACEWID
 40
1.0
  9
$TEXTSTYLE
  7
Standard
  9
$CLAYER
  8
0
  9
$CELTYPE
  6
ByLayer
  9
$CECOLOR
 62
   256
  9
$CELTSCALE
 40
1.0
  9
$DISPSILH
 70
     0
  9
$DIMSCALE
 40
1.0
  9
$DIMASZ
 40
3.302
  9
$DIMEXO
 40
0.0
  9
$DIMDLI
 40
3.75
  9
$DIMRND
 40
0.0
  9
$DIMDLE
 40
0.0
  9
$DIMEXE
 40
1.0
  9
$DIMTP
 40
0.0
  9
$DIMTM
 40
0.0
  9
$DIMTXT
 40
3.5
  9
$DIMCEN
 40
2.5
  9
$DIMTSZ
 40
0.0
  9
$DIMTOL
 70
     0
  9
$DIMLIM
 70
     0
  9
$DIMTIH
 70
     1
  9
$DIMTOH
 70
     1
  9
$DIMSE1
 70
     0
  9
$DIMSE2
 70
     0
  9
$DIMTAD
 70
     1
  9
$DIMZIN
 70
     1
  9
$DIMBLK
  1

  9
$DIMASO
 70
     1
  9
$DIMSHO
 70
     1
  9
$DIMPOST
  1

  9
$DIMAPOST
  1

  9
$DIMALT
 70
     0
  9
$DIMALTD
 70
     3
  9
$DIMALTF
 40
0.0393700787
  9
$DIMLFAC
 40
1.0
  9
$DIMTOFL
 70
     1
  9
$DIMTVP
 40
0.0
  9
$DIMTIX
 70
     0
  9
$DIMSOXD
 70
     0
  9
$DIMSAH
 70
     0
  9
$DIMBLK1
  1

  9
$DIMBLK2
  1

  9
$DIMSTYLE
  2
ISO-25
  9
$DIMCLRD
 70
     0
  9
$DIMCLRE
 70
     0
  9
$DIMCLRT
 70
     0
  9
$DIMTFAC
 40
1.0
  9
$DIMGAP
 40
1.524
  9
$DIMJUST
 70
     0
  9
$DIMSD1
 70
     0
  9
$DIMSD2
 70
     0
  9
$DIMTOLJ
 70
     0
  9
$DIMTZIN
 70
     1
  9
$DIMALTZ
 70
     0
  9
$DIMALTTZ
 70
     0
  9
$DIMUPT
 70
     0
  9
$DIMDEC
 70
     2
  9
$DIMTDEC
 70
     2
  9
$DIMALTU
 70
     2
  9
$DIMALTTD
 70
     3
  9
$DIMTXSTY
  7
Standard
  9
$DIMAUNIT
 70
     0
  9
$DIMADEC
 70
     2
  9
$DIMALTRND
 40
0.0
  9
$DIMAZIN
 70
     0
  9
$DIMDSEP
 70
    44
  9
$DIMATFIT
 70
     3
  9
$DIMFRAC
 70
     0
  9
$DIMLDRBLK
  1

  9
$DIMLUNIT
 70
     2
  9
$DIMLWD
 70
    -2
  9
$DIMLWE
 70
    -2
  9
$DIMTMOVE
 70
     0
  9
$LUNITS
 70
     2
  9
$LUPREC
 70
     2
  9
$SKETCHINC
 40
1.0
  9
$FILLETRAD
 40
0.0
  9
$AUNITS
 70
     0
  9
$AUPREC
 70
     2
  9
$MENU
  1
.
  9
$ELEVATION
 40
0.0
  9
$PELEVATION
 40
0.0
  9
$THICKNESS
 40
0.0
  9
$LIMCHECK
 70
     0
  9
$CHAMFERA
 40
0.0
  9
$CHAMFERB
 40
0.0
  9
$CHAMFERC
 40
0.0
  9
$CHAMFERD
 40
0.0
  9
$SKPOLY
 70
     0
  9
$TDCREATE
 40
2460951.471012917
  9
$TDUCREATE
 40
2460951.721012917
  9
$TDUPDATE
 40
2460951.471049942
  9
$TDUUPDATE
 40
2460951.721049942
  9
$TDINDWG
 40
0.0000000116
  9
$TDUSRTIMER
 40
0.0000000116
  9
$USRTIMER
 70
     1
  9
$ANGBASE
 50
0.0
  9
$ANGDIR
 70
     0
  9
$PDMODE
 70
     0
  9
$PDSIZE
 40
-1.0
  9
$PLINEWID
 40
0.0
  9
$SPLFRAME
 70
     0
  9
$SPLINETYPE
 70
     6
  9
$SPLINESEGS
 70
     8
  9
$HANDSEED
  5
11A
  9
$SURFTAB1
 70
     6
  9
$SURFTAB2
 70
     6
  9
$SURFTYPE
 70
     6
  9
$SURFU
 70
     6
  9
$SURFV
 70
     6
  9
$UCSBASE
  2

  9
$UCSNAME
  2

  9
$UCSORG
 10
0.0
 20
0.0
 30
0.0
  9
$UCSXDIR
 10
1.0
 20
0.0
 30
0.0
  9
$UCSYDIR
 10
0.0
 20
1.0
 30
0.0
  9
$UCSORTHOREF
  2

  9
$UCSORTHOVIEW
 70
     0
  9
$UCSORGTOP
 10
0.0
 20
0.0
 30
0.0
  9
$UCSORGBOTTOM
 10
0.0
 20
0.0
 30
0.0
  9
$UCSORGLEFT
 10
0.0
 20
0.0
 30
0.0
  9
$UCSORGRIGHT
 10
0.0
 20
0.0
 30
0.0
  9
$UCSORGFRONT
 10
0.0
 20
0.0
 30
0.0
  9
$UCSORGBACK
 10
0.0
 20
0.0
 30
0.0
  9
$PUCSBASE
  2

  9
$PUCSNAME
  2

  9
$PUCSORG
 10
0.0
 20
0.0
 30
0.0
  9
$PUCSXDIR
 10
1.0
 20
0.0
 30
0.0
  9
$PUCSYDIR
 10
0.0
 20
1.0
 30
0.0
  9
$PUCSORTHOREF
  2

  9
$PUCSORTHOVIEW
 70
     0
  9
$PUCSORGTOP
 10
0.0
 20
0.0
 30
0.0
  9
$PUCSORGBOTTOM
 10
0.0
 20
0.0
 30
0.0
  9
$PUCSORGLEFT
 10
0.0
 20
0.0
 30
0.0
  9
$PUCSORGRIGHT
 10
0.0
 20
0.0
 30
0.0
  9
$PUCSORGFRONT
 10
0.0
 20
0.0
 30
0.0
  9
$PUCSORGBACK
 10
0.0
 20
0.0
 30
0.0
  9
$USERI1
 70
     0
  9
$USERI2
 70
     0
  9
$USERI3
 70
     0
  9
$USERI4
 70
     0
  9
$USERI5
 70
     0
  9
$USERR1
 40
0.0
  9
$USERR2
 40
0.0
  9
$USERR3
 40
0.0
  9
$USERR4
 40
0.0
  9
$USERR5
 40
0.0
  9
$WORLDVIEW
 70
     1
  9
$SHADEDGE
 70
     3
  9
$SHADEDIF
 70
    70
  9
$TILEMODE
 70
     1
  9
$MAXACTVP
 70
    64
  9
$PINSBASE
 10
0.0
 20
0.0
 30
0.0
  9
$PLIMCHECK
 70
     0
  9
$PEXTMIN
 10
1.0000000000E+20
 20
1.0000000000E+20
 30
1.0000000000E+20
  9
$PEXTMAX
 10
-1.0000000000E+20
 20
-1.0000000000E+20
 30
-1.0000000000E+20
  9
$PLIMMIN
 10
0.0
 20
0.0
  9
$PLIMMAX
 10
420.0
 20
297.0
  9
$UNITMODE
 70
     0
  9
$VISRETAIN
 70
     1
  9
$PLINEGEN
 70
     0
  9
$PSLTSCALE
 70
     1
  9
$TREEDEPTH
 70
  3020
  9
$CMLSTYLE
  2
Standard
  9
$CMLJUST
 70
     0
  9
$CMLSCALE
 40
20.0
  9
$PROXYGRAPHICS
 70
     1
  9
$MEASUREMENT
 70
     1
  9
$CELWEIGHT
370
    -1
  9
$ENDCAPS
280
     0
  9
$JOINSTYLE
280
     0
  9
$LWDISPLAY
290
     1
  9
$INSUNITS
 70
     4
  9
$HYPERLINKBASE
  1

  9
$STYLESHEET
  1

  9
$XEDIT
290
     1
  9
$CEPSNTYPE
380
     0
  9
$PSTYLEMODE
290
     1
  9
$FINGERPRINTGUID
  2
{0ac207c5-1fb0-4702-8dd2-04575d28d3ee}
  9
$VERSIONGUID
  2
{FAEB1C32-E019-11D5-929B-00C0DF256EC4}
  9
$EXTNAMES
290
     1
  9
$PSVPSCALE
 40
0.0
  9
$OLESTARTUP
290
     0
  0
ENDSEC
  0
SECTION
  2
CLASSES
  0
CLASS
  1
ACDBDICTIONARYWDFLT
  2
AcDbDictionaryWithDefault
  3
ObjectDBX Classes
 90
        0
280
     0
281
     0
  0
CLASS
  1
VISUALSTYLE
  2
AcDbVisualStyle
  3
ObjectDBX Classes
 90
     4095
280
     0
281
     0
  0
CLASS
  1
MATERIAL
  2
AcDbMaterial
  3
ObjectDBX Classes
 90
     1153
280
     0
281
     0
  0
CLASS
  1
SCALE
  2
AcDbScale
  3
ObjectDBX Classes
 90
     1153
280
     0
281
     0
  0
CLASS
  1
TABLESTYLE
  2
AcDbTableStyle
  3
ObjectDBX Classes
 90
     4095
280
     0
281
     0
  0
CLASS
  1
MLEADERSTYLE
  2
AcDbMLeaderStyle
  3
ACDB_MLEADERSTYLE_CLASS
 90
     4095
280
     0
281
     0
  0
CLASS
  1
SUN
  2
AcDbSun
  3
SCENEOE
 90
     1153
280
     0
281
     0
  0
CLASS
  1
ACDBPLACEHOLDER
  2
AcDbPlaceHolder
  3
ObjectDBX Classes
 90
        0
280
     0
281
     0
  0
CLASS
  1
LAYOUT
  2
AcDbLayout
  3
ObjectDBX Classes
 90
        0
280
     0
281
     0
  0
ENDSEC
  0
SECTION
  2
TABLES
  0
TABLE
  2
VPORT
  5
8
330
0
100
AcDbSymbolTable
 70
     1
  0
VPORT
  5
29
330
8
100
AcDbSymbolTableRecord
100
AcDbViewportTableRecord
  2
*Active
 70
     0
 10
0.0
 20
0.0
 11
1.0
 21
1.0
 12
-0.8088006928
 22
-8.0633902699
 13
0.0
 23
0.0
 14
10.0
 24
10.0
 15
10.0
 25
10.0
 16
0.0
 26
0.0
 36
1.0
 17
0.0
 27
0.0
 37
0.0
 40
173.670779416
 41
1.0072600076
 42
50.0
 43
0.0
 44
0.0
 50
0.0
 51
0.0
 71
     0
 72
   100
 73
     1
 74
     3
 75
     0
 76
     0
 77
     0
 78
     0
281
     0
 65
     1
110
0.0
120
0.0
130
0.0
111
1.0
121
0.0
131
0.0
112
0.0
122
1.0
132
0.0
 79
     0
146
0.0
  0
ENDTAB
  0
TABLE
  2
LTYPE
  5
5
330
0
100
AcDbSymbolTable
 70
     6
  0
LTYPE
  5
14
330
5
100
AcDbSymbolTableRecord
100
AcDbLinetypeTableRecord
  2
ByBlock
 70
     0
  3

 72
    65
 73
     0
 40
0.0
  0
LTYPE
  5
15
330
5
100
AcDbSymbolTableRecord
100
AcDbLinetypeTableRecord
  2
ByLayer
 70
     0
  3

 72
    65
 73
     0
 40
0.0
  0
LTYPE
  5
16
330
5
100
AcDbSymbolTableRecord
100
AcDbLinetypeTableRecord
  2
Continuous
 70
     0
  3
Solid line
 72
    65
 73
     0
 40
0.0
  0
LTYPE
  5
5E
330
5
100
AcDbSymbolTableRecord
100
AcDbLinetypeTableRecord
  2
HIDDEN
 70
     0
  3
Hidden __ __ __ __ __ __ __ __ __ __ __ __ __ __
 72
    65
 73
     2
 40
1.905
 49
1.27
 74
     0
 49
-0.635
 74
     0
  0
LTYPE
  5
5F
330
5
100
AcDbSymbolTableRecord
100
AcDbLinetypeTableRecord
  2
PHANTOM
 70
     0
  3
Phantom ______  __  __  ______  __  __  ______
 72
    65
 73
     6
 40
12.7
 49
6.35
 74
     0
 49
-1.27
 74
     0
 49
1.27
 74
     0
 49
-1.27
 74
     0
 49
1.27
 74
     0
 49
-1.27
 74
     0
  0
LTYPE
  5
60
330
5
100
AcDbSymbolTableRecord
100
AcDbLinetypeTableRecord
  2
CENTER
 70
     0
  3
Center ____ _ ____ _ ____ _ ____ _ ____ _ ____
 72
    65
 73
     4
 40
10.16
 49
6.35
 74
     0
 49
-1.27
 74
     0
 49
1.27
 74
     0
 49
-1.27
 74
     0
  0
LTYPE
  5
61
330
5
100
AcDbSymbolTableRecord
100
AcDbLinetypeTableRecord
  2
CENTERX2
 70
     0
  3
Center (2x) ________  __  ________  __  _____
 72
    65
 73
     4
 40
20.32
 49
12.7
 74
     0
 49
-2.54
 74
     0
 49
2.54
 74
     0
 49
-2.54
 74
     0
  0
LTYPE
  5
62
330
5
100
AcDbSymbolTableRecord
100
AcDbLinetypeTableRecord
  2
DOT2
 70
     0
  3
Dot (.5x) ........................................
 72
    65
 73
     2
 40
0.635
 49
0.0
 74
     0
 49
-0.635
 74
     0
  0
ENDTAB
  0
TABLE
  2
LAYER
  5
2
330
0
100
AcDbSymbolTable
 70
     1
  0
LAYER
  5
10
330
2
100
AcDbSymbolTableRecord
100
AcDbLayerTableRecord
  2
0
 70
     0
 62
     7
  6
Continuous
370
    -3
390
F
  0
ENDTAB
  0
TABLE
  2
STYLE
  5
3
330
0
100
AcDbSymbolTable
 70
     2
  0
STYLE
  5
11
330
3
100
AcDbSymbolTableRecord
100
AcDbTextStyleTableRecord
  2
Standard
 70
     0
 40
0.0
 41
1.0
 50
0.0
 71
     0
 42
3.5
  3
txt
  4

  0
STYLE
  5
116
330
3
100
AcDbSymbolTableRecord
100
AcDbTextStyleTableRecord
  2
SLDTEXTSTYLE0
 70
     0
 40
0.0
 41
0.7
 50
0.0
 71
     0
 42
3.5
  3
TXT
  4

  0
ENDTAB
  0
TABLE
  2
VIEW
  5
6
330
0
100
AcDbSymbolTable
 70
     0
  0
ENDTAB
  0
TABLE
  2
UCS
  5
7
330
0
100
AcDbSymbolTable
 70
     0
  0
ENDTAB
  0
TABLE
  2
APPID
  5
9
330
0
100
AcDbSymbolTable
 70
     1
  0
APPID
  5
12
330
9
100
AcDbSymbolTableRecord
100
AcDbRegAppTableRecord
  2
ACAD
 70
     0
  0
ENDTAB
  0
TABLE
  2
DIMSTYLE
  5
A
330
0
100
AcDbSymbolTable
 70
     1
100
AcDbDimStyleTable
  0
DIMSTYLE
105
27
330
A
100
AcDbSymbolTableRecord
100
AcDbDimStyleTableRecord
  2
ISO-25
 70
     0
 41
2.5
 42
0.625
 43
3.75
 44
1.25
 73
     0
 74
     0
 77
     1
 78
     8
140
2.5
141
2.5
143
0.0393700787
147
0.625
171
     3
172
     1
178
     0
271
     2
272
     2
274
     3
278
    44
283
     0
284
     8
340
11
  0
ENDTAB
  0
TABLE
  2
BLOCK_RECORD
  5
1
330
0
100
AcDbSymbolTable
 70
     1
  0
BLOCK_RECORD
  5
1F
330
1
100
AcDbSymbolTableRecord
100
AcDbBlockTableRecord
  2
*Model_Space
340
22
  0
BLOCK_RECORD
  5
1B
330
1
100
AcDbSymbolTableRecord
100
AcDbBlockTableRecord
  2
*Paper_Space
340
1E
  0
BLOCK_RECORD
  5
23
330
1
100
AcDbSymbolTableRecord
100
AcDbBlockTableRecord
  2
*Paper_Space0
340
26
  0
ENDTAB
  0
ENDSEC
  0
SECTION
  2
BLOCKS
  0
BLOCK
  5
20
330
1F
100
AcDbEntity
  8
0
100
AcDbBlockBegin
  2
*Model_Space
 70
     0
 10
0.0
 20
0.0
 30
0.0
  3
*Model_Space
  1

  0
ENDBLK
  5
21
330
1F
100
AcDbEntity
  8
0
100
AcDbBlockEnd
  0
BLOCK
  5
1C
330
1B
100
AcDbEntity
 67
     1
  8
0
100
AcDbBlockBegin
  2
*Paper_Space
 70
     0
 10
0.0
 20
0.0
 30
0.0
  3
*Paper_Space
  1

  0
ENDBLK
  5
1D
330
1B
100
AcDbEntity
 67
     1
  8
0
100
AcDbBlockEnd
  0
BLOCK
  5
24
330
23
100
AcDbEntity
  8
0
100
AcDbBlockBegin
  2
*Paper_Space0
 70
     0
 10
0.0
 20
0.0
 30
0.0
  3
*Paper_Space0
  1

  0
ENDBLK
  5
25
330
23
100
AcDbEntity
  8
0
100
AcDbBlockEnd
  0
ENDSEC
  0
SECTION
  2
ENTITIES
  0
LINE
  5
63
330
1F
100
AcDbEntity
  8
0
  6
Continuous
 62
     7
100
AcDbLine
 10
-12.2243
 20
35.085053849
 30
0.0
 11
-12.2243
 21
3.0655747223
 31
0.0
  0
LINE
  5
64
330
1F
100
AcDbEntity
  8
0
  6
Continuous
 62
     7
100
AcDbLine
 10
-12.2243
 20
3.0655747223
 30
0.0
 11
-15.1043
 21
3.0655747223
 31
0.0
  0
LINE
  5
65
330
1F
100
AcDbEntity
  8
0
  6
Continuous
 62
     7
100
AcDbLine
 10
-15.1043
 20
3.0655747223
 30
0.0
 11
-15.1043
 21
38.9678747223
 31
0.0
  0
LINE
  5
66
330
1F
100
AcDbEntity
  8
0
  6
Continuous
 62
     7
100
AcDbLine
 10
-15.1043
 20
38.9678747223
 30
0.0
 11
-15.3544
 21
39.3910747223
 31
0.0
  0
LINE
  5
67
330
1F
100
AcDbEntity
  8
0
  6
Continuous
 62
     7
100
AcDbLine
 10
-38.8391
 20
44.8219747223
 30
0.0
 11
-18.0694
 21
17.9636747223
 31
0.0
  0
LINE
  5
68
330
1F
100
AcDbEntity
  8
0
  6
Continuous
 62
     7
100
AcDbLine
 10
-16.1177
 20
39.8587747223
 30
0.0
 11
-16.631
 21
39.9030747223
 31
0.0
  0
LINE
  5
69
330
1F
100
AcDbEntity
  8
0
  6
Continuous
 62
     7
100
AcDbLine
 10
-16.631
 20
39.9030747223
 30
0.0
 11
-17.3391
 21
42.3930747223
 31
0.0
  0
LINE
  5
6A
330
1F
100
AcDbEntity
  8
0
  6
Continuous
 62
     7
100
AcDbLine
 10
-58.4528
 20
-12.7091252777
 30
0.0
 11
-64.6609
 21
-11.7217252777
 31
0.0
  0
LINE
  5
6B
330
1F
100
AcDbEntity
  8
0
  6
Continuous
 62
     7
100
AcDbLine
 10
-64.6609
 20
-11.7217252777
 30
0.0
 11
-76.9225
 21
-27.1641252777
 31
0.0
  0
LINE
  5
6C
330
1F
100
AcDbEntity
  8
0
  6
Continuous
 62
     7
100
AcDbLine
 10
-76.9225
 20
-27.1641252777
 30
0.0
 11
-76.473
 21
-28.7868252777
 31
0.0
  0
LINE
  5
6D
330
1F
100
AcDbEntity
  8
0
  6
Continuous
 62
     7
100
AcDbLine
 10
-76.473
 20
-28.7868252777
 30
0.0
 11
-79.7441
 21
-30.5774252777
 31
0.0
  0
LINE
  5
6E
330
1F
100
AcDbEntity
  8
0
  6
Continuous
 62
     7
100
AcDbLine
 10
-79.7441
 20
-30.5774252777
 30
0.0
 11
-80.3997
 21
-30.2530252777
 31
0.0
  0
LINE
  5
6F
330
1F
100
AcDbEntity
  8
0
  6
Continuous
 62
     7
100
AcDbLine
 10
-80.3997
 20
-30.2530252777
 30
0.0
 11
-86.5596
 21
-37.6944252777
 31
0.0
  0
LINE
  5
70
330
1F
100
AcDbEntity
  8
0
  6
Continuous
 62
     7
100
AcDbLine
 10
-86.5596
 20
-37.6944252777
 30
0.0
 11
-80.9128
 21
-43.8685252777
 31
0.0
  0
LINE
  5
71
330
1F
100
AcDbEntity
  8
0
  6
Continuous
 62
     7
100
AcDbLine
 10
-80.9128
 20
-43.8685252777
 30
0.0
 11
-80.115
 21
-43.8443252777
 31
0.0
  0
LINE
  5
72
330
1F
100
AcDbEntity
  8
0
  6
Continuous
 62
     7
100
AcDbLine
 10
-80.115
 20
-43.8443252777
 30
0.0
 11
-75.1581
 21
-48.5537252777
 31
0.0
  0
LINE
  5
73
330
1F
100
AcDbEntity
  8
0
  6
Continuous
 62
     7
100
AcDbLine
 10
-18.5405
 20
44.7421747223
 30
0.0
 11
-18.5879
 21
45.0601747223
 31
0.0
  0
LINE
  5
74
330
1F
100
AcDbEntity
  8
0
  6
Continuous
 62
     7
100
AcDbLine
 10
-18.5879
 20
45.0601747223
 30
0.0
 11
-36.3468
 21
53.7166747223
 31
0.0
  0
LINE
  5
75
330
1F
100
AcDbEntity
  8
0
  6
Continuous
 62
     7
100
AcDbLine
 10
-36.3468
 20
53.7166747223
 30
0.0
 11
-39.4558
 21
48.0562747223
 31
0.0
  0
LINE
  5
76
330
1F
100
AcDbEntity
  8
0
  6
Continuous
 62
     7
100
AcDbLine
 10
-18.0694
 20
17.9636747223
 30
0.0
 11
-18.1001
 21
11.9657747223
 31
0.0
  0
LINE
  5
77
330
1F
100
AcDbEntity
  8
0
  6
Continuous
 62
     7
100
AcDbLine
 10
-18.8603
 20
11.1587747223
 30
0.0
 11
-36.7563
 21
14.2304747223
 31
0.0
  0
LINE
  5
78
330
1F
100
AcDbEntity
  8
0
  6
Continuous
 62
     7
100
AcDbLine
 10
-37.0437
 20
14.6821747223
 30
0.0
 11
-37.0437
 21
15.0149747223
 31
0.0
  0
LINE
  5
79
330
1F
100
AcDbEntity
  8
0
  6
Continuous
 62
     7
100
AcDbLine
 10
-37.0437
 20
15.0149747223
 30
0.0
 11
-50.8761
 21
17.5966747223
 31
0.0
  0
LINE
  5
7A
330
1F
100
AcDbEntity
  8
0
  6
Continuous
 62
     7
100
AcDbLine
 10
-74.3339
 20
-49.8801252777
 30
0.0
 11
-74.0089
 21
-50.3515252777
 31
0.0
  0
LINE
  5
7B
330
1F
100
AcDbEntity
  8
0
  6
Continuous
 62
     7
100
AcDbLine
 10
-50.8811292358
 20
17.2648133864
 30
0.0
 11
-50.7610824828
 21
17.5752076794
 31
0.0
  0
LINE
  5
7C
330
1F
100
AcDbEntity
  8
0
  6
Continuous
 62
     7
100
AcDbLine
 10
-51.3121161292
 20
16.9471941998
 30
0.0
 11
-58.1417
 21
18.1541747223
 31
0.0
  0
LINE
  5
7D
330
1F
100
AcDbEntity
  8
0
  6
Continuous
 62
     7
100
AcDbLine
 10
-58.6542
 20
12.1512747223
 30
0.0
 11
-59.3115
 21
11.9793747223
 31
0.0
  0
LINE
  5
7E
330
1F
100
AcDbEntity
  8
0
  6
Continuous
 62
     7
100
AcDbLine
 10
-59.3115
 20
11.9793747223
 30
0.0
 11
-59.2046
 21
8.3636747223
 31
0.0
  0
LINE
  5
7F
330
1F
100
AcDbEntity
  8
0
  6
Continuous
 62
     7
100
AcDbLine
 10
-59.2046
 20
8.3636747223
 30
0.0
 11
-58.5384
 21
7.9212747223
 31
0.0
  0
LINE
  5
80
330
1F
100
AcDbEntity
  8
0
  6
Continuous
 62
     7
100
AcDbLine
 10
-58.5384
 20
7.9212747223
 30
0.0
 11
-58.5384
 21
7.1551747223
 31
0.0
  0
LINE
  5
81
330
1F
100
AcDbEntity
  8
0
  6
Continuous
 62
     7
100
AcDbLine
 10
44.8390986143
 20
-52.2780513209
 30
0.0
 11
51.7741986143
 21
-43.4039513209
 31
0.0
  0
LINE
  5
82
330
1F
100
AcDbEntity
  8
0
  6
Continuous
 62
     7
100
AcDbLine
 10
-56.9079
 20
2.8723747223
 30
0.0
 11
-18.1121
 21
-35.9954252777
 31
0.0
  0
LINE
  5
83
330
1F
100
AcDbEntity
  8
0
  6
Continuous
 62
     7
100
AcDbLine
 10
-18.1121
 20
-35.9954252777
 30
0.0
 11
-18.0264
 21
-38.3672252777
 31
0.0
  0
LINE
  5
84
330
1F
100
AcDbEntity
  8
0
  6
Continuous
 62
     7
100
AcDbLine
 10
-6.3806
 20
-83.7550252777
 30
0.0
 11
-17.6051
 21
-42.5694252777
 31
0.0
  0
LINE
  5
85
330
1F
100
AcDbEntity
  8
0
  6
Continuous
 62
     7
100
AcDbLine
 10
-5.5572
 20
-86.1415252777
 30
0.0
 11
-6.3806
 21
-83.7550252777
 31
0.0
  0
LINE
  5
86
330
1F
100
AcDbEntity
  8
0
  6
Continuous
 62
     7
100
AcDbLine
 10
-1.898672951
 20
-51.2641252777
 30
0.0
 11
-1.9739762754
 21
-88.83668401
 31
0.0
  0
LINE
  5
87
330
1F
100
AcDbEntity
  8
0
  6
Continuous
 62
     7
100
AcDbLine
 10
-74.0089
 20
-50.3515252777
 30
0.0
 11
-73.0798
 21
-51.1617252777
 31
0.0
  0
LINE
  5
88
330
1F
100
AcDbEntity
  8
0
  6
Continuous
 62
     7
100
AcDbLine
 10
-73.0798
 20
-51.1617252777
 30
0.0
 11
-29.6259
 21
-91.0116252777
 31
0.0
  0
LINE
  5
89
330
1F
100
AcDbEntity
  8
0
  6
Continuous
 62
     7
100
AcDbLine
 10
-29.6259
 20
-91.0116252777
 30
0.0
 11
-24.2738
 21
-93.1961252777
 31
0.0
  0
LINE
  5
8A
330
1F
100
AcDbEntity
  8
0
  6
Continuous
 62
     7
100
AcDbLine
 10
-24.2738
 20
-93.1961252777
 30
0.0
 11
-9.6457
 21
-92.8871252777
 31
0.0
  0
LINE
  5
8B
330
1F
100
AcDbEntity
  8
0
  6
Continuous
 62
     7
100
AcDbLine
 10
-9.6457
 20
-92.8871252777
 30
0.0
 11
-51.6322428899
 21
-55.9189288881
 31
0.0
  0
LINE
  5
8C
330
1F
100
AcDbEntity
  8
0
  6
Continuous
 62
     7
100
AcDbLine
 10
-51.6322428899
 20
-55.9189288881
 30
0.0
 11
-49.6874
 21
-53.6347252777
 31
0.0
  0
LINE
  5
8D
330
1F
100
AcDbEntity
  8
0
  6
Continuous
 62
     7
100
AcDbLine
 10
-49.6874
 20
-53.6347252777
 30
0.0
 11
-30.9511
 21
-69.5874252777
 31
0.0
  0
LINE
  5
8E
330
1F
100
AcDbEntity
  8
0
  6
Continuous
 62
     7
100
AcDbLine
 10
-30.9511
 20
-69.5874252777
 30
0.0
 11
-30.5764803231
 21
-66.2835459542
 31
0.0
  0
LINE
  5
8F
330
1F
100
AcDbEntity
  8
0
  6
Continuous
 62
     7
100
AcDbLine
 10
-30.5764803231
 20
-66.2835459542
 30
0.0
 11
-50.9080874087
 21
-48.1459645845
 31
0.0
  0
LINE
  5
90
330
1F
100
AcDbEntity
  8
0
  6
Continuous
 62
     7
100
AcDbLine
 10
-50.9080874087
 20
-48.1459645845
 30
0.0
 11
-53.3918
 21
-44.9678252777
 31
0.0
  0
LINE
  5
91
330
1F
100
AcDbEntity
  8
0
  6
Continuous
 62
     7
100
AcDbLine
 10
-53.3918
 20
-44.9678252777
 30
0.0
 11
-58.4528
 21
-12.7091252777
 31
0.0
  0
LINE
  5
92
330
1F
100
AcDbEntity
  8
0
  6
Continuous
 62
     7
100
AcDbLine
 10
-39.1485
 20
3.4794747223
 30
0.0
 11
-40.6204
 21
2.0497747223
 31
0.0
  0
LINE
  5
93
330
1F
100
AcDbEntity
  8
0
  6
Continuous
 62
     7
100
AcDbLine
 10
-39.1485
 20
3.4794747223
 30
0.0
 11
-38.909
 21
1.4414747223
 31
0.0
  0
LINE
  5
94
330
1F
100
AcDbEntity
  8
0
  6
Continuous
 62
     7
100
AcDbLine
 10
-40.8629
 20
1.9782747223
 30
0.0
 11
-42.875
 21
2.3801747223
 31
0.0
  0
LINE
  5
95
330
1F
100
AcDbEntity
  8
0
  6
Continuous
 62
     7
100
AcDbLine
 10
-42.875
 20
2.3801747223
 30
0.0
 11
-41.9702
 21
0.5385747223
 31
0.0
  0
LINE
  5
96
330
1F
100
AcDbEntity
  8
0
  6
Continuous
 62
     7
100
AcDbLine
 10
-42.9812
 20
-1.5036252777
 30
0.0
 11
-41.9771
 21
0.2858747223
 31
0.0
  0
LINE
  5
97
330
1F
100
AcDbEntity
  8
0
  6
Continuous
 62
     7
100
AcDbLine
 10
-42.9812
 20
-1.5036252777
 30
0.0
 11
-40.9501
 21
-1.2121252777
 31
0.0
  0
LINE
  5
98
330
1F
100
AcDbEntity
  8
0
  6
Continuous
 62
     7
100
AcDbLine
 10
-40.7119
 20
-1.2968252777
 30
0.0
 11
-39.3202
 21
-2.8048252777
 31
0.0
  0
LINE
  5
99
330
1F
100
AcDbEntity
  8
0
  6
Continuous
 62
     7
100
AcDbLine
 10
-39.3202
 20
-2.8048252777
 30
0.0
 11
-38.9698
 21
-0.7830252777
 31
0.0
  0
LINE
  5
9A
330
1F
100
AcDbEntity
  8
0
  6
Continuous
 62
     7
100
AcDbLine
 10
-38.8156
 20
-0.5825252777
 30
0.0
 11
-36.9514
 21
0.2749747223
 31
0.0
  0
LINE
  5
9B
330
1F
100
AcDbEntity
  8
0
  6
Continuous
 62
     7
100
AcDbLine
 10
-36.9514
 20
0.2749747223
 30
0.0
 11
-38.766
 21
1.2329747223
 31
0.0
  0
LINE
  5
9C
330
1F
100
AcDbEntity
  8
0
  6
Continuous
 62
     7
100
AcDbLine
 10
-12.2243
 20
35.085053849
 30
0.0
 11
-3.4658579984
 21
35.0867747223
 31
0.0
  0
LINE
  5
9D
330
1F
100
AcDbEntity
  8
0
  6
Continuous
 62
     7
100
AcDbLine
 10
-3.4658579984
 20
35.0867747223
 30
0.0
 11
-2.0870579984
 21
35.8065747223
 31
0.0
  0
LINE
  5
9E
330
1F
100
AcDbEntity
  8
0
  6
Continuous
 62
     7
100
AcDbLine
 10
-2.0870579984
 20
35.8065747223
 30
0.0
 11
-1.5302579984
 21
33.3804747223
 31
0.0
  0
LINE
  5
9F
330
1F
100
AcDbEntity
  8
0
  6
Continuous
 62
     7
100
AcDbLine
 10
16.6699
 20
-35.9954252777
 30
0.0
 11
16.5842
 21
-38.3672252777
 31
0.0
  0
LINE
  5
A0
330
1F
100
AcDbEntity
  8
0
  6
Continuous
 62
     7
100
AcDbLine
 10
0.431327049
 20
-51.2641252777
 30
0.0
 11
0.5059318862
 21
-88.8367358076
 31
0.0
  0
LINE
  5
A1
330
1F
100
AcDbEntity
  8
0
  6
Continuous
 62
     7
100
AcDbLine
 10
4.115
 20
-86.1415252777
 30
0.0
 11
4.9384
 21
-83.7550252777
 31
0.0
  0
LINE
  5
A2
330
1F
100
AcDbEntity
  8
0
  6
Continuous
 62
     7
100
AcDbLine
 10
4.9384
 20
-83.7550252777
 30
0.0
 11
16.1629
 21
-42.5694252777
 31
0.0
  0
LINE
  5
A3
330
1F
100
AcDbEntity
  8
0
  6
Continuous
 62
     7
100
AcDbLine
 10
55.4657
 20
2.8723747223
 30
0.0
 11
16.6699
 21
-35.9954252777
 31
0.0
  0
LINE
  5
A4
330
1F
100
AcDbEntity
  8
0
  6
Continuous
 62
     7
100
AcDbLine
 10
57.7624
 20
8.3636747223
 30
0.0
 11
57.0962
 21
7.9212747223
 31
0.0
  0
LINE
  5
A5
330
1F
100
AcDbEntity
  8
0
  6
Continuous
 62
     7
100
AcDbLine
 10
57.8693
 20
11.9793747223
 30
0.0
 11
57.7624
 21
8.3636747223
 31
0.0
  0
LINE
  5
A6
330
1F
100
AcDbEntity
  8
0
  6
Continuous
 62
     7
100
AcDbLine
 10
57.212
 20
12.1512747223
 30
0.0
 11
57.8693
 21
11.9793747223
 31
0.0
  0
LINE
  5
A7
330
1F
100
AcDbEntity
  8
0
  6
Continuous
 62
     7
100
AcDbLine
 10
35.5092
 20
0.2749747223
 30
0.0
 11
37.3238
 21
1.2329747223
 31
0.0
  0
LINE
  5
A8
330
1F
100
AcDbEntity
  8
0
  6
Continuous
 62
     7
100
AcDbLine
 10
37.3734
 20
-0.5825252777
 30
0.0
 11
35.5092
 21
0.2749747223
 31
0.0
  0
LINE
  5
A9
330
1F
100
AcDbEntity
  8
0
  6
Continuous
 62
     7
100
AcDbLine
 10
37.878
 20
-2.8048252777
 30
0.0
 11
37.5276
 21
-0.7830252777
 31
0.0
  0
LINE
  5
AA
330
1F
100
AcDbEntity
  8
0
  6
Continuous
 62
     7
100
AcDbLine
 10
39.2697
 20
-1.2968252777
 30
0.0
 11
37.878
 21
-2.8048252777
 31
0.0
  0
LINE
  5
AB
330
1F
100
AcDbEntity
  8
0
  6
Continuous
 62
     7
100
AcDbLine
 10
41.539
 20
-1.5036252777
 30
0.0
 11
39.5079
 21
-1.2121252777
 31
0.0
  0
LINE
  5
AC
330
1F
100
AcDbEntity
  8
0
  6
Continuous
 62
     7
100
AcDbLine
 10
41.539
 20
-1.5036252777
 30
0.0
 11
40.5349
 21
0.2858747223
 31
0.0
  0
LINE
  5
AD
330
1F
100
AcDbEntity
  8
0
  6
Continuous
 62
     7
100
AcDbLine
 10
41.4328
 20
2.3801747223
 30
0.0
 11
40.528
 21
0.5385747223
 31
0.0
  0
LINE
  5
AE
330
1F
100
AcDbEntity
  8
0
  6
Continuous
 62
     7
100
AcDbLine
 10
39.4207
 20
1.9782747223
 30
0.0
 11
41.4328
 21
2.3801747223
 31
0.0
  0
LINE
  5
AF
330
1F
100
AcDbEntity
  8
0
  6
Continuous
 62
     7
100
AcDbLine
 10
37.7063
 20
3.4794747223
 30
0.0
 11
37.4668
 21
1.4414747223
 31
0.0
  0
LINE
  5
B0
330
1F
100
AcDbEntity
  8
0
  6
Continuous
 62
     7
100
AcDbLine
 10
37.7063
 20
3.4794747223
 30
0.0
 11
39.1782
 21
2.0497747223
 31
0.0
  0
LINE
  5
B1
330
1F
100
AcDbEntity
  8
0
  6
Continuous
 62
     7
100
AcDbLine
 10
57.0962
 20
7.9212747223
 30
0.0
 11
57.0962
 21
7.1551747223
 31
0.0
  0
LINE
  5
B2
330
1F
100
AcDbEntity
  8
0
  6
Continuous
 62
     7
100
AcDbLine
 10
49.8699161292
 20
16.9471941998
 30
0.0
 11
56.6995
 21
18.1541747223
 31
0.0
  0
LINE
  5
B3
330
1F
100
AcDbEntity
  8
0
  6
Continuous
 62
     7
100
AcDbLine
 10
49.4389292358
 20
17.2648133864
 30
0.0
 11
49.3188824828
 21
17.5752076794
 31
0.0
  0
LINE
  5
B4
330
1F
100
AcDbEntity
  8
0
  6
Continuous
 62
     7
100
AcDbLine
 10
35.6015
 20
15.0149747223
 30
0.0
 11
49.4339
 21
17.5966747223
 31
0.0
  0
LINE
  5
B5
330
1F
100
AcDbEntity
  8
0
  6
Continuous
 62
     7
100
AcDbLine
 10
35.6015
 20
14.6821747223
 30
0.0
 11
35.6015
 21
15.0149747223
 31
0.0
  0
LINE
  5
B6
330
1F
100
AcDbEntity
  8
0
  6
Continuous
 62
     7
100
AcDbLine
 10
17.4181
 20
11.1587747223
 30
0.0
 11
35.3141
 21
14.2304747223
 31
0.0
  0
LINE
  5
B7
330
1F
100
AcDbEntity
  8
0
  6
Continuous
 62
     7
100
AcDbLine
 10
9.6612420016
 20
3.0655747223
 30
0.0
 11
12.5412420016
 21
3.0655747223
 31
0.0
  0
LINE
  5
B8
330
1F
100
AcDbEntity
  8
0
  6
Continuous
 62
     7
100
AcDbLine
 10
16.6272
 20
17.9636747223
 30
0.0
 11
16.6579
 21
11.9657747223
 31
0.0
  0
LINE
  5
B9
330
1F
100
AcDbEntity
  8
0
  6
Continuous
 62
     7
100
AcDbLine
 10
0.6481420016
 20
35.8065747223
 30
0.0
 11
0.0913420016
 21
33.3804747223
 31
0.0
  0
LINE
  5
BA
330
1F
100
AcDbEntity
  8
0
  6
Continuous
 62
     7
100
AcDbLine
 10
2.0269420016
 20
35.0867747223
 30
0.0
 11
0.6481420016
 21
35.8065747223
 31
0.0
  0
LINE
  5
BB
330
1F
100
AcDbEntity
  8
0
  6
Continuous
 62
     7
100
AcDbLine
 10
9.6612420016
 20
35.0852747223
 30
0.0
 11
2.0269420016
 21
35.0867747223
 31
0.0
  0
LINE
  5
BC
330
1F
100
AcDbEntity
  8
0
  6
Continuous
 62
     7
100
AcDbLine
 10
34.9046
 20
53.7166747223
 30
0.0
 11
38.0136
 21
48.0562747223
 31
0.0
  0
LINE
  5
BD
330
1F
100
AcDbEntity
  8
0
  6
Continuous
 62
     7
100
AcDbLine
 10
17.1457
 20
45.0601747223
 30
0.0
 11
34.9046
 21
53.7166747223
 31
0.0
  0
LINE
  5
BE
330
1F
100
AcDbEntity
  8
0
  6
Continuous
 62
     7
100
AcDbLine
 10
17.0983
 20
44.7421747223
 30
0.0
 11
17.1457
 21
45.0601747223
 31
0.0
  0
LINE
  5
BF
330
1F
100
AcDbEntity
  8
0
  6
Continuous
 62
     7
100
AcDbLine
 10
15.1888
 20
39.9030747223
 30
0.0
 11
15.8969
 21
42.3930747223
 31
0.0
  0
LINE
  5
C0
330
1F
100
AcDbEntity
  8
0
  6
Continuous
 62
     7
100
AcDbLine
 10
14.6755
 20
39.8587747223
 30
0.0
 11
15.1888
 21
39.9030747223
 31
0.0
  0
LINE
  5
C1
330
1F
100
AcDbEntity
  8
0
  6
Continuous
 62
     7
100
AcDbLine
 10
37.3969
 20
44.8219747223
 30
0.0
 11
16.6272
 21
17.9636747223
 31
0.0
  0
LINE
  5
C2
330
1F
100
AcDbEntity
  8
0
  6
Continuous
 62
     7
100
AcDbLine
 10
12.5412420016
 20
38.9678747223
 30
0.0
 11
13.9122
 21
39.3910747223
 31
0.0
  0
LINE
  5
C3
330
1F
100
AcDbEntity
  8
0
  6
Continuous
 62
     7
100
AcDbLine
 10
12.5412420016
 20
3.0655747223
 30
0.0
 11
12.5412420016
 21
38.9678747223
 31
0.0
  0
LINE
  5
C4
330
1F
100
AcDbEntity
  8
0
  6
Continuous
 62
     7
100
AcDbLine
 10
9.6612420016
 20
35.0852747223
 30
0.0
 11
9.6612420016
 21
3.0655747223
 31
0.0
  0
LINE
  5
C5
330
1F
100
AcDbEntity
  8
0
  6
Continuous
 62
     7
100
AcDbLine
 10
-1.5302579984
 20
33.3804747223
 30
0.0
 11
0.0913420016
 21
33.3804747223
 31
0.0
  0
LINE
  5
C6
330
1F
100
AcDbEntity
  8
0
  6
Continuous
 62
     7
100
AcDbLine
 10
-1.898672951
 20
-51.2641252777
 30
0.0
 11
0.431327049
 21
-51.2641252777
 31
0.0
  0
LINE
  5
C7
330
1F
100
AcDbEntity
  8
0
  6
Continuous
 62
     7
100
AcDbLine
 10
29.1364986143
 20
-66.2861513209
 30
0.0
 11
44.8390986143
 21
-52.2780513209
 31
0.0
  0
LINE
  5
C8
330
1F
100
AcDbEntity
  8
0
  6
Continuous
 62
     7
100
AcDbLine
 10
29.5111182913
 20
-69.5900306444
 30
0.0
 11
29.1364986143
 21
-66.2861513209
 31
0.0
  0
LINE
  5
C9
330
1F
100
AcDbEntity
  8
0
  6
Continuous
 62
     7
100
AcDbLine
 10
48.2474182913
 20
-53.6373306444
 30
0.0
 11
29.5111182913
 21
-69.5900306444
 31
0.0
  0
LINE
  5
CA
330
1F
100
AcDbEntity
  8
0
  6
Continuous
 62
     7
100
AcDbLine
 10
50.1922611812
 20
-55.9215342548
 30
0.0
 11
48.2474182913
 21
-53.6373306444
 31
0.0
  0
LINE
  5
CB
330
1F
100
AcDbEntity
  8
0
  6
Continuous
 62
     7
100
AcDbLine
 10
7.6524611812
 20
-92.2399342548
 30
0.0
 11
50.1922611812
 21
-55.9215342548
 31
0.0
  0
LINE
  5
CC
330
1F
100
AcDbEntity
  8
0
  6
Continuous
 62
     7
100
AcDbLine
 10
22.2805611812
 20
-92.5489342548
 30
0.0
 11
7.6524611812
 21
-92.2399342548
 31
0.0
  0
LINE
  5
CD
330
1F
100
AcDbEntity
  8
0
  6
Continuous
 62
     7
100
AcDbLine
 10
27.6326611812
 20
-90.3644342548
 30
0.0
 11
22.2805611812
 21
-92.5489342548
 31
0.0
  0
LINE
  5
CE
330
1F
100
AcDbEntity
  8
0
  6
Continuous
 62
     7
100
AcDbLine
 10
71.0865611812
 20
-50.5145342548
 30
0.0
 11
27.6326611812
 21
-90.3644342548
 31
0.0
  0
LINE
  5
CF
330
1F
100
AcDbEntity
  8
0
  6
Continuous
 62
     7
100
AcDbLine
 10
72.0156611812
 20
-49.7043342548
 30
0.0
 11
71.0865611812
 21
-50.5145342548
 31
0.0
  0
LINE
  5
D0
330
1F
100
AcDbEntity
  8
0
  6
Continuous
 62
     7
100
AcDbLine
 10
72.8917
 20
-49.8801252777
 30
0.0
 11
72.0156611812
 21
-49.7043342548
 31
0.0
  0
LINE
  5
D1
330
1F
100
AcDbEntity
  8
0
  6
Continuous
 62
     7
100
AcDbLine
 10
78.6728
 20
-43.8443252777
 30
0.0
 11
73.7159
 21
-48.5537252777
 31
0.0
  0
LINE
  5
D2
330
1F
100
AcDbEntity
  8
0
  6
Continuous
 62
     7
100
AcDbLine
 10
79.4706
 20
-43.8685252777
 30
0.0
 11
78.6728
 21
-43.8443252777
 31
0.0
  0
LINE
  5
D3
330
1F
100
AcDbEntity
  8
0
  6
Continuous
 62
     7
100
AcDbLine
 10
84.9419986143
 20
-36.1305513209
 30
0.0
 11
79.4706
 21
-43.8685252777
 31
0.0
  0
LINE
  5
D4
330
1F
100
AcDbEntity
  8
0
  6
Continuous
 62
     7
100
AcDbLine
 10
78.7820986143
 20
-28.6891513209
 30
0.0
 11
84.9419986143
 21
-36.1305513209
 31
0.0
  0
LINE
  5
D5
330
1F
100
AcDbEntity
  8
0
  6
Continuous
 62
     7
100
AcDbLine
 10
78.1264986143
 20
-29.0135513209
 30
0.0
 11
78.7820986143
 21
-28.6891513209
 31
0.0
  0
LINE
  5
D6
330
1F
100
AcDbEntity
  8
0
  6
Continuous
 62
     7
100
AcDbLine
 10
74.8553986143
 20
-27.2229513209
 30
0.0
 11
78.1264986143
 21
-29.0135513209
 31
0.0
  0
LINE
  5
D7
330
1F
100
AcDbEntity
  8
0
  6
Continuous
 62
     7
100
AcDbLine
 10
75.3048986143
 20
-25.6002513209
 30
0.0
 11
74.8553986143
 21
-27.2229513209
 31
0.0
  0
LINE
  5
D8
330
1F
100
AcDbEntity
  8
0
  6
Continuous
 62
     7
100
AcDbLine
 10
63.0432986143
 20
-10.1578513209
 30
0.0
 11
75.3048986143
 21
-25.6002513209
 31
0.0
  0
LINE
  5
D9
330
1F
100
AcDbEntity
  8
0
  6
Continuous
 62
     7
100
AcDbLine
 10
56.8351986143
 20
-11.1452513209
 30
0.0
 11
63.0432986143
 21
-10.1578513209
 31
0.0
  0
LINE
  5
DA
330
1F
100
AcDbEntity
  8
0
  6
Continuous
 62
     7
100
AcDbLine
 10
51.7741986143
 20
-43.4039513209
 30
0.0
 11
56.8351986143
 21
-11.1452513209
 31
0.0
  0
LINE
  5
DB
330
1F
100
AcDbEntity
  8
0
  6
Continuous
 62
     7
100
AcDbLine
 10
-46.5419
 20
59.5175747223
 30
0.0
 11
-53.0467
 21
60.2089747223
 31
0.0
  0
LINE
  5
DC
330
1F
100
AcDbEntity
  8
0
  6
Continuous
 62
     7
100
AcDbLine
 10
-61.4522
 20
62.9553747223
 30
0.0
 11
-59.4509
 21
63.9495747223
 31
0.0
  0
LINE
  5
DD
330
1F
100
AcDbEntity
  8
0
  6
Continuous
 62
     7
100
AcDbLine
 10
47.274
 20
64.8369747189
 30
0.0
 11
2.957934946
 21
64.8369747189
 31
0.0
  0
LINE
  5
DE
330
1F
100
AcDbEntity
  8
0
  6
Continuous
 62
     7
100
AcDbLine
 10
-46.5419
 20
59.5175747223
 30
0.0
 11
28.1547
 21
59.0969747223
 31
0.0
  0
LINE
  5
DF
330
1F
100
AcDbEntity
  8
0
  6
Continuous
 62
     7
100
AcDbLine
 10
2.957934946
 20
64.8369747189
 30
0.0
 11
2.9578
 21
62.1369747223
 31
0.0
  0
LINE
  5
E0
330
1F
100
AcDbEntity
  8
0
  6
Continuous
 62
     7
100
AcDbLine
 10
2.9578
 20
62.1369747223
 30
0.0
 11
47.274
 21
62.1348747223
 31
0.0
  0
LINE
  5
E1
330
1F
100
AcDbEntity
  8
0
  6
Continuous
 62
     7
100
AcDbLine
 10
-22.6131
 20
71.2549747223
 30
0.0
 11
-27.1012
 21
71.0760747223
 31
0.0
  0
LINE
  5
E2
330
1F
100
AcDbEntity
  8
0
  6
Continuous
 62
     7
100
AcDbLine
 10
-22.9584
 20
73.9847747223
 30
0.0
 11
-27.6342
 21
71.8173747223
 31
0.0
  0
SPLINE
  5
E3
330
1F
100
AcDbEntity
  8
0
  6
Continuous
 62
     7
100
AcDbSpline
210
0.0
220
0.0
230
1.0
 70
     8
 71
     3
 72
     9
 73
     5
 74
     0
 42
0.00000001
 43
0.00000001
 40
0.0
 40
0.0
 40
0.0
 40
0.0
 40
0.5441542786823808
 40
1.0
 40
1.0
 40
1.0
 40
1.0
 10
-15.35439491271973
 20
39.39107472228716
 30
0.0
 10
-15.45973418371229
 20
39.53306978886295
 30
0.0
 10
-15.65331764913615
 20
39.79401612731612
 30
0.0
 10
-15.97229537051418
 20
39.83849789761829
 30
0.0
 10
-16.1177
 20
39.85877472228716
 30
0.0
  0
SPLINE
  5
E4
330
1F
100
AcDbEntity
  8
0
  6
Continuous
 62
     7
100
AcDbSpline
210
0.0
220
0.0
230
1.0
 70
     8
 71
     3
 72
    10
 73
     6
 74
     0
 42
0.00000001
 43
0.00000001
 40
0.0
 40
0.0
 40
0.0
 40
0.0
 40
0.3808605415080749
 40
0.6658228517553609
 40
1.0
 40
1.0
 40
1.0
 40
1.0
 10
-17.99049973487854
 20
44.31977472228715
 30
0.0
 10
-18.04548041029417
 20
44.36459953331914
 30
0.0
 10
-18.14159798118172
 20
44.44296255667815
 30
0.0
 10
-18.33514240076298
 20
44.41852485908487
 30
0.0
 10
-18.41779091493322
 20
44.50110340318459
 30
0.0
 10
-18.4624
 20
44.54567472228716
 30
0.0
  0
SPLINE
  5
E5
330
1F
100
AcDbEntity
  8
0
  6
Continuous
 62
     7
100
AcDbSpline
210
0.0
220
0.0
230
1.0
 70
     8
 71
     3
 72
     9
 73
     5
 74
     0
 42
0.00000001
 43
0.00000001
 40
0.0
 40
0.0
 40
0.0
 40
0.0
 40
0.5566632993480466
 40
1.0
 40
1.0
 40
1.0
 40
1.0
 10
-18.46238970756531
 20
44.54567472228716
 30
0.0
 10
-18.48369619520935
 20
44.57954247192156
 30
0.0
 10
-18.52197155424415
 20
44.64038310875547
 30
0.0
 10
-18.53480878463363
 20
44.71090831156206
 30
0.0
 10
-18.5405
 20
44.74217472228715
 30
0.0
  0
SPLINE
  5
E6
330
1F
100
AcDbEntity
  8
0
  6
Continuous
 62
     7
100
AcDbSpline
210
0.0
220
0.0
230
1.0
 70
     8
 71
     3
 72
     9
 73
     5
 74
     0
 42
0.00000001
 43
0.00000001
 40
0.0
 40
0.0
 40
0.0
 40
0.0
 40
0.5455643601256944
 40
1.0
 40
1.0
 40
1.0
 40
1.0
 10
-39.45577144622803
 20
48.05627472228714
 30
0.0
 10
-39.58770698851342
 20
47.41491632792032
 30
0.0
 10
-39.82954012852095
 20
46.23932928220669
 30
0.0
 10
-39.14856112789184
 20
45.26482444949919
 30
0.0
 10
-38.83909999999999
 20
44.82197472228716
 30
0.0
  0
SPLINE
  5
E7
330
1F
100
AcDbEntity
  8
0
  6
Continuous
 62
     7
100
AcDbSpline
210
0.0
220
0.0
230
1.0
 70
     8
 71
     3
 72
    11
 73
     7
 74
     0
 42
0.00000001
 43
0.00000001
 40
0.0
 40
0.0
 40
0.0
 40
0.0
 40
0.4593437095843873
 40
0.6163095242517798
 40
0.772215394389601
 40
1.0
 40
1.0
 40
1.0
 40
1.0
 10
-18.10009777545929
 20
11.96577472228715
 30
0.0
 10
-18.08614681052053
 20
11.74190318298336
 30
0.0
 10
-18.06742855579132
 20
11.44153080604001
 30
0.0
 10
-18.2610084779935
 20
11.01700698581977
 30
0.0
 10
-18.56674616327114
 20
11.12239885625457
 30
0.0
 10
-18.75094632891314
 20
11.14522410910508
 30
0.0
 10
-18.86030000000001
 20
11.15877472228715
 30
0.0
  0
SPLINE
  5
E8
330
1F
100
AcDbEntity
  8
0
  6
Continuous
 62
     7
100
AcDbSpline
210
0.0
220
0.0
230
1.0
 70
     8
 71
     3
 72
    10
 73
     6
 74
     0
 42
0.00000001
 43
0.00000001
 40
0.0
 40
0.0
 40
0.0
 40
0.0
 40
0.2505121756520413
 40
0.383387238068118
 40
1.0
 40
1.0
 40
1.0
 40
1.0
 10
-36.75627708435059
 20
14.23047472228715
 30
0.0
 10
-36.80924288176345
 20
14.23364985545926
 30
0.0
 10
-36.89030245792714
 20
14.23850912241579
 30
0.0
 10
-37.02822070452054
 20
14.3967471612984
 30
0.0
 10
-37.0367131563999
 20
14.55334213230047
 30
0.0
 10
-37.04370000000001
 20
14.68217472228715
 30
0.0
  0
SPLINE
  5
E9
330
1F
100
AcDbEntity
  8
0
  6
Continuous
 62
     7
100
AcDbSpline
210
0.0
220
0.0
230
1.0
 70
     8
 71
     3
 72
    10
 73
     6
 74
     0
 42
0.00000001
 43
0.00000001
 40
0.0
 40
0.0
 40
0.0
 40
0.0
 40
0.2504508068084276
 40
0.383336749173053
 40
1.0
 40
1.0
 40
1.0
 40
1.0
 10
-51.31208896636963
 20
16.94719419979213
 30
0.0
 10
-51.26156030004049
 20
16.93105662886182
 30
0.0
 10
-51.18422178020303
 20
16.90635667257576
 30
0.0
 10
-50.99852532750661
 20
17.00418798011106
 30
0.0
 10
-50.93411796082248
 20
17.14717567129421
 30
0.0
 10
-50.88112923576293
 20
17.26481338643575
 30
0.0
  0
SPLINE
  5
EA
330
1F
100
AcDbEntity
  8
0
  6
Continuous
 62
     7
100
AcDbSpline
210
0.0
220
0.0
230
1.0
 70
     8
 71
     3
 72
    10
 73
     6
 74
     0
 42
0.00000001
 43
0.00000001
 40
0.0
 40
0.0
 40
0.0
 40
0.0
 40
0.1230344589949708
 40
0.2403454779199731
 40
1.0
 40
1.0
 40
1.0
 40
1.0
 10
-58.14167857170106
 20
18.15417472228715
 30
0.0
 10
-58.20264450763764
 20
18.15082841556989
 30
0.0
 10
-58.32174030510132
 20
18.14429146897952
 30
0.0
 10
-58.62699372063879
 20
17.74181333505643
 30
0.0
 10
-58.60717102692658
 20
17.31001324232273
 30
0.0
 10
-58.59
 20
16.93597472228715
 30
0.0
  0
SPLINE
  5
EB
330
1F
100
AcDbEntity
  8
0
  6
Continuous
 62
     7
100
AcDbSpline
210
0.0
220
0.0
230
1.0
 70
     8
 71
     3
 72
     9
 73
     5
 74
     0
 42
0.00000001
 43
0.00000001
 40
0.0
 40
0.0
 40
0.0
 40
0.0
 40
0.5762858495666479
 40
1.0
 40
1.0
 40
1.0
 40
1.0
 10
-58.65418910980225
 20
12.15127472228715
 30
0.0
 10
-58.71269078807861
 20
13.07192852495007
 30
0.0
 10
-58.81420582323059
 20
14.66949300333388
 30
0.0
 10
-58.65672630168315
 20
16.26144298729899
 30
0.0
 10
-58.59
 20
16.93597472228715
 30
0.0
  0
SPLINE
  5
EC
330
1F
100
AcDbEntity
  8
0
  6
Continuous
 62
     7
100
AcDbSpline
210
0.0
220
0.0
230
1.0
 70
     8
 71
     3
 72
     9
 73
     5
 74
     0
 42
0.00000001
 43
0.00000001
 40
0.0
 40
0.0
 40
0.0
 40
0.0
 40
0.5949973197720014
 40
1.0
 40
1.0
 40
1.0
 40
1.0
 10
-58.53837728500366
 20
7.155174722287147
 30
0.0
 10
-58.43525169513878
 20
6.212807966031316
 30
0.0
 10
-58.26193059529854
 20
4.628991157214533
 30
0.0
 10
-57.29820959009818
 20
3.378732734474496
 30
0.0
 10
-56.90790000000001
 20
2.872374722287151
 30
0.0
  0
SPLINE
  5
ED
330
1F
100
AcDbEntity
  8
0
  6
Continuous
 62
     7
100
AcDbSpline
210
0.0
220
0.0
230
1.0
 70
     8
 71
     3
 72
     9
 73
     5
 74
     0
 42
0.00000001
 43
0.00000001
 40
0.0
 40
0.0
 40
0.0
 40
0.0
 40
0.5600499317835979
 40
1.0
 40
1.0
 40
1.0
 40
1.0
 10
-18.02639663219452
 20
-38.36722527771285
 30
0.0
 10
-17.99374144053301
 20
-39.15654445636036
 30
0.0
 10
-17.93543379721715
 20
-40.56591732447902
 30
0.0
 10
-17.70602737229415
 20
-41.95729053765957
 30
0.0
 10
-17.6051
 20
-42.56942527771283
 30
0.0
  0
SPLINE
  5
EE
330
1F
100
AcDbEntity
  8
0
  6
Continuous
 62
     7
100
AcDbSpline
210
0.0
220
0.0
230
1.0
 70
     8
 71
     3
 72
     9
 73
     5
 74
     0
 42
0.00000001
 43
0.00000001
 40
0.0
 40
0.0
 40
0.0
 40
0.0
 40
0.5671153964148904
 40
1.0
 40
1.0
 40
1.0
 40
1.0
 10
-1.973975449800491
 20
-88.83668401004188
 30
0.0
 10
-2.902809400850194
 20
-88.63272998016328
 30
0.0
 10
-4.540631186189605
 20
-88.27309588952154
 30
0.0
 10
-5.250087349838036
 20
-86.78548788084069
 30
0.0
 10
-5.557199999999998
 20
-86.14152527771284
 30
0.0
  0
SPLINE
  5
EF
330
1F
100
AcDbEntity
  8
0
  6
Continuous
 62
     7
100
AcDbSpline
210
0.0
220
0.0
230
1.0
 70
     8
 71
     3
 72
     9
 73
     5
 74
     0
 42
0.00000001
 43
0.00000001
 40
0.0
 40
0.0
 40
0.0
 40
0.0
 40
0.559542388787289
 40
1.0
 40
1.0
 40
1.0
 40
1.0
 10
-17.99049973487854
 20
44.31977472228715
 30
0.0
 10
-17.84999180118512
 20
43.96675356778392
 30
0.0
 10
-17.59887957714443
 20
43.33584309240716
 30
0.0
 10
-17.41853440410895
 20
42.68135082357441
 30
0.0
 10
-17.3391
 20
42.39307472228715
 30
0.0
  0
SPLINE
  5
F0
330
1F
100
AcDbEntity
  8
0
  6
Continuous
 62
     7
100
AcDbSpline
210
0.0
220
0.0
230
1.0
 70
     8
 71
     3
 72
    11
 73
     7
 74
     0
 42
0.00000001
 43
0.00000001
 40
0.0
 40
0.0
 40
0.0
 40
0.0
 40
0.3666954957765027
 40
0.465580761769301
 40
0.5704913558360235
 40
1.0
 40
1.0
 40
1.0
 40
1.0
 10
-75.15805959701538
 20
-48.55372527771286
 30
0.0
 10
-75.02374109932782
 20
-48.69240251636229
 30
0.0
 10
-74.85320148487018
 20
-48.86847627552789
 30
0.0
 10
-74.69472976712812
 20
-49.1267515270594
 30
0.0
 10
-74.62709754006224
 20
-49.45646459554002
 30
0.0
 10
-74.46454346431341
 20
-49.69134982209103
 30
0.0
 10
-74.3339
 20
-49.88012527771287
 30
0.0
  0
SPLINE
  5
F1
330
1F
100
AcDbEntity
  8
0
  6
Continuous
 62
     7
100
AcDbSpline
210
0.0
220
0.0
230
1.0
 70
     8
 71
     3
 72
     9
 73
     5
 74
     0
 42
0.00000001
 43
0.00000001
 40
0.0
 40
0.0
 40
0.0
 40
0.0
 40
0.5567064851307875
 40
1.0
 40
1.0
 40
1.0
 40
1.0
 10
-40.62038660049438
 20
2.049774722287151
 30
0.0
 10
-40.6611303460974
 20
2.020420322660946
 30
0.0
 10
-40.7343174683804
 20
1.96769163993452
 30
0.0
 10
-40.82340713052807
 20
1.975024231845728
 30
0.0
 10
-40.8629
 20
1.978274722287149
 30
0.0
  0
SPLINE
  5
F2
330
1F
100
AcDbEntity
  8
0
  6
Continuous
 62
     7
100
AcDbSpline
210
0.0
220
0.0
230
1.0
 70
     8
 71
     3
 72
     9
 73
     5
 74
     0
 42
0.00000001
 43
0.00000001
 40
0.0
 40
0.0
 40
0.0
 40
0.0
 40
0.5534770142522213
 40
1.0
 40
1.0
 40
1.0
 40
1.0
 10
-41.97707772254944
 20
0.2858747222871522
 30
0.0
 10
-41.9590693518995
 20
0.332484736931412
 30
0.0
 10
-41.92653255238263
 20
0.4166978360196056
 30
0.0
 10
-41.95672042222473
 20
0.500952899691848
 30
0.0
 10
-41.97019999999998
 20
0.5385747222871468
 30
0.0
  0
SPLINE
  5
F3
330
1F
100
AcDbEntity
  8
0
  6
Continuous
 62
     7
100
AcDbSpline
210
0.0
220
0.0
230
1.0
 70
     8
 71
     3
 72
     9
 73
     5
 74
     0
 42
0.00000001
 43
0.00000001
 40
0.0
 40
0.0
 40
0.0
 40
0.0
 40
0.5672318740416832
 40
1.0
 40
1.0
 40
1.0
 40
1.0
 10
-40.95008969306947
 20
-1.212125277712847
 30
0.0
 10
-40.89847235383041
 20
-1.211507981697674
 30
0.0
 10
-40.80747369596011
 20
-1.210419721246487
 30
0.0
 10
-40.74076806911893
 20
-1.270726448413923
 30
0.0
 10
-40.71189999999999
 20
-1.296825277712854
 30
0.0
  0
SPLINE
  5
F4
330
1F
100
AcDbEntity
  8
0
  6
Continuous
 62
     7
100
AcDbSpline
210
0.0
220
0.0
230
1.0
 70
     8
 71
     3
 72
     9
 73
     5
 74
     0
 42
0.00000001
 43
0.00000001
 40
0.0
 40
0.0
 40
0.0
 40
0.0
 40
0.5784652833222619
 40
1.0
 40
1.0
 40
1.0
 40
1.0
 10
-38.96978497505188
 20
-0.7830252777128455
 30
0.0
 10
-38.95392222936331
 20
-0.7327672110880618
 30
0.0
 10
-38.92650010716185
 20
-0.6458854775186073
 30
0.0
 10
-38.84848575699457
 20
-0.6013137909727923
 30
0.0
 10
-38.8156
 20
-0.5825252777128531
 30
0.0
  0
SPLINE
  5
F5
330
1F
100
AcDbEntity
  8
0
  6
Continuous
 62
     7
100
AcDbSpline
210
0.0
220
0.0
230
1.0
 70
     8
 71
     3
 72
     9
 73
     5
 74
     0
 42
0.00000001
 43
0.00000001
 40
0.0
 40
0.0
 40
0.0
 40
0.0
 40
0.5451066147672412
 40
1.0
 40
1.0
 40
1.0
 40
1.0
 10
-38.76599669456482
 20
1.232974722287151
 30
0.0
 10
-38.8055535166782
 20
1.261981028519487
 30
0.0
 10
-38.87812064582645
 20
1.315193199215163
 30
0.0
 10
-38.89934512487555
 20
1.401990984093253
 30
0.0
 10
-38.90899999999998
 20
1.441474722287152
 30
0.0
  0
SPLINE
  5
F6
330
1F
100
AcDbEntity
  8
0
  6
Continuous
 62
     7
100
AcDbSpline
210
0.0
220
0.0
230
1.0
 70
     8
 71
     3
 72
     9
 73
     5
 74
     0
 42
0.00000001
 43
0.00000001
 40
0.0
 40
0.0
 40
0.0
 40
0.0
 40
0.5600498725373356
 40
1.0
 40
1.0
 40
1.0
 40
1.0
 10
16.58418774604797
 20
-38.36722527771285
 30
0.0
 10
16.55153633628578
 20
-39.15654450872923
 30
0.0
 10
16.49323543959196
 20
-40.56591761944939
 30
0.0
 10
16.26382788353025
 20
-41.95729057053473
 30
0.0
 10
16.1629
 20
-42.56942527771283
 30
0.0
  0
SPLINE
  5
F7
330
1F
100
AcDbEntity
  8
0
  6
Continuous
 62
     7
100
AcDbSpline
210
0.0
220
0.0
230
1.0
 70
     8
 71
     3
 72
     9
 73
     5
 74
     0
 42
0.00000001
 43
0.00000001
 40
0.0
 40
0.0
 40
0.0
 40
0.0
 40
0.5673648262482093
 40
1.0
 40
1.0
 40
1.0
 40
1.0
 10
0.5059316754341125
 20
-88.83673580764349
 30
0.0
 10
1.441689715131377
 20
-88.63656432365279
 30
0.0
 10
3.090995411230156
 20
-88.28375520555086
 30
0.0
 10
3.80576537327721
 20
-86.78844783973496
 30
0.0
 10
4.114999999999998
 20
-86.14152527771284
 30
0.0
  0
SPLINE
  5
F8
330
1F
100
AcDbEntity
  8
0
  6
Continuous
 62
     7
100
AcDbSpline
210
0.0
220
0.0
230
1.0
 70
     8
 71
     3
 72
     9
 73
     5
 74
     0
 42
0.00000001
 43
0.00000001
 40
0.0
 40
0.0
 40
0.0
 40
0.0
 40
0.5949974308878686
 40
1.0
 40
1.0
 40
1.0
 40
1.0
 10
57.09618330001831
 20
7.155174722287147
 30
0.0
 10
56.99305519603168
 20
6.21280806440355
 30
0.0
 10
56.81972990312623
 20
4.628991716697013
 30
0.0
 10
55.85600931435756
 20
3.378732796871743
 30
0.0
 10
55.4657
 20
2.87237472228715
 30
0.0
  0
SPLINE
  5
F9
330
1F
100
AcDbEntity
  8
0
  6
Continuous
 62
     7
100
AcDbSpline
210
0.0
220
0.0
230
1.0
 70
     8
 71
     3
 72
     9
 73
     5
 74
     0
 42
0.00000001
 43
0.00000001
 40
0.0
 40
0.0
 40
0.0
 40
0.0
 40
0.5762858323316938
 40
1.0
 40
1.0
 40
1.0
 40
1.0
 10
57.21199512481689
 20
12.15127472228715
 30
0.0
 10
57.27049421808594
 20
13.07192854359918
 30
0.0
 10
57.37200477063994
 20
14.66949310212214
 30
0.0
 10
57.2145259903261
 20
16.26144299742798
 30
0.0
 10
57.1478
 20
16.93597472228715
 30
0.0
  0
SPLINE
  5
FA
330
1F
100
AcDbEntity
  8
0
  6
Continuous
 62
     7
100
AcDbSpline
210
0.0
220
0.0
230
1.0
 70
     8
 71
     3
 72
    10
 73
     6
 74
     0
 42
0.00000001
 43
0.00000001
 40
0.0
 40
0.0
 40
0.0
 40
0.0
 40
0.1230308036492891
 40
0.2403423115471231
 40
1.0
 40
1.0
 40
1.0
 40
1.0
 10
56.6994845867157
 20
18.15417472228714
 30
0.0
 10
56.76044829792779
 20
18.15082792170125
 30
0.0
 10
56.87954171875085
 20
18.14428990223588
 30
0.0
 10
57.18479344087955
 20
17.74181311559595
 30
0.0
 10
57.16497089707337
 20
17.31001314045783
 30
0.0
 10
57.1478
 20
16.93597472228715
 30
0.0
  0
SPLINE
  5
FB
330
1F
100
AcDbEntity
  8
0
  6
Continuous
 62
     7
100
AcDbSpline
210
0.0
220
0.0
230
1.0
 70
     8
 71
     3
 72
     9
 73
     5
 74
     0
 42
0.00000001
 43
0.00000001
 40
0.0
 40
0.0
 40
0.0
 40
0.0
 40
0.5451369568359513
 40
1.0
 40
1.0
 40
1.0
 40
1.0
 10
37.32377290725708
 20
1.232974722287151
 30
0.0
 10
37.36333957530866
 20
1.261979357796449
 30
0.0
 10
37.43592072680726
 20
1.315185501950836
 30
0.0
 10
37.45714559284383
 20
1.401990387764459
 30
0.0
 10
37.46679999999998
 20
1.441474722287152
 30
0.0
  0
SPLINE
  5
FC
330
1F
100
AcDbEntity
  8
0
  6
Continuous
 62
     7
100
AcDbSpline
210
0.0
220
0.0
230
1.0
 70
     8
 71
     3
 72
     9
 73
     5
 74
     0
 42
0.00000001
 43
0.00000001
 40
0.0
 40
0.0
 40
0.0
 40
0.0
 40
0.5784694290173296
 40
1.0
 40
1.0
 40
1.0
 40
1.0
 10
37.52759099006653
 20
-0.7830252777128455
 30
0.0
 10
37.51172590159528
 20
-0.7327673209653283
 30
0.0
 10
37.48429992595087
 20
-0.6458863999927326
 30
0.0
 10
37.40628547574161
 20
-0.601313934529623
 30
0.0
 10
37.3734
 20
-0.5825252777128531
 30
0.0
  0
SPLINE
  5
FD
330
1F
100
AcDbEntity
  8
0
  6
Continuous
 62
     7
100
AcDbSpline
210
0.0
220
0.0
230
1.0
 70
     8
 71
     3
 72
     9
 73
     5
 74
     0
 42
0.00000001
 43
0.00000001
 40
0.0
 40
0.0
 40
0.0
 40
0.0
 40
0.5672417693507407
 40
1.0
 40
1.0
 40
1.0
 40
1.0
 10
39.50789570808411
 20
-1.212125277712847
 30
0.0
 10
39.45627620505215
 20
-1.211507533165486
 30
0.0
 10
39.36527532003087
 20
-1.210418500973679
 30
0.0
 10
39.2985680989615
 20
-1.270726496342877
 30
0.0
 10
39.2697
 20
-1.296825277712854
 30
0.0
  0
SPLINE
  5
FE
330
1F
100
AcDbEntity
  8
0
  6
Continuous
 62
     7
100
AcDbSpline
210
0.0
220
0.0
230
1.0
 70
     8
 71
     3
 72
     9
 73
     5
 74
     0
 42
0.00000001
 43
0.00000001
 40
0.0
 40
0.0
 40
0.0
 40
0.0
 40
0.553479506147135
 40
1.0
 40
1.0
 40
1.0
 40
1.0
 10
40.53488373756409
 20
0.2858747222871522
 30
0.0
 10
40.51687274600434
 20
0.3324846067982205
 30
0.0
 10
40.48433135764268
 20
0.4166970916208793
 30
0.0
 10
40.51452010542944
 20
0.5009528150511376
 30
0.0
 10
40.52799999999998
 20
0.5385747222871468
 30
0.0
  0
SPLINE
  5
FF
330
1F
100
AcDbEntity
  8
0
  6
Continuous
 62
     7
100
AcDbSpline
210
0.0
220
0.0
230
1.0
 70
     8
 71
     3
 72
     9
 73
     5
 74
     0
 42
0.00000001
 43
0.00000001
 40
0.0
 40
0.0
 40
0.0
 40
0.0
 40
0.5566974934458884
 40
1.0
 40
1.0
 40
1.0
 40
1.0
 10
39.17819261550903
 20
2.049774722287151
 30
0.0
 10
39.21893431427217
 20
2.020420414169978
 30
0.0
 10
39.29211894190711
 20
1.967691044157058
 30
0.0
 10
39.3812070280907
 20
1.975024003174333
 30
0.0
 10
39.4207
 20
1.978274722287149
 30
0.0
  0
SPLINE
  5
100
330
1F
100
AcDbEntity
  8
0
  6
Continuous
 62
     7
100
AcDbSpline
210
0.0
220
0.0
230
1.0
 70
     8
 71
     3
 72
    10
 73
     6
 74
     0
 42
0.00000001
 43
0.00000001
 40
0.0
 40
0.0
 40
0.0
 40
0.0
 40
0.2504582273178607
 40
0.3833428541164606
 40
1.0
 40
1.0
 40
1.0
 40
1.0
 10
49.86989498138428
 20
16.94719419979213
 30
0.0
 10
49.81936424976459
 20
16.93105625686377
 30
0.0
 10
49.74202362858748
 20
16.90635606965901
 30
0.0
 10
49.55632531685877
 20
17.00418758995443
 30
0.0
 10
49.4919179560164
 20
17.14717549519037
 30
0.0
 10
49.43892923576293
 20
17.26481338643575
 30
0.0
  0
SPLINE
  5
101
330
1F
100
AcDbEntity
  8
0
  6
Continuous
 62
     7
100
AcDbSpline
210
0.0
220
0.0
230
1.0
 70
     8
 71
     3
 72
    10
 73
     6
 74
     0
 42
0.00000001
 43
0.00000001
 40
0.0
 40
0.0
 40
0.0
 40
0.0
 40
0.2505048629471661
 40
0.3833812218167696
 40
1.0
 40
1.0
 40
1.0
 40
1.0
 10
35.31408309936523
 20
14.23047472228715
 30
0.0
 10
35.36704665037574
 20
14.23365041252215
 30
0.0
 10
35.44810388279539
 20
14.23851059762228
 30
0.0
 10
35.5860206199928
 20
14.39674723459627
 30
0.0
 10
35.59451311824687
 20
14.55334216538471
 30
0.0
 10
35.6015
 20
14.68217472228715
 30
0.0
  0
SPLINE
  5
102
330
1F
100
AcDbEntity
  8
0
  6
Continuous
 62
     7
100
AcDbSpline
210
0.0
220
0.0
230
1.0
 70
     8
 71
     3
 72
    11
 73
     7
 74
     0
 42
0.00000001
 43
0.00000001
 40
0.0
 40
0.0
 40
0.0
 40
0.0
 40
0.459343957926059
 40
0.6163097004937541
 40
0.7722154990187531
 40
1.0
 40
1.0
 40
1.0
 40
1.0
 10
16.65788888931274
 20
11.96577472228715
 30
0.0
 10
16.64394198228673
 20
11.74190328080467
 30
0.0
 10
16.62522917689613
 20
11.441531111609
 30
0.0
 10
16.81880837177939
 20
11.01700697816643
 30
0.0
 10
17.12454620437741
 20
11.12239885921651
 30
0.0
 10
17.30874634422592
 20
11.14522411020845
 30
0.0
 10
17.41810000000002
 20
11.15877472228715
 30
0.0
  0
SPLINE
  5
103
330
1F
100
AcDbEntity
  8
0
  6
Continuous
 62
     7
100
AcDbSpline
210
0.0
220
0.0
230
1.0
 70
     8
 71
     3
 72
     9
 73
     5
 74
     0
 42
0.00000001
 43
0.00000001
 40
0.0
 40
0.0
 40
0.0
 40
0.0
 40
0.559541714343451
 40
1.0
 40
1.0
 40
1.0
 40
1.0
 10
16.54829084873199
 20
44.31977472228715
 30
0.0
 10
16.40778663297459
 20
43.96675328592007
 30
0.0
 10
16.15668075086485
 20
43.33584154633458
 30
0.0
 10
15.97633484744534
 20
42.68135065726469
 30
0.0
 10
15.8969
 20
42.39307472228715
 30
0.0
  0
SPLINE
  5
104
330
1F
100
AcDbEntity
  8
0
  6
Continuous
 62
     7
100
AcDbSpline
210
0.0
220
0.0
230
1.0
 70
     8
 71
     3
 72
     9
 73
     5
 74
     0
 42
0.00000001
 43
0.00000001
 40
0.0
 40
0.0
 40
0.0
 40
0.0
 40
0.5455643083642137
 40
1.0
 40
1.0
 40
1.0
 40
1.0
 10
38.01357746124268
 20
48.05627472228714
 30
0.0
 10
38.14551042609192
 20
47.41491629858823
 30
0.0
 10
38.38733886469495
 20
46.23932908757381
 30
0.0
 10
37.70636075724696
 20
45.26482442336788
 30
0.0
 10
37.39689999999999
 20
44.82197472228716
 30
0.0
  0
SPLINE
  5
105
330
1F
100
AcDbEntity
  8
0
  6
Continuous
 62
     7
100
AcDbSpline
210
0.0
220
0.0
230
1.0
 70
     8
 71
     3
 72
     9
 73
     5
 74
     0
 42
0.00000001
 43
0.00000001
 40
0.0
 40
0.0
 40
0.0
 40
0.0
 40
0.5566573925168743
 40
1.0
 40
1.0
 40
1.0
 40
1.0
 10
17.02019572257996
 20
44.54567472228717
 30
0.0
 10
17.0414996808319
 20
44.57954273875655
 30
0.0
 10
17.07977090212231
 20
44.640384500538
 30
0.0
 10
17.09260853178946
 20
44.71090845044525
 30
0.0
 10
17.0983
 20
44.74217472228714
 30
0.0
  0
SPLINE
  5
106
330
1F
100
AcDbEntity
  8
0
  6
Continuous
 62
     7
100
AcDbSpline
210
0.0
220
0.0
230
1.0
 70
     8
 71
     3
 72
    10
 73
     6
 74
     0
 42
0.00000001
 43
0.00000001
 40
0.0
 40
0.0
 40
0.0
 40
0.0
 40
0.3808693957729646
 40
0.665827630796577
 40
1.0
 40
1.0
 40
1.0
 40
1.0
 10
16.54829084873199
 20
44.31977472228715
 30
0.0
 10
16.60327452830896
 20
44.36459968553174
 30
0.0
 10
16.69939580639409
 20
44.44296171568941
 30
0.0
 10
16.8929422439149
 20
44.41852517390341
 30
0.0
 10
16.97559085995144
 20
44.50110351354159
 30
0.0
 10
17.0202
 20
44.54567472228716
 30
0.0
  0
SPLINE
  5
107
330
1F
100
AcDbEntity
  8
0
  6
Continuous
 62
     7
100
AcDbSpline
210
0.0
220
0.0
230
1.0
 70
     8
 71
     3
 72
     9
 73
     5
 74
     0
 42
0.00000001
 43
0.00000001
 40
0.0
 40
0.0
 40
0.0
 40
0.0
 40
0.544154770526657
 40
1.0
 40
1.0
 40
1.0
 40
1.0
 10
13.91219347715378
 20
39.39107472228716
 30
0.0
 10
14.01753325762959
 20
39.53306978546042
 30
0.0
 10
14.21111748436322
 20
39.79401588179959
 30
0.0
 10
14.53009542668527
 20
39.83849783577146
 30
0.0
 10
14.6755
 20
39.85877472228717
 30
0.0
  0
SPLINE
  5
108
330
1F
100
AcDbEntity
  8
0
  6
Continuous
 62
     7
100
AcDbSpline
210
0.0
220
0.0
230
1.0
 70
     8
 71
     3
 72
    11
 73
     7
 74
     0
 42
0.00000001
 43
0.00000001
 40
0.0
 40
0.0
 40
0.0
 40
0.0
 40
0.3666970746691501
 40
0.4655820941309036
 40
0.5704924266448391
 40
1.0
 40
1.0
 40
1.0
 40
1.0
 10
73.71586561203003
 20
-48.55372527771286
 30
0.0
 10
73.58154457527594
 20
-48.69240205713834
 30
0.0
 10
73.41100198331708
 20
-48.86847497899214
 30
0.0
 10
73.25252979214939
 20
-49.12675154869717
 30
0.0
 10
73.18489750860638
 20
-49.4564645683378
 30
0.0
 10
73.02234345029724
 20
-49.69134980997023
 30
0.0
 10
72.89169999999999
 20
-49.88012527771287
 30
0.0
  0
SPLINE
  5
109
330
1F
100
AcDbEntity
  8
0
  6
Continuous
 62
     7
100
AcDbSpline
210
0.0
220
0.0
230
1.0
 70
     8
 71
     3
 72
     9
 73
     5
 74
     0
 42
0.00000001
 43
0.00000001
 40
0.0
 40
0.0
 40
0.0
 40
0.0
 40
0.5796813141781634
 40
0.9999999999999999
 40
0.9999999999999999
 40
0.9999999999999999
 40
0.9999999999999999
 10
-53.04667353630066
 20
60.20897472228716
 30
0.0
 10
-54.57369667229288
 20
60.47981671128122
 30
0.0
 10
-57.20794259094414
 20
60.94704237885002
 30
0.0
 10
-59.79528967420066
 20
61.62578606719298
 30
0.0
 10
-60.8828
 20
61.91107472228715
 30
0.0
  0
SPLINE
  5
10A
330
1F
100
AcDbEntity
  8
0
  6
Continuous
 62
     7
100
AcDbSpline
210
0.0
220
0.0
230
1.0
 70
     8
 71
     3
 72
     9
 73
     5
 74
     0
 42
0.00000001
 43
0.00000001
 40
0.0
 40
0.0
 40
0.0
 40
0.0
 40
0.5193912210493532
 40
1.0
 40
1.0
 40
1.0
 40
1.0
 10
-60.88277697563171
 20
61.91107472228715
 30
0.0
 10
-61.08567080089409
 20
62.03701067319339
 30
0.0
 10
-61.47630856495267
 20
62.27947905887729
 30
0.0
 10
-61.46002569178899
 20
62.73597754316215
 30
0.0
 10
-61.45220000000001
 20
62.95537472228714
 30
0.0
  0
SPLINE
  5
10B
330
1F
100
AcDbEntity
  8
0
  6
Continuous
 62
     7
100
AcDbSpline
210
0.0
220
0.0
230
1.0
 70
     8
 71
     3
 72
     9
 73
     5
 74
     0
 42
0.00000001
 43
0.00000001
 40
0.0
 40
0.0
 40
0.0
 40
0.0
 40
0.5427360749926643
 40
1.0
 40
1.0
 40
1.0
 40
1.0
 10
-59.4508945941925
 20
63.94957472228715
 30
0.0
 10
-55.39070594117151
 20
65.69447880470067
 30
0.0
 10
-47.90974265146231
 20
68.90949281024119
 30
0.0
 10
-39.87794933618937
 20
70.20478454130937
 30
0.0
 10
-36.20529999999999
 20
70.79707472228715
 30
0.0
  0
SPLINE
  5
10C
330
1F
100
AcDbEntity
  8
0
  6
Continuous
 62
     7
100
AcDbSpline
210
0.0
220
0.0
230
1.0
 70
     8
 71
     3
 72
     9
 73
     5
 74
     0
 42
0.00000001
 43
0.00000001
 40
0.0
 40
0.0
 40
0.0
 40
0.0
 40
0.6304788275146699
 40
1.0
 40
1.0
 40
1.0
 40
1.0
 10
-36.20529174804688
 20
70.79707472228716
 30
0.0
 10
-36.16208497966522
 20
71.18602640658227
 30
0.0
 10
-36.09355489348931
 20
71.80294115029912
 30
0.0
 10
-35.67475531228354
 20
72.24633230349032
 30
0.0
 10
-35.52000000000001
 20
72.41017472228715
 30
0.0
  0
SPLINE
  5
10D
330
1F
100
AcDbEntity
  8
0
  6
Continuous
 62
     7
100
AcDbSpline
210
0.0
220
0.0
230
1.0
 70
     8
 71
     3
 72
    24
 73
    20
 74
     0
 42
0.00000001
 43
0.00000001
 40
0.0
 40
0.0
 40
0.0
 40
0.0
 40
0.0832934431883451
 40
0.1107528213830386
 40
0.1207199490823789
 40
0.1257058991396149
 40
0.1306710780378482
 40
0.1383721532061443
 40
0.1598486681983969
 40
0.209965172507437
 40
0.3388120533655911
 40
0.4252636253655201
 40
0.494606701115924
 40
0.5362000180255302
 40
0.5676062865903798
 40
0.6646676421725641
 40
0.7415408890646005
 40
0.839752606617545
 40
1.0
 40
1.0
 40
1.0
 40
1.0
 10
-35.51998734474182
 20
72.41017472228715
 30
0.0
 10
-34.55908688134107
 20
72.38084737338771
 30
0.0
 10
-33.28140603016939
 20
72.34185166724369
 30
0.0
 10
-31.90990881904368
 20
72.1537659903781
 30
0.0
 10
-31.41401603538207
 20
72.14653297180112
 30
0.0
 10
-31.20595496996864
 20
72.0177012623789
 30
0.0
 10
-31.00058975507551
 20
72.08729851736041
 30
0.0
 10
-30.64017172819263
 20
72.2233717658035
 30
0.0
 10
-29.80401634043839
 20
72.60861875323316
 30
0.0
 10
-27.72552564284351
 20
73.59290158304742
 30
0.0
 10
-24.9386986128033
 20
74.85993959929883
 30
0.0
 10
-21.89420793779174
 20
76.06668347170678
 30
0.0
 10
-19.71152903608346
 20
76.73243487289157
 30
0.0
 10
-18.08258816511852
 20
76.9411589881711
 30
0.0
 10
-16.12931362680471
 20
77.06930235705146
 30
0.0
 10
-13.76293081354048
 20
77.09450648416936
 30
0.0
 10
-10.63267142170715
 20
76.88791747140237
 30
0.0
 10
-6.828974356482584
 20
76.2073052220557
 30
0.0
 10
-3.904317998907585
 20
75.66611710301919
 30
0.0
 10
-2.090999999999973
 20
75.33057472228712
 30
0.0
  0
SPLINE
  5
10E
330
1F
100
AcDbEntity
  8
0
  6
Continuous
 62
     7
100
AcDbSpline
210
0.0
220
0.0
230
1.0
 70
     8
 71
     3
 72
    19
 73
    15
 74
     0
 42
0.00000001
 43
0.00000001
 40
0.0
 40
0.0
 40
0.0
 40
0.0
 40
0.1467345214315511
 40
0.2635596366613533
 40
0.3637485156885773
 40
0.4605219399350368
 40
0.5744902723439352
 40
0.6937122833015048
 40
0.8152044183595359
 40
0.8929609145859032
 40
0.9394646559755647
 40
0.9511976893493459
 40
0.9601370736239093
 40
1.0
 40
1.0
 40
1.0
 40
1.0
 10
-2.090999856591225
 20
75.33057472228714
 30
0.0
 10
0.4196265259630986
 20
74.86615802617085
 30
0.0
 10
4.929129611691265
 20
74.0319882991446
 30
0.0
 10
11.11274165731915
 20
72.67996214388951
 30
0.0
 10
16.43331066316186
 20
71.45735921522771
 30
0.0
 10
21.72316633586609
 20
70.31730803618522
 30
0.0
 10
27.39282718169989
 20
69.40424851256293
 30
0.0
 10
33.53721151848574
 20
68.7410559134554
 30
0.0
 10
39.02410826536687
 20
68.1930280961116
 30
0.0
 10
43.34117824880973
 20
67.79712805141428
 30
0.0
 10
45.59711891415859
 20
67.54907327782097
 30
0.0
 10
46.85943645954294
 20
67.40499133329561
 30
0.0
 10
47.37638570940378
 20
66.39642907906396
 30
0.0
 10
47.32003150155337
 20
65.53808844093363
 30
0.0
 10
47.274
 20
64.83697471891485
 30
0.0
  0
SPLINE
  5
10F
330
1F
100
AcDbEntity
  8
0
  6
Continuous
 62
     7
100
AcDbSpline
210
0.0
220
0.0
230
1.0
 70
     8
 71
     3
 72
    12
 73
     8
 74
     0
 42
0.00000001
 43
0.00000001
 40
0.0
 40
0.0
 40
0.0
 40
0.0
 40
0.3969998300931811
 40
0.6582533839370073
 40
0.8153594270201264
 40
0.9282456096888014
 40
1.0
 40
1.0
 40
1.0
 40
1.0
 10
28.15468609333038
 20
59.09697472228716
 30
0.0
 10
30.79260293817146
 20
59.14402119501623
 30
0.0
 10
35.16645289486669
 20
59.22202752531857
 30
0.0
 10
40.62558577321902
 20
59.51661489409751
 30
0.0
 10
44.06962526510857
 20
59.90881453444347
 30
0.0
 10
46.42805608643287
 20
60.59455968022618
 30
0.0
 10
47.03725513974091
 20
61.70380398161591
 30
0.0
 10
47.274
 20
62.13487472228714
 30
0.0
  0
SPLINE
  5
110
330
1F
100
AcDbEntity
  8
0
  6
Continuous
 62
     7
100
AcDbSpline
210
0.0
220
0.0
230
1.0
 70
     8
 71
     3
 72
     9
 73
     5
 74
     0
 42
0.00000001
 43
0.00000001
 40
0.0
 40
0.0
 40
0.0
 40
0.0
 40
0.4049574833330828
 40
1.0
 40
1.0
 40
1.0
 40
1.0
 10
-22.95839786529541
 20
73.98477472228716
 30
0.0
 10
-22.87427198332411
 20
73.621499781255
 30
0.0
 10
-22.66653194780509
 20
72.72443044438991
 30
0.0
 10
-22.63303318695905
 20
71.80316614782845
 30
0.0
 10
-22.6131
 20
71.25497472228714
 30
0.0
  0
SPLINE
  5
111
330
1F
100
AcDbEntity
  8
0
  6
Continuous
 62
     7
100
AcDbSpline
210
0.0
220
0.0
230
1.0
 70
     8
 71
     3
 72
    11
 73
     7
 74
     0
 42
0.00000001
 43
0.00000001
 40
0.0
 40
0.0
 40
0.0
 40
0.0
 40
0.2479175359418933
 40
0.3780249625850153
 40
0.5255396086255383
 40
1.0
 40
1.0
 40
1.0
 40
1.0
 10
-27.63418853282928
 20
71.81737472228717
 30
0.0
 10
-27.72833891122969
 20
71.74483977477558
 30
0.0
 10
-27.87189952357993
 20
71.63423839793067
 30
0.0
 10
-27.88065143200207
 20
71.36942691917393
 30
0.0
 10
-27.61169522762536
 20
71.11985677562053
 30
0.0
 10
-27.32210654783141
 20
71.09502052576477
 30
0.0
 10
-27.1012
 20
71.07607472228715
 30
0.0
  0
SPLINE
  5
112
330
1F
100
AcDbEntity
  8
0
  6
Continuous
 62
     7
100
AcDbSpline
210
0.0
220
0.0
230
1.0
 70
     8
 71
     3
 72
     9
 73
     5
 74
     0
 42
0.00000001
 43
0.00000001
 40
0.0
 40
0.0
 40
0.0
 40
0.0
 40
0.5100390360318371
 40
0.9999999999999999
 40
0.9999999999999999
 40
0.9999999999999999
 40
0.9999999999999999
 10
-21.5228945016861
 20
74.57177472228717
 30
0.0
 10
-21.49334376115555
 20
74.03319461588426
 30
0.0
 10
-21.43540556732543
 20
72.97723601594427
 30
0.0
 10
-21.27002837068453
 20
71.93273726136216
 30
0.0
 10
-21.189
 20
71.4209736447036
 30
0.0
  0
SPLINE
  5
113
330
1F
100
AcDbEntity
  8
0
  6
Continuous
 62
     7
100
AcDbSpline
210
0.0
220
0.0
230
1.0
 70
     8
 71
     3
 72
    11
 73
     7
 74
     0
 42
0.00000001
 43
0.00000001
 40
0.0
 40
0.0
 40
0.0
 40
0.0
 40
0.2147869613745737
 40
0.4498651380156415
 40
0.6870690361346241
 40
1.0
 40
1.0
 40
1.0
 40
1.0
 10
-21.5228945016861
 20
74.57177472228717
 30
0.0
 10
-20.47746303916312
 20
74.88389506561263
 30
0.0
 10
-18.28783678734603
 20
75.5376221840048
 30
0.0
 10
-14.77936411671002
 20
75.65373830264886
 30
0.0
 10
-10.82195302493106
 20
75.2802716128103
 30
0.0
 10
-8.07547045118142
 20
74.81215282058271
 30
0.0
 10
-6.513199999999996
 20
74.54587472228715
 30
0.0
  0
SPLINE
  5
114
330
1F
100
AcDbEntity
  8
0
  6
Continuous
 62
     7
100
AcDbSpline
210
0.0
220
0.0
230
1.0
 70
     8
 71
     3
 72
     9
 73
     5
 74
     0
 42
0.00000001
 43
0.00000001
 40
0.0
 40
0.0
 40
0.0
 40
0.0
 40
0.5599487088756507
 40
1.0
 40
1.0
 40
1.0
 40
1.0
 10
-21.18898928165436
 20
71.4209736447036
 30
0.0
 10
-18.51135462823731
 20
71.5050719338429
 30
0.0
 10
-13.72942619269611
 20
71.65526120619278
 30
0.0
 10
-8.945235049967422
 20
71.6675691165761
 30
0.0
 10
-6.839945560623989
 20
71.67298522843136
 30
0.0
  0
SPLINE
  5
115
330
1F
100
AcDbEntity
  8
0
  6
Continuous
 62
     7
100
AcDbSpline
210
0.0
220
0.0
230
1.0
 70
     8
 71
     3
 72
     9
 73
     5
 74
     0
 42
0.00000001
 43
0.00000001
 40
0.0
 40
0.0
 40
0.0
 40
0.0
 40
0.5387406294217776
 40
0.9999999999999999
 40
0.9999999999999999
 40
0.9999999999999999
 40
0.9999999999999999
 10
-6.513196974992752
 20
74.54587472228715
 30
0.0
 10
-6.550221850304269
 20
74.02744911638379
 30
0.0
 10
-6.618946712119969
 20
73.06515747251837
 30
0.0
 10
-6.770185330638849
 20
72.11243663998324
 30
0.0
 10
-6.839945560623989
 20
71.67298522843134
 30
0.0
  0
MTEXT
  5
117
330
1F
100
AcDbEntity
  8
0
  6
Continuous
 62
     7
100
AcDbMText
 10
-86.5596
 20
-94.2156916694
 30
0.0
 40
4.83362
 41
0.0
 71
     1
 72
     1
  1
Producto SOLIDWORKS Educational.
  7
SLDTEXTSTYLE0
 73
     1
 44
1.0
  0
MTEXT
  5
118
330
1F
100
AcDbEntity
  8
0
  6
Continuous
 62
     7
100
AcDbMText
 10
-86.5596
 20
-101.4661216694
 30
0.0
 40
4.83362
 41
0.0
 71
     1
 72
     1
  1
Solo para uso en la enseñanza.
  7
SLDTEXTSTYLE0
 73
     1
 44
1.0
  0
ENDSEC
  0
SECTION
  2
OBJECTS
  0
DICTIONARY
  5
C
330
0
100
AcDbDictionary
281
     1
  3
ACAD_GROUP
350
D
  3
ACAD_LAYOUT
350
1A
  3
ACAD_MLINESTYLE
350
17
  3
ACAD_PLOTSETTINGS
350
19
  3
ACAD_PLOTSTYLENAME
350
E
  3
ACAD_SCALELIST
350
47
  3
DWGPROPS
350
119
  0
DICTIONARY
  5
D
102
{ACAD_REACTORS
330
C
102
}
330
C
100
AcDbDictionary
281
     1
  0
DICTIONARY
  5
1A
102
{ACAD_REACTORS
330
C
102
}
330
C
100
AcDbDictionary
281
     1
  3
Layout1
350
1E
  3
Layout2
350
26
  3
Model
350
22
  0
DICTIONARY
  5
17
102
{ACAD_REACTORS
330
C
102
}
330
C
100
AcDbDictionary
281
     1
  3
Standard
350
18
  0
DICTIONARY
  5
19
102
{ACAD_REACTORS
330
C
102
}
330
C
100
AcDbDictionary
281
     1
  0
ACDBDICTIONARYWDFLT
  5
E
102
{ACAD_REACTORS
330
C
102
}
330
C
100
AcDbDictionary
281
     1
  3
Normal
350
F
100
AcDbDictionaryWithDefault
340
F
  0
DICTIONARY
  5
47
102
{ACAD_REACTORS
330
C
102
}
330
C
100
AcDbDictionary
281
     1
  3
A0
350
48
  3
A1
350
49
  3
A2
350
4A
  3
A3
350
4B
  3
A4
350
4C
  3
A5
350
4D
  3
A6
350
4E
  3
A7
350
4F
  3
A8
350
50
  3
A9
350
51
  3
B0
350
52
  3
B1
350
53
  3
B2
350
54
  3
B3
350
55
  3
B4
350
56
  3
B5
350
57
  3
B6
350
58
  0
XRECORD
  5
119
102
{ACAD_REACTORS
330
C
102
}
330
C
100
AcDbXrecord
280
     1
  1
DWGPROPS COOKIE
  2

  3

  4

  6

  7

  8
SamRa
  9

300
=
301
=
302
=
303
=
304
=
305
=
306
=
307
=
308
=
309
=
 40
0.0
 41
2460951.721012917
 42
2460951.721049942
  1

 90
        0
  0
LAYOUT
  5
1E
102
{ACAD_REACTORS
330
1A
102
}
330
1A
100
AcDbPlotSettings
  1

  2
none_device
  4

  6

 40
0.0
 41
0.0
 42
0.0
 43
0.0
 44
0.0
 45
0.0
 46
0.0
 47
0.0
 48
0.0
 49
0.0
140
0.0
141
0.0
142
1.0
143
1.0
 70
   688
 72
     1
 73
     0
 74
     5
  7

 75
    16
147
1.0
148
0.0
149
0.0
100
AcDbLayout
  1
Layout1
 70
     1
 71
     1
 10
0.0
 20
0.0
 11
420.0
 21
297.0
 12
0.0
 22
0.0
 32
0.0
 14
1.0000000000E+20
 24
1.0000000000E+20
 34
1.0000000000E+20
 15
-1.0000000000E+20
 25
-1.0000000000E+20
 35
-1.0000000000E+20
146
0.0
 13
0.0
 23
0.0
 33
0.0
 16
1.0
 26
0.0
 36
0.0
 17
0.0
 27
1.0
 37
0.0
 76
     0
330
1B
  0
LAYOUT
  5
26
102
{ACAD_REACTORS
330
1A
102
}
330
1A
100
AcDbPlotSettings
  1

  2
none_device
  4

  6

 40
0.0
 41
0.0
 42
0.0
 43
0.0
 44
0.0
 45
0.0
 46
0.0
 47
0.0
 48
0.0
 49
0.0
140
0.0
141
0.0
142
1.0
143
1.0
 70
   688
 72
     1
 73
     0
 74
     5
  7

 75
    16
147
1.0
148
0.0
149
0.0
100
AcDbLayout
  1
Layout2
 70
     1
 71
     2
 10
0.0
 20
0.0
 11
0.0
 21
0.0
 12
0.0
 22
0.0
 32
0.0
 14
0.0
 24
0.0
 34
0.0
 15
0.0
 25
0.0
 35
0.0
146
0.0
 13
0.0
 23
0.0
 33
0.0
 16
1.0
 26
0.0
 36
0.0
 17
0.0
 27
1.0
 37
0.0
 76
     0
330
23
  0
LAYOUT
  5
22
102
{ACAD_REACTORS
330
1A
102
}
330
1A
100
AcDbPlotSettings
  1

  2
none_device
  4
ANSI_A_(11.00_x_8.50_Inches)
  6

 40
6.35
 41
19.05
 42
6.35000508
 43
19.05000254
 44
279.4
 45
215.9
 46
134.3653170599
 47
99.0222924606
 48
0.0
 49
0.0
140
0.0
141
0.0
142
0.0494228219
143
1.0
 70
  1696
 72
     0
 73
     0
 74
     0
  7

 75
     0
147
0.0179189148
148
-1300.4909072572
149
0.0
100
AcDbLayout
  1
Model
 70
     1
 71
     0
 10
0.0
 20
0.0
 11
420.0
 21
297.0
 12
0.0
 22
0.0
 32
0.0
 14
-86.5596
 24
-93.1961252777
 34
0.0
 15
84.9419986143
 25
77.069344738
 35
0.0
146
0.0
 13
0.0
 23
0.0
 33
0.0
 16
1.0
 26
0.0
 36
0.0
 17
0.0
 27
1.0
 37
0.0
 76
     0
330
1F
331
29
  0
MLINESTYLE
  5
18
102
{ACAD_REACTORS
330
17
102
}
330
17
100
AcDbMlineStyle
  2
Standard
 70
     0
  3

 62
   256
 51
90.0
 52
90.0
 71
     2
 49
0.5
 62
   256
  6
BYLAYER
 49
-0.5
 62
   256
  6
BYLAYER
  0
ACDBPLACEHOLDER
  5
F
102
{ACAD_REACTORS
330
E
102
}
330
E
  0
SCALE
  5
48
102
{ACAD_REACTORS
330
47
102
}
330
47
100
AcDbScale
 70
     0
300
1:1
140
1.0
141
1.0
290
     1
  0
SCALE
  5
49
102
{ACAD_REACTORS
330
47
102
}
330
47
100
AcDbScale
 70
     0
300
1:2
140
1.0
141
2.0
290
     0
  0
SCALE
  5
4A
102
{ACAD_REACTORS
330
47
102
}
330
47
100
AcDbScale
 70
     0
300
1:4
140
1.0
141
4.0
290
     0
  0
SCALE
  5
4B
102
{ACAD_REACTORS
330
47
102
}
330
47
100
AcDbScale
 70
     0
300
1:5
140
1.0
141
5.0
290
     0
  0
SCALE
  5
4C
102
{ACAD_REACTORS
330
47
102
}
330
47
100
AcDbScale
 70
     0
300
1:8
140
1.0
141
8.0
290
     0
  0
SCALE
  5
4D
102
{ACAD_REACTORS
330
47
102
}
330
47
100
AcDbScale
 70
     0
300
1:10
140
1.0
141
10.0
290
     0
  0
SCALE
  5
4E
102
{ACAD_REACTORS
330
47
102
}
330
47
100
AcDbScale
 70
     0
300
1:16
140
1.0
141
16.0
290
     0
  0
SCALE
  5
4F
102
{ACAD_REACTORS
330
47
102
}
330
47
100
AcDbScale
 70
     0
300
1:20
140
1.0
141
20.0
290
     0
  0
SCALE
  5
50
102
{ACAD_REACTORS
330
47
102
}
330
47
100
AcDbScale
 70
     0
300
1:30
140
1.0
141
30.0
290
     0
  0
SCALE
  5
51
102
{ACAD_REACTORS
330
47
102
}
330
47
100
AcDbScale
 70
     0
300
1:40
140
1.0
141
40.0
290
     0
  0
SCALE
  5
52
102
{ACAD_REACTORS
330
47
102
}
330
47
100
AcDbScale
 70
     0
300
1:50
140
1.0
141
50.0
290
     0
  0
SCALE
  5
53
102
{ACAD_REACTORS
330
47
102
}
330
47
100
AcDbScale
 70
     0
300
1:100
140
1.0
141
100.0
290
     0
  0
SCALE
  5
54
102
{ACAD_REACTORS
330
47
102
}
330
47
100
AcDbScale
 70
     0
300
2:1
140
2.0
141
1.0
290
     0
  0
SCALE
  5
55
102
{ACAD_REACTORS
330
47
102
}
330
47
100
AcDbScale
 70
     0
300
4:1
140
4.0
141
1.0
290
     0
  0
SCALE
  5
56
102
{ACAD_REACTORS
330
47
102
}
330
47
100
AcDbScale
 70
     0
300
8:1
140
8.0
141
1.0
290
     0
  0
SCALE
  5
57
102
{ACAD_REACTORS
330
47
102
}
330
47
100
AcDbScale
 70
     0
300
10:1
140
10.0
141
1.0
290
     0
  0
SCALE
  5
58
102
{ACAD_REACTORS
330
47
102
}
330
47
100
AcDbScale
 70
     0
300
100:1
140
100.0
141
1.0
290
     0
  0
ENDSEC
  0
EOF
