  0
SECTION
  2
HEADER
  9
$ACADVER
  1
AC1015
  9
$ACADMAINTVER
 70
     6
  9
$DWGCODEPAGE
  3
ANSI_1252
  9
$INSBASE
 10
0.0
 20
0.0
 30
0.0
  9
$EXTMIN
 10
-150.0
 20
-100.0
 30
0.0
  9
$EXTMAX
 10
150.0
 20
100.0
 30
0.0
  9
$LIMMIN
 10
0.0
 20
0.0
  9
$LIMMAX
 10
420.0
 20
297.0
  9
$ORTHOMODE
 70
     0
  9
$REGENMODE
 70
     1
  9
$FILLMODE
 70
     1
  9
$QTEXTMODE
 70
     0
  9
$MIRRTEXT
 70
     1
  9
$LTSCALE
 40
1.0
  9
$ATTMODE
 70
     1
  9
$TEXTSIZE
 40
3.5
  9
$TRACEWID
 40
1.0
  9
$TEXTSTYLE
  7
Standard
  9
$CLAYER
  8
0
  9
$CELTYPE
  6
ByLayer
  9
$CECOLOR
 62
   256
  9
$CELTSCALE
 40
1.0
  9
$DISPSILH
 70
     0
  9
$DIMSCALE
 40
1.0
  9
$DIMASZ
 40
3.302
  9
$DIMEXO
 40
0.0
  9
$DIMDLI
 40
3.75
  9
$DIMRND
 40
0.0
  9
$DIMDLE
 40
0.0
  9
$DIMEXE
 40
1.0
  9
$DIMTP
 40
0.0
  9
$DIMTM
 40
0.0
  9
$DIMTXT
 40
3.5
  9
$DIMCEN
 40
2.5
  9
$DIMTSZ
 40
0.0
  9
$DIMTOL
 70
     0
  9
$DIMLIM
 70
     0
  9
$DIMTIH
 70
     1
  9
$DIMTOH
 70
     1
  9
$DIMSE1
 70
     0
  9
$DIMSE2
 70
     0
  9
$DIMTAD
 70
     1
  9
$DIMZIN
 70
     1
  9
$DIMBLK
  1

  9
$DIMASO
 70
     1
  9
$DIMSHO
 70
     1
  9
$DIMPOST
  1

  9
$DIMAPOST
  1

  9
$DIMALT
 70
     0
  9
$DIMALTD
 70
     3
  9
$DIMALTF
 40
0.0393700787
  9
$DIMLFAC
 40
1.0
  9
$DIMTOFL
 70
     1
  9
$DIMTVP
 40
0.0
  9
$DIMTIX
 70
     0
  9
$DIMSOXD
 70
     0
  9
$DIMSAH
 70
     0
  9
$DIMBLK1
  1

  9
$DIMBLK2
  1

  9
$DIMSTYLE
  2
ISO-25
  9
$DIMCLRD
 70
     0
  9
$DIMCLRE
 70
     0
  9
$DIMCLRT
 70
     0
  9
$DIMTFAC
 40
1.0
  9
$DIMGAP
 40
1.524
  9
$DIMJUST
 70
     0
  9
$DIMSD1
 70
     0
  9
$DIMSD2
 70
     0
  9
$DIMTOLJ
 70
     0
  9
$DIMTZIN
 70
     1
  9
$DIMALTZ
 70
     0
  9
$DIMALTTZ
 70
     0
  9
$DIMUPT
 70
     0
  9
$DIMDEC
 70
     2
  9
$DIMTDEC
 70
     2
  9
$DIMALTU
 70
     2
  9
$DIMALTTD
 70
     3
  9
$DIMTXSTY
  7
Standard
  9
$DIMAUNIT
 70
     0
  9
$DIMADEC
 70
     2
  9
$DIMALTRND
 40
0.0
  9
$DIMAZIN
 70
     0
  9
$DIMDSEP
 70
    44
  9
$DIMATFIT
 70
     3
  9
$DIMFRAC
 70
     0
  9
$DIMLDRBLK
  1

  9
$DIMLUNIT
 70
     2
  9
$DIMLWD
 70
    -2
  9
$DIMLWE
 70
    -2
  9
$DIMTMOVE
 70
     0
  9
$LUNITS
 70
     2
  9
$LUPREC
 70
     2
  9
$SKETCHINC
 40
1.0
  9
$FILLETRAD
 40
0.0
  9
$AUNITS
 70
     0
  9
$AUPREC
 70
     2
  9
$MENU
  1
.
  9
$ELEVATION
 40
0.0
  9
$PELEVATION
 40
0.0
  9
$THICKNESS
 40
0.0
  9
$LIMCHECK
 70
     0
  9
$CHAMFERA
 40
0.0
  9
$CHAMFERB
 40
0.0
  9
$CHAMFERC
 40
0.0
  9
$CHAMFERD
 40
0.0
  9
$SKPOLY
 70
     0
  9
$TDCREATE
 40
2460980.445193195
  9
$TDUCREATE
 40
2460980.695193195
  9
$TDUPDATE
 40
2460980.446034908
  9
$TDUUPDATE
 40
2460980.696034908
  9
$TDINDWG
 40
0.0000000116
  9
$TDUSRTIMER
 40
0.0000000116
  9
$USRTIMER
 70
     1
  9
$ANGBASE
 50
0.0
  9
$ANGDIR
 70
     0
  9
$PDMODE
 70
     0
  9
$PDSIZE
 40
-1.0
  9
$PLINEWID
 40
0.0
  9
$SPLFRAME
 70
     0
  9
$SPLINETYPE
 70
     6
  9
$SPLINESEGS
 70
     8
  9
$HANDSEED
  5
91
  9
$SURFTAB1
 70
     6
  9
$SURFTAB2
 70
     6
  9
$SURFTYPE
 70
     6
  9
$SURFU
 70
     6
  9
$SURFV
 70
     6
  9
$UCSBASE
  2

  9
$UCSNAME
  2

  9
$UCSORG
 10
0.0
 20
0.0
 30
0.0
  9
$UCSXDIR
 10
1.0
 20
0.0
 30
0.0
  9
$UCSYDIR
 10
0.0
 20
1.0
 30
0.0
  9
$UCSORTHOREF
  2

  9
$UCSORTHOVIEW
 70
     0
  9
$UCSORGTOP
 10
0.0
 20
0.0
 30
0.0
  9
$UCSORGBOTTOM
 10
0.0
 20
0.0
 30
0.0
  9
$UCSORGLEFT
 10
0.0
 20
0.0
 30
0.0
  9
$UCSORGRIGHT
 10
0.0
 20
0.0
 30
0.0
  9
$UCSORGFRONT
 10
0.0
 20
0.0
 30
0.0
  9
$UCSORGBACK
 10
0.0
 20
0.0
 30
0.0
  9
$PUCSBASE
  2

  9
$PUCSNAME
  2

  9
$PUCSORG
 10
0.0
 20
0.0
 30
0.0
  9
$PUCSXDIR
 10
1.0
 20
0.0
 30
0.0
  9
$PUCSYDIR
 10
0.0
 20
1.0
 30
0.0
  9
$PUCSORTHOREF
  2

  9
$PUCSORTHOVIEW
 70
     0
  9
$PUCSORGTOP
 10
0.0
 20
0.0
 30
0.0
  9
$PUCSORGBOTTOM
 10
0.0
 20
0.0
 30
0.0
  9
$PUCSORGLEFT
 10
0.0
 20
0.0
 30
0.0
  9
$PUCSORGRIGHT
 10
0.0
 20
0.0
 30
0.0
  9
$PUCSORGFRONT
 10
0.0
 20
0.0
 30
0.0
  9
$PUCSORGBACK
 10
0.0
 20
0.0
 30
0.0
  9
$USERI1
 70
     0
  9
$USERI2
 70
     0
  9
$USERI3
 70
     0
  9
$USERI4
 70
     0
  9
$USERI5
 70
     0
  9
$USERR1
 40
0.0
  9
$USERR2
 40
0.0
  9
$USERR3
 40
0.0
  9
$USERR4
 40
0.0
  9
$USERR5
 40
0.0
  9
$WORLDVIEW
 70
     1
  9
$SHADEDGE
 70
     3
  9
$SHADEDIF
 70
    70
  9
$TILEMODE
 70
     1
  9
$MAXACTVP
 70
    64
  9
$PINSBASE
 10
0.0
 20
0.0
 30
0.0
  9
$PLIMCHECK
 70
     0
  9
$PEXTMIN
 10
1.0000000000E+20
 20
1.0000000000E+20
 30
1.0000000000E+20
  9
$PEXTMAX
 10
-1.0000000000E+20
 20
-1.0000000000E+20
 30
-1.0000000000E+20
  9
$PLIMMIN
 10
0.0
 20
0.0
  9
$PLIMMAX
 10
420.0
 20
297.0
  9
$UNITMODE
 70
     0
  9
$VISRETAIN
 70
     1
  9
$PLINEGEN
 70
     0
  9
$PSLTSCALE
 70
     1
  9
$TREEDEPTH
 70
  3020
  9
$CMLSTYLE
  2
Standard
  9
$CMLJUST
 70
     0
  9
$CMLSCALE
 40
20.0
  9
$PROXYGRAPHICS
 70
     1
  9
$MEASUREMENT
 70
     1
  9
$CELWEIGHT
370
    -1
  9
$ENDCAPS
280
     0
  9
$JOINSTYLE
280
     0
  9
$LWDISPLAY
290
     1
  9
$INSUNITS
 70
     4
  9
$HYPERLINKBASE
  1

  9
$STYLESHEET
  1

  9
$XEDIT
290
     1
  9
$CEPSNTYPE
380
     0
  9
$PSTYLEMODE
290
     1
  9
$FINGERPRINTGUID
  2
{c158fc40-b125-478f-8842-322186a3bca9}
  9
$VERSIONGUID
  2
{FAEB1C32-E019-11D5-929B-00C0DF256EC4}
  9
$EXTNAMES
290
     1
  9
$PSVPSCALE
 40
0.0
  9
$OLESTARTUP
290
     0
  0
ENDSEC
  0
SECTION
  2
CLASSES
  0
CLASS
  1
ACDBDICTIONARYWDFLT
  2
AcDbDictionaryWithDefault
  3
ObjectDBX Classes
 90
        0
280
     0
281
     0
  0
CLASS
  1
VISUALSTYLE
  2
AcDbVisualStyle
  3
ObjectDBX Classes
 90
     4095
280
     0
281
     0
  0
CLASS
  1
MATERIAL
  2
AcDbMaterial
  3
ObjectDBX Classes
 90
     1153
280
     0
281
     0
  0
CLASS
  1
SCALE
  2
AcDbScale
  3
ObjectDBX Classes
 90
     1153
280
     0
281
     0
  0
CLASS
  1
TABLESTYLE
  2
AcDbTableStyle
  3
ObjectDBX Classes
 90
     4095
280
     0
281
     0
  0
CLASS
  1
MLEADERSTYLE
  2
AcDbMLeaderStyle
  3
ACDB_MLEADERSTYLE_CLASS
 90
     4095
280
     0
281
     0
  0
CLASS
  1
SUN
  2
AcDbSun
  3
SCENEOE
 90
     1153
280
     0
281
     0
  0
CLASS
  1
ACDBPLACEHOLDER
  2
AcDbPlaceHolder
  3
ObjectDBX Classes
 90
        0
280
     0
281
     0
  0
CLASS
  1
LAYOUT
  2
AcDbLayout
  3
ObjectDBX Classes
 90
        0
280
     0
281
     0
  0
ENDSEC
  0
SECTION
  2
TABLES
  0
TABLE
  2
VPORT
  5
8
330
0
100
AcDbSymbolTable
 70
     1
  0
VPORT
  5
29
330
8
100
AcDbSymbolTableRecord
100
AcDbViewportTableRecord
  2
*Active
 70
     0
 10
0.0
 20
0.0
 11
1.0
 21
1.0
 12
0.0
 22
0.0
 13
0.0
 23
0.0
 14
10.0
 24
10.0
 15
10.0
 25
10.0
 16
0.0
 26
0.0
 36
1.0
 17
0.0
 27
0.0
 37
0.0
 40
204.0
 41
1.5
 42
50.0
 43
0.0
 44
0.0
 50
0.0
 51
0.0
 71
     0
 72
   100
 73
     1
 74
     3
 75
     0
 76
     0
 77
     0
 78
     0
281
     0
 65
     1
110
0.0
120
0.0
130
0.0
111
1.0
121
0.0
131
0.0
112
0.0
122
1.0
132
0.0
 79
     0
146
0.0
  0
ENDTAB
  0
TABLE
  2
LTYPE
  5
5
330
0
100
AcDbSymbolTable
 70
     6
  0
LTYPE
  5
14
330
5
100
AcDbSymbolTableRecord
100
AcDbLinetypeTableRecord
  2
ByBlock
 70
     0
  3

 72
    65
 73
     0
 40
0.0
  0
LTYPE
  5
15
330
5
100
AcDbSymbolTableRecord
100
AcDbLinetypeTableRecord
  2
ByLayer
 70
     0
  3

 72
    65
 73
     0
 40
0.0
  0
LTYPE
  5
16
330
5
100
AcDbSymbolTableRecord
100
AcDbLinetypeTableRecord
  2
Continuous
 70
     0
  3
Solid line
 72
    65
 73
     0
 40
0.0
  0
LTYPE
  5
5E
330
5
100
AcDbSymbolTableRecord
100
AcDbLinetypeTableRecord
  2
HIDDEN
 70
     0
  3
Hidden __ __ __ __ __ __ __ __ __ __ __ __ __ __
 72
    65
 73
     2
 40
1.905
 49
1.27
 74
     0
 49
-0.635
 74
     0
  0
LTYPE
  5
5F
330
5
100
AcDbSymbolTableRecord
100
AcDbLinetypeTableRecord
  2
PHANTOM
 70
     0
  3
Phantom ______  __  __  ______  __  __  ______
 72
    65
 73
     6
 40
12.7
 49
6.35
 74
     0
 49
-1.27
 74
     0
 49
1.27
 74
     0
 49
-1.27
 74
     0
 49
1.27
 74
     0
 49
-1.27
 74
     0
  0
LTYPE
  5
60
330
5
100
AcDbSymbolTableRecord
100
AcDbLinetypeTableRecord
  2
CENTER
 70
     0
  3
Center ____ _ ____ _ ____ _ ____ _ ____ _ ____
 72
    65
 73
     4
 40
10.16
 49
6.35
 74
     0
 49
-1.27
 74
     0
 49
1.27
 74
     0
 49
-1.27
 74
     0
  0
LTYPE
  5
61
330
5
100
AcDbSymbolTableRecord
100
AcDbLinetypeTableRecord
  2
CENTERX2
 70
     0
  3
Center (2x) ________  __  ________  __  _____
 72
    65
 73
     4
 40
20.32
 49
12.7
 74
     0
 49
-2.54
 74
     0
 49
2.54
 74
     0
 49
-2.54
 74
     0
  0
LTYPE
  5
62
330
5
100
AcDbSymbolTableRecord
100
AcDbLinetypeTableRecord
  2
DOT2
 70
     0
  3
Dot (.5x) ........................................
 72
    65
 73
     2
 40
0.635
 49
0.0
 74
     0
 49
-0.635
 74
     0
  0
ENDTAB
  0
TABLE
  2
LAYER
  5
2
330
0
100
AcDbSymbolTable
 70
     1
  0
LAYER
  5
10
330
2
100
AcDbSymbolTableRecord
100
AcDbLayerTableRecord
  2
0
 70
     0
 62
     7
  6
Continuous
370
    -3
390
F
  0
ENDTAB
  0
TABLE
  2
STYLE
  5
3
330
0
100
AcDbSymbolTable
 70
     1
  0
STYLE
  5
11
330
3
100
AcDbSymbolTableRecord
100
AcDbTextStyleTableRecord
  2
Standard
 70
     0
 40
0.0
 41
1.0
 50
0.0
 71
     0
 42
3.5
  3
txt
  4

  0
ENDTAB
  0
TABLE
  2
VIEW
  5
6
330
0
100
AcDbSymbolTable
 70
     0
  0
ENDTAB
  0
TABLE
  2
UCS
  5
7
330
0
100
AcDbSymbolTable
 70
     0
  0
ENDTAB
  0
TABLE
  2
APPID
  5
9
330
0
100
AcDbSymbolTable
 70
     1
  0
APPID
  5
12
330
9
100
AcDbSymbolTableRecord
100
AcDbRegAppTableRecord
  2
ACAD
 70
     0
  0
ENDTAB
  0
TABLE
  2
DIMSTYLE
  5
A
330
0
100
AcDbSymbolTable
 70
     1
100
AcDbDimStyleTable
  0
DIMSTYLE
105
27
330
A
100
AcDbSymbolTableRecord
100
AcDbDimStyleTableRecord
  2
ISO-25
 70
     0
 41
2.5
 42
0.625
 43
3.75
 44
1.25
 73
     0
 74
     0
 77
     1
 78
     8
140
2.5
141
2.5
143
0.0393700787
147
0.625
171
     3
172
     1
178
     0
271
     2
272
     2
274
     3
278
    44
283
     0
284
     8
340
11
  0
ENDTAB
  0
TABLE
  2
BLOCK_RECORD
  5
1
330
0
100
AcDbSymbolTable
 70
     1
  0
BLOCK_RECORD
  5
1F
330
1
100
AcDbSymbolTableRecord
100
AcDbBlockTableRecord
  2
*Model_Space
340
22
  0
BLOCK_RECORD
  5
1B
330
1
100
AcDbSymbolTableRecord
100
AcDbBlockTableRecord
  2
*Paper_Space
340
1E
  0
BLOCK_RECORD
  5
23
330
1
100
AcDbSymbolTableRecord
100
AcDbBlockTableRecord
  2
*Paper_Space0
340
26
  0
ENDTAB
  0
ENDSEC
  0
SECTION
  2
BLOCKS
  0
BLOCK
  5
20
330
1F
100
AcDbEntity
  8
0
100
AcDbBlockBegin
  2
*Model_Space
 70
     0
 10
0.0
 20
0.0
 30
0.0
  3
*Model_Space
  1

  0
ENDBLK
  5
21
330
1F
100
AcDbEntity
  8
0
100
AcDbBlockEnd
  0
BLOCK
  5
1C
330
1B
100
AcDbEntity
 67
     1
  8
0
100
AcDbBlockBegin
  2
*Paper_Space
 70
     0
 10
0.0
 20
0.0
 30
0.0
  3
*Paper_Space
  1

  0
ENDBLK
  5
1D
330
1B
100
AcDbEntity
 67
     1
  8
0
100
AcDbBlockEnd
  0
BLOCK
  5
24
330
23
100
AcDbEntity
  8
0
100
AcDbBlockBegin
  2
*Paper_Space0
 70
     0
 10
0.0
 20
0.0
 30
0.0
  3
*Paper_Space0
  1

  0
ENDBLK
  5
25
330
23
100
AcDbEntity
  8
0
100
AcDbBlockEnd
  0
ENDSEC
  0
SECTION
  2
ENTITIES
  0
ARC
  5
63
330
1F
100
AcDbEntity
  8
0
  6
Continuous
 62
     7
100
AcDbCircle
 10
-120.0
 20
70.0
 30
0.0
 40
30.0
100
AcDbArc
 50
90.0
 51
180.0
  0
ARC
  5
64
330
1F
100
AcDbEntity
  8
0
  6
Continuous
 62
     7
100
AcDbCircle
 10
120.0
 20
-70.0
 30
0.0
 40
30.0
100
AcDbArc
 50
270.0
 51
0.0
  0
ARC
  5
65
330
1F
100
AcDbEntity
  8
0
  6
Continuous
 62
     7
100
AcDbCircle
 10
120.0
 20
70.0
 30
0.0
 40
30.0
100
AcDbArc
 50
0.0
 51
90.0
  0
ARC
  5
66
330
1F
100
AcDbEntity
  8
0
  6
Continuous
 62
     7
100
AcDbCircle
 10
-120.0
 20
-70.0
 30
0.0
 40
30.00000000000003
100
AcDbArc
 50
180.0
 51
270.0
  0
CIRCLE
  5
67
330
1F
100
AcDbEntity
  8
0
  6
Continuous
 62
     7
100
AcDbCircle
 10
0.0
 20
79.2194105597
 30
0.0
 40
12.49999999999999
  0
LINE
  5
68
330
1F
100
AcDbEntity
  8
0
  6
Continuous
 62
     7
100
AcDbLine
 10
-120.0
 20
-100.0
 30
0.0
 11
120.0
 21
-100.0
 31
0.0
  0
LINE
  5
69
330
1F
100
AcDbEntity
  8
0
  6
Continuous
 62
     7
100
AcDbLine
 10
-150.0
 20
-70.0
 30
0.0
 11
-150.0
 21
70.0
 31
0.0
  0
LINE
  5
6A
330
1F
100
AcDbEntity
  8
0
  6
Continuous
 62
     7
100
AcDbLine
 10
-120.0
 20
100.0
 30
0.0
 11
120.0
 21
100.0
 31
0.0
  0
LINE
  5
6B
330
1F
100
AcDbEntity
  8
0
  6
Continuous
 62
     7
100
AcDbLine
 10
150.0
 20
-70.0
 30
0.0
 11
150.0
 21
70.0
 31
0.0
  0
LWPOLYLINE
  5
6C
330
1F
100
AcDbEntity
  8
0
  6
Continuous
 62
     7
100
AcDbPolyline
 90
      189
 70
   128
 43
0.0
 10
-62.2333884239
 20
47.787740099
 10
-47.96875
 20
57.455708849
 10
-47.96875
 20
57.455708849
 10
-47.1337890625
 20
56.2340291615
 10
-46.3603515625
 20
55.047505724
 10
-45.6396484375
 20
53.887349474
 10
-44.9892578125
 20
52.762349474
 10
-44.400390625
 20
51.6637166615
 10
-43.873046875
 20
50.5914510365
 10
-43.4072265625
 20
49.5543416615
 10
-43.0029296875
 20
48.543599474
 10
-42.34375
 20
46.5660604115
 10
-41.8779296875
 20
44.606099474
 10
-41.5966796875
 20
42.672505724
 10
-41.5
 20
40.7652791615
 10
-41.5
 20
40.7652791615
 10
-41.5791015625
 20
38.8844197865
 10
-41.8076171875
 20
37.082661974
 10
-42.185546875
 20
35.3512166615
 10
-42.7216796875
 20
33.690083849
 10
-42.7216796875
 20
33.690083849
 10
-43.8115234375
 20
31.0973104115
 10
-45.1298828125
 20
28.574849474
 10
-46.6591796875
 20
26.1227010365
 10
-48.408203125
 20
23.740865099
 10
-49.392578125
 20
22.5367635365
 10
-50.4736328125
 20
21.279927599
 10
-51.6689453125
 20
19.9527791615
 10
-52.9609375
 20
18.572896349
 10
-54.3671875
 20
17.131490099
 10
-55.87890625
 20
15.637349474
 10
-57.49609375
 20
14.072896349
 10
-59.21875
 20
12.455708849
 10
-59.21875
 20
12.455708849
 10
-59.921875
 20
13.1500447865
 10
-60.642578125
 20
13.7477010365
 10
-61.3896484375
 20
14.231099474
 10
-62.1630859375
 20
14.6090291615
 10
-62.9365234375
 20
14.899068224
 10
-63.68359375
 20
15.1012166615
 10
-64.421875
 20
15.2242635365
 10
-65.1337890625
 20
15.268208849
 10
-65.1337890625
 20
15.268208849
 10
-66.1005859375
 20
15.233052599
 10
-67.0849609375
 20
15.127583849
 10
-68.11328125
 20
14.9430135365
 10
-69.1591796875
 20
14.688130724
 10
-70.3193359375
 20
14.336568224
 10
-71.6728515625
 20
13.844380724
 10
-73.2197265625
 20
13.2203572865
 10
-74.96875
 20
12.455708849
 10
-74.96875
 20
12.455708849
 10
-75.6279296875
 20
13.158833849
 10
-76.2783203125
 20
13.7301229115
 10
-76.90234375
 20
14.1871541615
 10
-77.517578125
 20
14.5211385365
 10
-77.517578125
 20
14.5211385365
 10
-78.361328125
 20
14.846333849
 10
-79.2841796875
 20
15.0836385365
 10
-80.27734375
 20
15.2242635365
 10
-81.3583984375
 20
15.268208849
 10
-81.3583984375
 20
15.268208849
 10
-82.439453125
 20
15.233052599
 10
-83.4853515625
 20
15.1187947865
 10
-84.49609375
 20
14.934224474
 10
-85.4716796875
 20
14.6793416615
 10
-86.482421875
 20
14.318990099
 10
-87.5986328125
 20
13.826802599
 10
-88.8203125
 20
13.211568224
 10
-90.15625
 20
12.455708849
 10
-90.15625
 20
12.455708849
 10
-91.5625
 20
13.123677599
 10
-91.5625
 20
13.123677599
 10
-90.3759765625
 20
15.162740099
 10
-89.34765625
 20
17.096333849
 10
-88.4775390625
 20
18.924458849
 10
-87.765625
 20
20.6559041615
 10
-87.2119140625
 20
22.281880724
 10
-86.81640625
 20
23.811177599
 10
-86.5791015625
 20
25.235005724
 10
-86.5
 20
26.553365099
 10
-86.5
 20
26.553365099
 10
-86.60546875
 20
27.959615099
 10
-86.9306640625
 20
29.225240099
 10
-87.4755859375
 20
30.367818224
 10
-88.2314453125
 20
31.3785604115
 10
-89.119140625
 20
32.2047322865
 10
-90.05078125
 20
32.793599474
 10
-91.0439453125
 20
33.1539510365
 10
-92.0810546875
 20
33.268208849
 10
-92.0810546875
 20
33.268208849
 10
-92.705078125
 20
33.197896349
 10
-93.3466796875
 20
32.986958849
 10
-93.9970703125
 20
32.635396349
 10
-94.65625
 20
32.143208849
 10
-94.65625
 20
32.143208849
 10
-96.0625
 20
32.986958849
 10
-96.0625
 20
32.986958849
 10
-95.623046875
 20
33.7164510365
 10
-95.130859375
 20
34.340474474
 10
-94.5859375
 20
34.8766072865
 10
-93.98828125
 20
35.307271349
 10
-93.337890625
 20
35.6500447865
 10
-92.634765625
 20
35.887349474
 10
-91.8876953125
 20
36.0367635365
 10
-91.0791015625
 20
36.080708849
 10
-91.0791015625
 20
36.080708849
 10
-90.525390625
 20
36.045552599
 10
-89.962890625
 20
35.940083849
 10
-89.3916015625
 20
35.764302599
 10
-88.8203125
 20
35.518208849
 10
-88.240234375
 20
35.201802599
 10
-87.66015625
 20
34.8062947865
 10
-87.080078125
 20
34.340474474
 10
-86.5
 20
33.8043416615
 10
-86.5
 20
33.8043416615
 10
-86.5966796875
 20
36.3180135365
 10
-86.78125
 20
38.682271349
 10
-87.0712890625
 20
40.8883260365
 10
-87.466796875
 20
42.9449666615
 10
-87.9501953125
 20
44.8434041615
 10
-88.5390625
 20
46.592427599
 10
-89.224609375
 20
48.192036974
 10
-90.0068359375
 20
49.633443224
 10
-90.0068359375
 20
49.633443224
 10
-90.4287109375
 20
50.283833849
 10
-90.876953125
 20
50.8375447865
 10
-91.333984375
 20
51.3121541615
 10
-91.7998046875
 20
51.707661974
 10
-92.2919921875
 20
52.006490099
 10
-92.8017578125
 20
52.217427599
 10
-93.3203125
 20
52.3492635365
 10
-93.8564453125
 20
52.393208849
 10
-93.8564453125
 20
52.393208849
 10
-94.357421875
 20
52.340474474
 10
-94.83203125
 20
52.199849474
 10
-95.2802734375
 20
51.9449666615
 10
-95.7021484375
 20
51.602193224
 10
-96.080078125
 20
51.110005724
 10
-96.4052734375
 20
50.424458849
 10
-96.677734375
 20
49.5367635365
 10
-96.90625
 20
48.455708849
 10
-96.90625
 20
48.455708849
 10
-98.3125
 20
48.736958849
 10
-98.3125
 20
48.736958849
 10
-98.2333984375
 20
49.738911974
 10
-98.1103515625
 20
50.688130724
 10
-97.9345703125
 20
51.584615099
 10
-97.71484375
 20
52.410786974
 10
-97.451171875
 20
53.184224474
 10
-97.134765625
 20
53.904927599
 10
-96.765625
 20
54.5641072865
 10
-96.3525390625
 20
55.1617635365
 10
-95.8955078125
 20
55.697896349
 10
-95.39453125
 20
56.1637166615
 10
-94.8583984375
 20
56.559224474
 10
-94.2783203125
 20
56.8844197865
 10
-93.654296875
 20
57.1305135365
 10
-92.9951171875
 20
57.315083849
 10
-92.2919921875
 20
57.420552599
 10
-91.5537109375
 20
57.455708849
 10
-91.5537109375
 20
57.455708849
 10
-90.859375
 20
57.420552599
 10
-90.15625
 20
57.315083849
 10
-89.470703125
 20
57.139302599
 10
-88.7763671875
 20
56.893208849
 10
-88.0908203125
 20
56.5680135365
 10
-87.396484375
 20
56.1812947865
 10
-86.7197265625
 20
55.715474474
 10
-86.0341796875
 20
55.188130724
 10
-85.3662109375
 20
54.572896349
 10
-84.7333984375
 20
53.8785604115
 10
-84.126953125
 20
53.0875447865
 10
-83.5556640625
 20
52.2086385365
 10
-83.01953125
 20
51.233052599
 10
-82.509765625
 20
50.178365099
 10
-82.0263671875
 20
49.0269979115
 10
-81.578125
 20
47.787740099
 10
-81.578125
 20
47.787740099
 10
-67.65625
 20
57.455708849
 10
-67.65625
 20
57.455708849
 10
-66.91796875
 20
56.506490099
 10
-66.2060546875
 20
55.486958849
 10
-65.5029296875
 20
54.3883260365
 10
-64.8173828125
 20
53.219380724
 10
-64.1494140625
 20
51.971333849
 10
-63.490234375
 20
50.652974474
 10
-62.857421875
 20
49.2555135365
 10
-62.2333984375
 20
47.787740099
  0
LWPOLYLINE
  5
6D
330
1F
100
AcDbEntity
  8
0
  6
Continuous
 62
     7
100
AcDbPolyline
 90
       30
 70
   128
 43
0.0
 10
-81.4198851585
 20
46.6363729115
 10
-81.033203125
 20
45.2477010365
 10
-80.7255859375
 20
43.7711385365
 10
-80.4794921875
 20
42.215474474
 10
-80.3125
 20
40.580708849
 10
-80.3125
 20
40.580708849
 10
-79.3017578125
 20
40.1324666615
 10
-78.37890625
 20
39.754536974
 10
-77.53515625
 20
39.4644979115
 10
-76.7705078125
 20
39.244771349
 10
-75.2587890625
 20
38.981099474
 10
-73.6328125
 20
38.893208849
 10
-73.6328125
 20
38.893208849
 10
-71.998046875
 20
38.981099474
 10
-70.4599609375
 20
39.244771349
 10
-69.6689453125
 20
39.4644979115
 10
-68.798828125
 20
39.754536974
 10
-67.849609375
 20
40.1324666615
 10
-66.8125
 20
40.580708849
 10
-66.8125
 20
40.580708849
 10
-67.1728515625
 20
42.356099474
 10
-67.5771484375
 20
43.9996541615
 10
-68.04296875
 20
45.5113729115
 10
-68.552734375
 20
46.8824666615
 10
-69.16796875
 20
48.2535604115
 10
-69.9501953125
 20
49.756490099
 10
-70.908203125
 20
51.391255724
 10
-72.033203125
 20
53.1578572865
 10
-72.033203125
 20
53.1578572865
 10
-81.419921875
 20
46.6363729115
  0
LWPOLYLINE
  5
6E
330
1F
100
AcDbEntity
  8
0
  6
Continuous
 62
     7
100
AcDbPolyline
 90
       35
 70
   128
 43
0.0
 10
-61.9257688522
 20
46.7418416615
 10
-61.64453125
 20
46.0211385365
 10
-61.4248046875
 20
45.3531697865
 10
-61.2490234375
 20
44.7203572865
 10
-61.1259765625
 20
44.131490099
 10
-61.0205078125
 20
43.4547322865
 10
-60.8974609375
 20
42.5406697865
 10
-60.765625
 20
41.3980916615
 10
-60.625
 20
40.018208849
 10
-60.625
 20
40.018208849
 10
-59.5791015625
 20
39.5523885365
 10
-58.638671875
 20
39.174458849
 10
-57.8037109375
 20
38.875630724
 10
-57.07421875
 20
38.664693224
 10
-55.6591796875
 20
38.418599474
 10
-54.138671875
 20
38.330708849
 10
-54.138671875
 20
38.330708849
 10
-52.5830078125
 20
38.418599474
 10
-51.1240234375
 20
38.6910604115
 10
-50.376953125
 20
38.910786974
 10
-49.55078125
 20
39.2008260365
 10
-48.654296875
 20
39.5699666615
 10
-47.6875
 20
40.018208849
 10
-47.6875
 20
40.018208849
 10
-47.8720703125
 20
41.494771349
 10
-48.1181640625
 20
42.8922322865
 10
-48.443359375
 20
44.219380724
 10
-48.8388671875
 20
45.467427599
 10
-48.8388671875
 20
45.467427599
 10
-49.568359375
 20
47.348286974
 10
-50.4296875
 20
49.246724474
 10
-51.4228515625
 20
51.1715291615
 10
-52.5390625
 20
53.1051229115
 10
-52.5390625
 20
53.1051229115
 10
-61.92578125
 20
46.7418416615
  0
LWPOLYLINE
  5
6F
330
1F
100
AcDbEntity
  8
0
  6
Continuous
 62
     7
100
AcDbPolyline
 90
       41
 70
   128
 43
0.0
 10
-66.8124556541
 20
39.455708849
 10
-67.955078125
 20
38.998677599
 10
-68.9833984375
 20
38.6207479115
 10
-69.888671875
 20
38.3219197865
 10
-70.6884765625
 20
38.1109822865
 10
-72.208984375
 20
37.856099474
 10
-73.84375
 20
37.768208849
 10
-73.84375
 20
37.768208849
 10
-75.3818359375
 20
37.873677599
 10
-76.97265625
 20
38.190083849
 10
-78.6162109375
 20
38.717427599
 10
-80.3125
 20
39.455708849
 10
-80.3125
 20
39.455708849
 10
-80.3125
 20
38.629536974
 10
-80.3125
 20
38.629536974
 10
-80.400390625
 20
36.4762166615
 10
-80.6552734375
 20
34.2086385365
 10
-81.0859375
 20
31.826802599
 10
-81.6923828125
 20
29.330708849
 10
-81.6923828125
 20
29.330708849
 10
-80.0224609375
 20
30.068990099
 10
-78.4755859375
 20
30.596333849
 10
-77.04296875
 20
30.912740099
 10
-75.724609375
 20
31.018208849
 10
-75.724609375
 20
31.018208849
 10
-74.775390625
 20
30.9918416615
 10
-73.861328125
 20
30.895161974
 10
-72.9912109375
 20
30.7457479115
 10
-72.15625
 20
30.526021349
 10
-71.294921875
 20
30.2359822865
 10
-70.36328125
 20
29.8492635365
 10
-69.361328125
 20
29.3570760365
 10
-68.2890625
 20
28.768208849
 10
-68.2890625
 20
28.768208849
 10
-67.638671875
 20
31.053365099
 10
-67.181640625
 20
33.3121541615
 10
-66.900390625
 20
35.518208849
 10
-66.8125
 20
37.697896349
 10
-66.8125
 20
37.697896349
 10
-66.8125
 20
38.436177599
 10
-66.8125
 20
39.455708849
  0
LWPOLYLINE
  5
70
330
1F
100
AcDbEntity
  8
0
  6
Continuous
 62
     7
100
AcDbPolyline
 90
       47
 70
   128
 43
0.0
 10
-47.6874709129
 20
38.893208849
 10
-48.759765625
 20
38.418599474
 10
-49.7177734375
 20
38.0406697865
 10
-50.5703125
 20
37.7418416615
 10
-51.2998046875
 20
37.5309041615
 10
-52.7060546875
 20
37.2848104115
 10
-54.2265625
 20
37.205708849
 10
-54.2265625
 20
37.205708849
 10
-55.7470703125
 20
37.311177599
 10
-57.3291015625
 20
37.627583849
 10
-58.955078125
 20
38.154927599
 10
-60.625
 20
38.893208849
 10
-60.625
 20
38.893208849
 10
-60.6865234375
 20
37.5133260365
 10
-60.7919921875
 20
36.274068224
 10
-60.9326171875
 20
35.1578572865
 10
-61.1083984375
 20
34.1734822865
 10
-61.3544921875
 20
33.180318224
 10
-61.7060546875
 20
32.0465291615
 10
-62.1630859375
 20
30.7633260365
 10
-62.716796875
 20
29.330708849
 10
-62.716796875
 20
29.330708849
 10
-61.3720703125
 20
30.086568224
 10
-60.080078125
 20
30.6051229115
 10
-58.8408203125
 20
30.912740099
 10
-57.671875
 20
31.018208849
 10
-57.671875
 20
31.018208849
 10
-56.5732421875
 20
30.9742635365
 10
-55.5361328125
 20
30.860005724
 10
-54.54296875
 20
30.649068224
 10
-53.611328125
 20
30.367818224
 10
-52.6796875
 20
29.9898885365
 10
-51.7216796875
 20
29.506490099
 10
-50.7373046875
 20
28.908833849
 10
-49.7265625
 20
28.205708849
 10
-49.7265625
 20
28.205708849
 10
-49.251953125
 20
29.611958849
 10
-48.830078125
 20
30.9742635365
 10
-48.4873046875
 20
32.283833849
 10
-48.197265625
 20
33.5406697865
 10
-47.9775390625
 20
34.7535604115
 10
-47.810546875
 20
35.9137166615
 10
-47.72265625
 20
37.0211385365
 10
-47.6875
 20
38.0758260365
 10
-47.6875
 20
38.0758260365
 10
-47.6875
 20
38.418599474
 10
-47.6875
 20
38.893208849
  0
LWPOLYLINE
  5
71
330
1F
100
AcDbEntity
  8
0
  6
Continuous
 62
     7
100
AcDbPolyline
 90
       50
 70
   128
 43
0.0
 10
-50.3066182137
 20
27.080708849
 10
-51.2822265625
 20
27.801411974
 10
-52.2138671875
 20
28.4078572865
 10
-53.1015625
 20
28.9000447865
 10
-53.9453125
 20
29.2691854115
 10
-54.7890625
 20
29.541646349
 10
-55.6767578125
 20
29.735005724
 10
-56.634765625
 20
29.858052599
 10
-57.63671875
 20
29.893208849
 10
-57.63671875
 20
29.893208849
 10
-59.04296875
 20
29.787740099
 10
-60.5107421875
 20
29.471333849
 10
-62.03125
 20
28.943990099
 10
-63.6220703125
 20
28.205708849
 10
-63.6220703125
 20
28.205708849
 10
-64.38671875
 20
26.8082479115
 10
-65.2216796875
 20
25.428365099
 10
-66.126953125
 20
24.0484822865
 10
-67.1025390625
 20
22.686177599
 10
-67.638671875
 20
21.983052599
 10
-68.2275390625
 20
21.244771349
 10
-68.8779296875
 20
20.453755724
 10
-69.5810546875
 20
19.6187947865
 10
-70.3544921875
 20
18.7398885365
 10
-71.171875
 20
17.817036974
 10
-72.05078125
 20
16.850240099
 10
-72.9912109375
 20
15.8394979115
 10
-72.9912109375
 20
15.8394979115
 10
-71.8662109375
 20
16.375630724
 10
-70.7939453125
 20
16.867818224
 10
-69.7744140625
 20
17.3160604115
 10
-68.798828125
 20
17.729146349
 10
-67.8759765625
 20
18.0894979115
 10
-66.9970703125
 20
18.4059041615
 10
-66.1708984375
 20
18.6871541615
 10
-65.3974609375
 20
18.9156697865
 10
-63.912109375
 20
19.2848104115
 10
-62.470703125
 20
19.557271349
 10
-61.08203125
 20
19.715474474
 10
-59.728515625
 20
19.768208849
 10
-59.728515625
 20
19.768208849
 10
-58.673828125
 20
19.715474474
 10
-57.5576171875
 20
19.557271349
 10
-56.3798828125
 20
19.293599474
 10
-55.140625
 20
18.924458849
 10
-55.140625
 20
18.924458849
 10
-53.76953125
 20
20.9019979115
 10
-52.50390625
 20
22.914693224
 10
-51.3525390625
 20
24.9801229115
 10
-50.306640625
 20
27.080708849
  0
LWPOLYLINE
  5
72
330
1F
100
AcDbEntity
  8
0
  6
Continuous
 62
     7
100
AcDbPolyline
 90
       42
 70
   128
 43
0.0
 10
-68.7636137009
 20
27.643208849
 10
-69.8095703125
 20
28.258443224
 10
-70.75
 20
28.7594197865
 10
-71.6025390625
 20
29.154927599
 10
-72.349609375
 20
29.436177599
 10
-73.0615234375
 20
29.6383260365
 10
-73.80859375
 20
29.7789510365
 10
-74.5908203125
 20
29.8668416615
 10
-75.408203125
 20
29.893208849
 10
-75.408203125
 20
29.893208849
 10
-76.955078125
 20
29.787740099
 10
-78.6162109375
 20
29.471333849
 10
-80.3916015625
 20
28.943990099
 10
-82.28125
 20
28.205708849
 10
-82.28125
 20
28.205708849
 10
-82.9140625
 20
26.465474474
 10
-83.546875
 20
24.813130724
 10
-84.2060546875
 20
23.266255724
 10
-84.865234375
 20
21.8160604115
 10
-85.5859375
 20
20.3746541615
 10
-86.4033203125
 20
18.854146349
 10
-87.3349609375
 20
17.254536974
 10
-88.36328125
 20
15.567036974
 10
-88.36328125
 20
15.567036974
 10
-86.2978515625
 20
16.6656697865
 10
-84.4169921875
 20
17.5797322865
 10
-82.7119140625
 20
18.309224474
 10
-81.1826171875
 20
18.854146349
 10
-79.75
 20
19.258443224
 10
-78.34375
 20
19.539693224
 10
-76.955078125
 20
19.715474474
 10
-75.5927734375
 20
19.768208849
 10
-75.5927734375
 20
19.768208849
 10
-74.9248046875
 20
19.750630724
 10
-74.2041015625
 20
19.697896349
 10
-73.4306640625
 20
19.6187947865
 10
-72.6044921875
 20
19.4957479115
 10
-72.6044921875
 20
19.4957479115
 10
-71.4970703125
 20
21.4820760365
 10
-70.4951171875
 20
23.494771349
 10
-69.5810546875
 20
25.551411974
 10
-68.763671875
 20
27.643208849
  0
LWPOLYLINE
  5
73
330
1F
100
AcDbEntity
  8
0
  6
Continuous
 62
     7
100
AcDbPolyline
 90
       50
 70
   128
 43
0.0
 10
-23.49999547
 20
44.518208849
 10
-15.625
 20
34.8590291615
 10
-15.625
 20
34.8590291615
 10
-28.5625
 20
25.393208849
 10
-28.5625
 20
25.393208849
 10
-28.5625
 20
19.205708849
 10
-28.5625
 20
19.205708849
 10
-21.513671875
 20
16.393208849
 10
-21.513671875
 20
16.393208849
 10
-16.75
 20
19.768208849
 10
-16.75
 20
19.768208849
 10
-16.1875
 20
18.643208849
 10
-16.1875
 20
18.643208849
 10
-26.59375
 20
12.455708849
 10
-26.59375
 20
12.455708849
 10
-27.9384765625
 20
13.1500447865
 10
-29.1689453125
 20
13.7477010365
 10
-30.267578125
 20
14.231099474
 10
-31.2431640625
 20
14.6090291615
 10
-32.25390625
 20
15.004536974
 10
-33.4580078125
 20
15.5230916615
 10
-34.8466796875
 20
16.1734822865
 10
-36.4375
 20
16.955708849
 10
-36.4375
 20
16.955708849
 10
-36.4375
 20
17.518208849
 10
-36.4375
 20
17.518208849
 10
-35.9716796875
 20
17.8258260365
 10
-35.59375
 20
18.1773885365
 10
-35.3037109375
 20
18.555318224
 10
-35.0927734375
 20
18.9684041615
 10
-34.943359375
 20
19.522115099
 10
-34.837890625
 20
20.330708849
 10
-34.767578125
 20
21.3941854115
 10
-34.75
 20
22.703755724
 10
-34.75
 20
22.703755724
 10
-34.75
 20
39.455708849
 10
-34.75
 20
39.455708849
 10
-33.3701171875
 20
39.9566854115
 10
-32.11328125
 20
40.440083849
 10
-30.9794921875
 20
40.897115099
 10
-29.96875
 20
41.3277791615
 10
-29.96875
 20
41.3277791615
 10
-29.564453125
 20
41.512349474
 10
-29.0458984375
 20
41.7672322865
 10
-28.4130859375
 20
42.074849474
 10
-27.6572265625
 20
42.443990099
 10
-26.7958984375
 20
42.8746541615
 10
-25.8115234375
 20
43.358052599
 10
-24.712890625
 20
43.9117635365
 10
-23.5
 20
44.518208849
  0
LWPOLYLINE
  5
74
330
1F
100
AcDbEntity
  8
0
  6
Continuous
 62
     7
100
AcDbPolyline
 90
        8
 70
   128
 43
0.0
 10
-28.1582027674
 20
41.055318224
 10
-28.5625
 20
40.9410604115
 10
-28.5625
 20
40.9410604115
 10
-28.5625
 20
27.0894979115
 10
-28.5625
 20
27.0894979115
 10
-20.7578125
 20
32.8023885365
 10
-20.7578125
 20
32.8023885365
 10
-28.158203125
 20
41.055318224
  0
LWPOLYLINE
  5
75
330
1F
100
AcDbEntity
  8
0
  6
Continuous
 62
     7
100
AcDbPolyline
 90
       79
 70
   128
 43
0.0
 10
0.1249999041
 20
55.205708849
 10
0.125
 20
54.643208849
 10
0.125
 20
54.643208849
 10
-0.876953125
 20
54.0016072865
 10
-1.720703125
 20
53.2809041615
 10
-2.3974609375
 20
52.498677599
 10
-2.9248046875
 20
51.6461385365
 10
-3.1357421875
 20
51.1715291615
 10
-3.3115234375
 20
50.6441854115
 10
-3.4697265625
 20
50.055318224
 10
-3.5927734375
 20
49.4137166615
 10
-3.689453125
 20
48.7105916615
 10
-3.759765625
 20
47.9547322865
 10
-3.794921875
 20
47.137349474
 10
-3.8125
 20
46.2672322865
 10
-3.8125
 20
46.2672322865
 10
-3.8125
 20
19.768208849
 10
-3.8125
 20
19.768208849
 10
-0.4375
 20
16.955708849
 10
-0.4375
 20
16.955708849
 10
1.25
 20
18.643208849
 10
1.25
 20
18.643208849
 10
1.8125
 20
17.518208849
 10
1.8125
 20
17.518208849
 10
-4.09375
 20
12.455708849
 10
-4.09375
 20
12.455708849
 10
-5.359375
 20
13.527974474
 10
-6.4580078125
 20
14.3980916615
 10
-7.3896484375
 20
15.074849474
 10
-8.1455078125
 20
15.5582479115
 10
-8.8662109375
 20
15.936177599
 10
-9.701171875
 20
16.2965291615
 10
-10.6416015625
 20
16.6305135365
 10
-11.6875
 20
16.955708849
 10
-11.6875
 20
16.955708849
 10
-11.6875
 20
17.518208849
 10
-11.6875
 20
17.518208849
 10
-11.072265625
 20
18.098286974
 10
-10.6064453125
 20
18.801411974
 10
-10.28125
 20
19.6539510365
 10
-10.0703125
 20
20.629536974
 10
-10.0703125
 20
20.629536974
 10
-10.0615234375
 20
20.7613729115
 10
-10.052734375
 20
20.981099474
 10
-10.0439453125
 20
21.297505724
 10
-10.0263671875
 20
21.701802599
 10
-10.0263671875
 20
22.193990099
 10
-10.017578125
 20
22.774068224
 10
-10.0087890625
 20
23.442036974
 10
-10.0
 20
24.2066854115
 10
-10.0
 20
24.2066854115
 10
-10.0
 20
45.537740099
 10
-10.0
 20
45.537740099
 10
-10.017578125
 20
46.7945760365
 10
-10.052734375
 20
47.8492635365
 10
-10.1318359375
 20
48.684224474
 10
-10.228515625
 20
49.317036974
 10
-10.5625
 20
50.354146349
 10
-11.1162109375
 20
51.3473104115
 10
-11.51171875
 20
51.848286974
 10
-12.0126953125
 20
52.375630724
 10
-12.63671875
 20
52.938130724
 10
-13.375
 20
53.518208849
 10
-13.375
 20
53.518208849
 10
-12.8125
 20
54.080708849
 10
-12.8125
 20
54.080708849
 10
-11.51171875
 20
53.6500447865
 10
-10.28125
 20
53.0348104115
 10
-9.12109375
 20
52.2437947865
 10
-8.03125
 20
51.268208849
 10
-8.03125
 20
51.268208849
 10
-6.9501953125
 20
52.287740099
 10
-5.9130859375
 20
53.1402791615
 10
-4.9375
 20
53.8082479115
 10
-4.0146484375
 20
54.3004354115
 10
-3.0830078125
 20
54.660786974
 10
-2.0810546875
 20
54.9332479115
 10
-1.017578125
 20
55.117818224
 10
0.125
 20
55.205708849
  0
LWPOLYLINE
  5
76
330
1F
100
AcDbEntity
  8
0
  6
Continuous
 62
     7
100
AcDbPolyline
 90
       44
 70
   128
 43
0.0
 10
13.9062479138
 20
44.518208849
 10
21.5
 20
40.299458849
 10
21.5
 20
40.299458849
 10
17.84375
 20
35.518208849
 10
17.84375
 20
35.518208849
 10
12.5
 20
38.893208849
 10
12.5
 20
38.893208849
 10
12.5
 20
19.768208849
 10
12.5
 20
19.768208849
 10
18.40625
 20
17.061177599
 10
18.40625
 20
17.061177599
 10
21.4912109375
 20
19.785786974
 10
21.4912109375
 20
19.785786974
 10
21.5
 20
18.643208849
 10
21.5
 20
18.643208849
 10
14.46875
 20
12.455708849
 10
14.46875
 20
12.455708849
 10
13.0888671875
 20
13.5367635365
 10
11.8232421875
 20
14.459615099
 10
10.654296875
 20
15.233052599
 10
9.5908203125
 20
15.8570760365
 10
8.5185546875
 20
16.340474474
 10
7.3408203125
 20
16.6832479115
 10
6.0400390625
 20
16.885396349
 10
4.625
 20
16.955708849
 10
4.625
 20
16.955708849
 10
4.625
 20
17.518208849
 10
4.625
 20
17.518208849
 10
5.0556640625
 20
17.8785604115
 10
5.416015625
 20
18.256490099
 10
5.6796875
 20
18.6519979115
 10
5.873046875
 20
19.0562947865
 10
5.873046875
 20
19.0562947865
 10
6.06640625
 20
19.715474474
 10
6.20703125
 20
20.5328572865
 10
6.2861328125
 20
21.5172322865
 10
6.3125
 20
22.6598104115
 10
6.3125
 20
22.6598104115
 10
6.3125
 20
39.455708849
 10
6.3125
 20
39.455708849
 10
8.228515625
 20
40.3961385365
 10
10.1357421875
 20
41.547505724
 10
12.025390625
 20
42.9273885365
 10
13.90625
 20
44.518208849
  0
LWPOLYLINE
  5
77
330
1F
100
AcDbEntity
  8
0
  6
Continuous
 62
     7
100
AcDbPolyline
 90
       60
 70
   128
 43
0.0
 10
46.2499856949
 20
40.018208849
 10
46.25
 20
17.518208849
 10
46.25
 20
17.518208849
 10
45.1865234375
 20
17.078755724
 10
44.193359375
 20
16.6656697865
 10
43.279296875
 20
16.2613729115
 10
42.4443359375
 20
15.883443224
 10
41.6796875
 20
15.531880724
 10
40.994140625
 20
15.1891072865
 10
40.3876953125
 20
14.8727010365
 10
39.8603515625
 20
14.5738729115
 10
39.8603515625
 20
14.5738729115
 10
38.3837890625
 20
13.615865099
 10
36.96875
 20
12.455708849
 10
36.96875
 20
12.455708849
 10
35.9052734375
 20
13.0973104115
 10
34.8857421875
 20
13.686177599
 10
33.9189453125
 20
14.231099474
 10
32.99609375
 20
14.723286974
 10
32.1171875
 20
15.1539510365
 10
31.291015625
 20
15.5406697865
 10
30.5087890625
 20
15.883443224
 10
29.7705078125
 20
16.164693224
 10
29.7705078125
 20
16.164693224
 10
28.654296875
 20
16.5074666615
 10
27.4677734375
 20
16.762349474
 10
26.2021484375
 20
16.902974474
 10
24.875
 20
16.955708849
 10
24.875
 20
16.955708849
 10
24.576171875
 20
17.518208849
 10
24.576171875
 20
17.518208849
 10
25.12109375
 20
17.992818224
 10
25.560546875
 20
18.449849474
 10
25.8857421875
 20
18.8805135365
 10
26.10546875
 20
19.2848104115
 10
26.10546875
 20
19.2848104115
 10
26.3076171875
 20
19.891255724
 10
26.4482421875
 20
20.6734822865
 10
26.5361328125
 20
21.631490099
 10
26.5625
 20
22.774068224
 10
26.5625
 20
22.774068224
 10
26.5625
 20
39.455708849
 10
26.5625
 20
39.455708849
 10
27.8896484375
 20
39.930318224
 10
29.1728515625
 20
40.4488729115
 10
30.412109375
 20
41.0113729115
 10
31.5986328125
 20
41.617818224
 10
32.732421875
 20
42.2769979115
 10
33.8134765625
 20
42.9801229115
 10
34.8505859375
 20
43.727193224
 10
35.84375
 20
44.518208849
 10
35.84375
 20
44.518208849
 10
36.9248046875
 20
43.815083849
 10
38.0673828125
 20
43.147115099
 10
39.271484375
 20
42.5230916615
 10
40.537109375
 20
41.9430135365
 10
41.873046875
 20
41.3980916615
 10
43.2705078125
 20
40.897115099
 10
44.7294921875
 20
40.440083849
 10
46.25
 20
40.018208849
  0
LWPOLYLINE
  5
78
330
1F
100
AcDbEntity
  8
0
  6
Continuous
 62
     7
100
AcDbPolyline
 90
       18
 70
   128
 43
0.0
 10
32.7499806881
 20
20.330708849
 10
40.0625
 20
17.518208849
 10
40.0625
 20
17.518208849
 10
40.0625
 20
36.643208849
 10
40.0625
 20
36.643208849
 10
39.236328125
 20
37.0387166615
 10
38.462890625
 20
37.399068224
 10
37.759765625
 20
37.7242635365
 10
37.1181640625
 20
38.014302599
 10
36.5380859375
 20
38.2691854115
 10
36.0283203125
 20
38.4801229115
 10
35.5712890625
 20
38.664693224
 10
35.1845703125
 20
38.8141072865
 10
35.1845703125
 20
38.8141072865
 10
34.0771484375
 20
39.1656697865
 10
32.75
 20
39.455708849
 10
32.75
 20
39.455708849
 10
32.75
 20
20.330708849
  0
LWPOLYLINE
  5
79
330
1F
100
AcDbEntity
  8
0
  6
Continuous
 62
     7
100
AcDbPolyline
 90
      137
 70
   128
 43
0.0
 10
90.6874537468
 20
42.830708849
 10
91.8125
 20
42.268208849
 10
91.8125
 20
42.268208849
 10
90.86328125
 20
41.547505724
 10
90.0810546875
 20
40.897115099
 10
89.4658203125
 20
40.3258260365
 10
89.0263671875
 20
39.8336385365
 10
88.4375
 20
38.928365099
 10
88.0947265625
 20
38.014302599
 10
87.998046875
 20
37.4430135365
 10
87.927734375
 20
36.625630724
 10
87.892578125
 20
35.570943224
 10
87.875
 20
34.2789510365
 10
87.875
 20
34.2789510365
 10
87.875
 20
21.649068224
 10
87.875
 20
21.649068224
 10
87.91015625
 20
20.506490099
 10
88.0068359375
 20
19.574849474
 10
88.1650390625
 20
18.854146349
 10
88.384765625
 20
18.3355916615
 10
88.6396484375
 20
17.975240099
 10
88.876953125
 20
17.7203572865
 10
89.1142578125
 20
17.570943224
 10
89.3427734375
 20
17.518208849
 10
89.3427734375
 20
17.518208849
 10
89.720703125
 20
17.588521349
 10
90.2041015625
 20
17.799458849
 10
90.810546875
 20
18.151021349
 10
91.53125
 20
18.643208849
 10
91.53125
 20
18.643208849
 10
92.375
 20
17.518208849
 10
92.375
 20
17.518208849
 10
85.34375
 20
12.455708849
 10
85.34375
 20
12.455708849
 10
84.3857421875
 20
13.299458849
 10
83.603515625
 20
14.0641072865
 10
83.0146484375
 20
14.7496541615
 10
82.6015625
 20
15.3648885365
 10
82.6015625
 20
15.3648885365
 10
82.2060546875
 20
16.2262166615
 10
81.916015625
 20
17.1227010365
 10
81.7490234375
 20
18.0367635365
 10
81.6875
 20
18.977193224
 10
81.6875
 20
18.977193224
 10
81.6875
 20
37.2672322865
 10
81.6875
 20
37.2672322865
 10
78.9716796875
 20
39.9039510365
 10
78.9716796875
 20
39.9039510365
 10
74.375
 20
36.0543416615
 10
74.375
 20
36.0543416615
 10
74.375
 20
19.205708849
 10
74.375
 20
19.205708849
 10
76.625
 20
16.674458849
 10
76.625
 20
16.674458849
 10
71.28125
 20
12.455708849
 10
71.28125
 20
12.455708849
 10
65.9375
 20
16.674458849
 10
65.9375
 20
16.674458849
 10
68.1875
 20
19.205708849
 10
68.1875
 20
19.205708849
 10
68.1875
 20
34.111958849
 10
68.1875
 20
34.111958849
 10
68.169921875
 20
35.2984822865
 10
68.099609375
 20
36.256490099
 10
67.994140625
 20
36.9859822865
 10
67.8359375
 20
37.4781697865
 10
67.8359375
 20
37.4781697865
 10
67.501953125
 20
38.014302599
 10
67.0009765625
 20
38.594380724
 10
66.32421875
 20
39.227193224
 10
65.4716796875
 20
39.9039510365
 10
65.4716796875
 20
39.9039510365
 10
60.875
 20
36.0543416615
 10
60.875
 20
36.0543416615
 10
60.875
 20
19.205708849
 10
60.875
 20
19.205708849
 10
63.125
 20
16.674458849
 10
63.125
 20
16.674458849
 10
57.78125
 20
12.455708849
 10
57.78125
 20
12.455708849
 10
52.4375
 20
16.674458849
 10
52.4375
 20
16.674458849
 10
54.6875
 20
19.205708849
 10
54.6875
 20
19.205708849
 10
54.6875
 20
35.0699666615
 10
54.6875
 20
35.0699666615
 10
54.6435546875
 20
36.2125447865
 10
54.529296875
 20
37.188130724
 10
54.318359375
 20
37.996724474
 10
54.037109375
 20
38.629536974
 10
54.037109375
 20
38.629536974
 10
53.791015625
 20
38.9898885365
 10
53.544921875
 20
39.2535604115
 10
53.31640625
 20
39.402974474
 10
53.0966796875
 20
39.455708849
 10
53.0966796875
 20
39.455708849
 10
52.7802734375
 20
39.385396349
 10
52.3232421875
 20
39.174458849
 10
51.7431640625
 20
38.822896349
 10
51.03125
 20
38.330708849
 10
51.03125
 20
38.330708849
 10
50.1875
 20
39.455708849
 10
50.1875
 20
39.455708849
 10
57.21875
 20
44.518208849
 10
57.21875
 20
44.518208849
 10
58.080078125
 20
43.8414510365
 10
58.7919921875
 20
43.235005724
 10
59.345703125
 20
42.6812947865
 10
59.7587890625
 20
42.197896349
 10
60.3388671875
 20
41.266255724
 10
60.7080078125
 20
40.246724474
 10
60.7080078125
 20
40.246724474
 10
60.7783203125
 20
39.7633260365
 10
60.8310546875
 20
39.104146349
 10
60.8662109375
 20
38.242818224
 10
60.875
 20
37.205708849
 10
60.875
 20
37.205708849
 10
69.59375
 20
44.518208849
 10
69.59375
 20
44.518208849
 10
70.279296875
 20
43.9820760365
 10
70.9033203125
 20
43.463521349
 10
71.4658203125
 20
42.971333849
 10
71.966796875
 20
42.5055135365
 10
72.40625
 20
42.057271349
 10
72.7841796875
 20
41.635396349
 10
73.091796875
 20
41.2398885365
 10
73.3466796875
 20
40.8707479115
 10
73.7421875
 20
40.106099474
 10
74.041015625
 20
39.2359822865
 10
74.251953125
 20
38.2691854115
 10
74.375
 20
37.205708849
 10
74.375
 20
37.205708849
 10
83.09375
 20
44.518208849
 10
83.09375
 20
44.518208849
 10
87.3125
 20
40.018208849
 10
87.3125
 20
40.018208849
 10
90.6875
 20
42.830708849
  0
LWPOLYLINE
  5
7A
330
1F
100
AcDbEntity
  8
0
  6
Continuous
 62
     7
100
AcDbPolyline
 90
       50
 70
   128
 43
0.0
 10
109.2499494553
 20
44.518208849
 10
117.125
 20
34.8590291615
 10
117.125
 20
34.8590291615
 10
104.1875
 20
25.393208849
 10
104.1875
 20
25.393208849
 10
104.1875
 20
19.205708849
 10
104.1875
 20
19.205708849
 10
111.236328125
 20
16.393208849
 10
111.236328125
 20
16.393208849
 10
116.0
 20
19.768208849
 10
116.0
 20
19.768208849
 10
116.5625
 20
18.643208849
 10
116.5625
 20
18.643208849
 10
106.15625
 20
12.455708849
 10
106.15625
 20
12.455708849
 10
104.8115234375
 20
13.1500447865
 10
103.5810546875
 20
13.7477010365
 10
102.482421875
 20
14.231099474
 10
101.5068359375
 20
14.6090291615
 10
100.49609375
 20
15.004536974
 10
99.2919921875
 20
15.5230916615
 10
97.9033203125
 20
16.1734822865
 10
96.3125
 20
16.955708849
 10
96.3125
 20
16.955708849
 10
96.3125
 20
17.518208849
 10
96.3125
 20
17.518208849
 10
96.7783203125
 20
17.8258260365
 10
97.15625
 20
18.1773885365
 10
97.4462890625
 20
18.555318224
 10
97.6572265625
 20
18.9684041615
 10
97.806640625
 20
19.522115099
 10
97.912109375
 20
20.330708849
 10
97.982421875
 20
21.3941854115
 10
98.0
 20
22.703755724
 10
98.0
 20
22.703755724
 10
98.0
 20
39.455708849
 10
98.0
 20
39.455708849
 10
99.3798828125
 20
39.9566854115
 10
100.63671875
 20
40.440083849
 10
101.7705078125
 20
40.897115099
 10
102.78125
 20
41.3277791615
 10
102.78125
 20
41.3277791615
 10
103.185546875
 20
41.512349474
 10
103.7041015625
 20
41.7672322865
 10
104.3369140625
 20
42.074849474
 10
105.0927734375
 20
42.443990099
 10
105.9541015625
 20
42.8746541615
 10
106.9384765625
 20
43.358052599
 10
108.037109375
 20
43.9117635365
 10
109.25
 20
44.518208849
  0
LWPOLYLINE
  5
7B
330
1F
100
AcDbEntity
  8
0
  6
Continuous
 62
     7
100
AcDbPolyline
 90
        8
 70
   128
 43
0.0
 10
104.5917868614
 20
41.055318224
 10
104.1875
 20
40.9410604115
 10
104.1875
 20
40.9410604115
 10
104.1875
 20
27.0894979115
 10
104.1875
 20
27.0894979115
 10
111.9921875
 20
32.8023885365
 10
111.9921875
 20
32.8023885365
 10
104.591796875
 20
41.055318224
  0
LWPOLYLINE
  5
7C
330
1F
100
AcDbEntity
  8
0
  6
Continuous
 62
     7
100
AcDbPolyline
 90
       91
 70
   128
 43
0.0
 10
-20.3472077847
 20
-1.0138739256
 10
-21.1241319444
 20
-1.0268947589
 10
-21.9618055556
 20
-1.0746378144
 10
-21.9618055556
 20
-1.0746378144
 10
-22.8211805556
 20
-1.1527628144
 10
-23.5677083333
 20
-1.27863087
 10
-24.1927083333
 20
-1.4435614256
 10
-24.7048611111
 20
-1.6518947589
 10
-25.1345486111
 20
-1.9253322589
 10
-25.5251736111
 20
-2.2768947589
 10
-25.8767361111
 20
-2.7196030922
 10
-26.1892361111
 20
-3.2404364256
 10
-26.1892361111
 20
-3.2404364256
 10
-26.4409722222
 20
-3.8046725367
 10
-26.6623263889
 20
-4.4643947589
 10
-26.8532986111
 20
-5.2152628144
 10
-27.0138888889
 20
-6.0572767033
 10
-27.0138888889
 20
-6.0572767033
 10
-27.2916666667
 20
-6.0268947589
 10
-27.2916666667
 20
-6.0268947589
 10
-27.0138888889
 20
-0.7360961478
 10
-27.0138888889
 20
-0.7360961478
 10
-11.7361111111
 20
-0.7360961478
 10
-11.7361111111
 20
-0.7360961478
 10
-11.4583333333
 20
-6.0268947589
 10
-11.4583333333
 20
-6.0268947589
 10
-11.7361111111
 20
-6.0572767033
 10
-11.7361111111
 20
-6.0572767033
 10
-11.8185763889
 20
-5.5581447589
 10
-11.9097222222
 20
-5.0893947589
 10
-12.0138888889
 20
-4.6510267033
 10
-12.1267361111
 20
-4.24738087
 10
-12.2526041667
 20
-3.8697767033
 10
-12.3871527778
 20
-3.5268947589
 10
-12.5347222222
 20
-3.2187350367
 10
-12.6909722222
 20
-2.9366169811
 10
-13.0512152778
 20
-2.4418253144
 10
-13.4852430556
 20
-2.0251586478
 10
-13.9930555556
 20
-1.6822767033
 10
-14.5746527778
 20
-1.4131794811
 10
-14.5746527778
 20
-1.4131794811
 10
-14.8611111111
 20
-1.31769337
 10
-15.1909722222
 20
-1.23956837
 10
-15.5642361111
 20
-1.1701239256
 10
-15.9852430556
 20
-1.1137003144
 10
-16.4539930556
 20
-1.0702975367
 10
-16.9661458333
 20
-1.0399155922
 10
-17.5217013889
 20
-1.0182142033
 10
-18.125
 20
-1.0138739256
 10
-18.125
 20
-1.0138739256
 10
-18.125
 20
-16.1440822589
 10
-18.125
 20
-16.1440822589
 10
-18.1163194444
 20
-16.8515475367
 10
-18.0902777778
 20
-17.4591864256
 10
-18.0512152778
 20
-17.9713392033
 10
-17.9904513889
 20
-18.38800587
 10
-17.9079861111
 20
-18.73956837
 10
-17.7951388889
 20
-19.0564086478
 10
-17.6519097222
 20
-19.3428669811
 10
-17.4826388889
 20
-19.59894337
 10
-17.4826388889
 20
-19.59894337
 10
-17.1267361111
 20
-19.9678669811
 10
-16.7274305556
 20
-20.22394337
 10
-16.4973958333
 20
-20.3107489256
 10
-16.2369791667
 20
-20.3758530922
 10
-15.9461805556
 20
-20.4279364256
 10
-15.625
 20
-20.45831837
 10
-15.625
 20
-20.45831837
 10
-15.625
 20
-20.7360961478
 10
-15.625
 20
-20.7360961478
 10
-22.8472222222
 20
-20.7360961478
 10
-22.8472222222
 20
-20.7360961478
 10
-22.8472222222
 20
-20.45831837
 10
-22.8472222222
 20
-20.45831837
 10
-22.5217013889
 20
-20.4279364256
 10
-22.2265625
 20
-20.3758530922
 10
-21.9661458333
 20
-20.3107489256
 10
-21.7404513889
 20
-20.22394337
 10
-21.3411458333
 20
-19.9678669811
 10
-20.9852430556
 20
-19.59894337
 10
-20.9852430556
 20
-19.59894337
 10
-20.8159722222
 20
-19.3428669811
 10
-20.6770833333
 20
-19.0607489256
 10
-20.5685763889
 20
-18.7439086478
 10
-20.4861111111
 20
-18.3966864256
 10
-20.4253472222
 20
-17.9843600367
 10
-20.3819444444
 20
-17.4722072589
 10
-20.3559027778
 20
-16.8558878144
 10
-20.3472222222
 20
-16.1440822589
 10
-20.3472222222
 20
-16.1440822589
 10
-20.3472222222
 20
-1.0138739256
  0
LWPOLYLINE
  5
7D
330
1F
100
AcDbEntity
  8
0
  6
Continuous
 62
     7
100
AcDbPolyline
 90
       72
 70
   128
 43
0.0
 10
-12.3194381595
 20
-14.5077975367
 10
-12.2977430556
 20
-13.9175197589
 10
-12.2326388889
 20
-13.3402628144
 10
-12.1241319444
 20
-12.7847072589
 10
-11.9722222222
 20
-12.2421725367
 10
-11.7769097222
 20
-11.7169989256
 10
-11.5381944444
 20
-11.2048461478
 10
-11.2560763889
 20
-10.7143947589
 10
-10.9305555556
 20
-10.2369642033
 10
-10.9305555556
 20
-10.2369642033
 10
-10.4965277778
 20
-9.7031100367
 10
-10.0451388889
 20
-9.2387003144
 10
-9.5720486111
 20
-8.8480753144
 10
-9.0772569444
 20
-8.5268947589
 10
-8.5651041667
 20
-8.2794989256
 10
-8.03125
 20
-8.1015475367
 10
-7.4756944444
 20
-7.9930405922
 10
-6.8984375
 20
-7.95831837
 10
-6.8984375
 20
-7.95831837
 10
-6.3211805556
 20
-7.9930405922
 10
-5.765625
 20
-8.1015475367
 10
-5.2317708333
 20
-8.2794989256
 10
-4.7196180556
 20
-8.5268947589
 10
-4.2248263889
 20
-8.8480753144
 10
-3.7560763889
 20
-9.2387003144
 10
-3.3046875
 20
-9.7031100367
 10
-2.875
 20
-10.2369642033
 10
-2.875
 20
-10.2369642033
 10
-2.5494791667
 20
-10.7187350367
 10
-2.2673611111
 20
-11.2135267033
 10
-2.0286458333
 20
-11.7256794811
 10
-1.8333333333
 20
-12.25519337
 10
-1.6814236111
 20
-12.7977280922
 10
-1.5729166667
 20
-13.3576239256
 10
-1.5078125
 20
-13.93488087
 10
-1.4861111111
 20
-14.5251586478
 10
-1.4861111111
 20
-14.5251586478
 10
-1.5078125
 20
-15.10675587
 10
-1.5685763889
 20
-15.6753322589
 10
-1.6727430556
 20
-16.2265475367
 10
-1.8159722222
 20
-16.7604017033
 10
-2.0026041667
 20
-17.2768947589
 10
-2.2282986111
 20
-17.7803669811
 10
-2.4973958333
 20
-18.2664780922
 10
-2.8055555556
 20
-18.7352280922
 10
-2.8055555556
 20
-18.7352280922
 10
-3.2222222222
 20
-19.2690822589
 10
-3.6692708333
 20
-19.7334919811
 10
-4.1380208333
 20
-20.1241169811
 10
-4.6371527778
 20
-20.4452975367
 10
-5.1623263889
 20
-20.69269337
 10
-5.7135416667
 20
-20.8706447589
 10
-6.2951388889
 20
-20.9791517033
 10
-6.8984375
 20
-21.0138739256
 10
-6.8984375
 20
-21.0138739256
 10
-7.5017361111
 20
-20.9791517033
 10
-8.0833333333
 20
-20.8706447589
 10
-8.6345486111
 20
-20.69269337
 10
-9.1597222222
 20
-20.4452975367
 10
-9.6588541667
 20
-20.1241169811
 10
-10.1319444444
 20
-19.7334919811
 10
-10.5789930556
 20
-19.2690822589
 10
-11.0
 20
-18.7352280922
 10
-11.0
 20
-18.7352280922
 10
-11.2994791667
 20
-18.2794989256
 10
-11.5642361111
 20
-17.7977280922
 10
-11.7899305556
 20
-17.2899155922
 10
-11.9809027778
 20
-16.7560614256
 10
-12.1284722222
 20
-16.2048461478
 10
-12.2326388889
 20
-15.6449503144
 10
-12.2977430556
 20
-15.0807142033
 10
-12.3194444444
 20
-14.5077975367
  0
LWPOLYLINE
  5
7E
330
1F
100
AcDbEntity
  8
0
  6
Continuous
 62
     7
100
AcDbPolyline
 90
       72
 70
   128
 43
0.0
 10
-10.09722054
 20
-14.3385267033
 10
-10.0842013889
 20
-14.9722072589
 10
-10.0407986111
 20
-15.5841864256
 10
-9.9756944444
 20
-16.1701239256
 10
-9.8802083333
 20
-16.7300197589
 10
-9.7586805556
 20
-17.2638739256
 10
-9.6067708333
 20
-17.7760267033
 10
-9.4331597222
 20
-18.2621378144
 10
-9.2291666667
 20
-18.7265475367
 10
-9.2291666667
 20
-18.7265475367
 10
-8.9774305556
 20
-19.1996378144
 10
-8.7126736111
 20
-19.6076239256
 10
-8.4305555556
 20
-19.95050587
 10
-8.1397569444
 20
-20.2326239256
 10
-7.8315972222
 20
-20.4539780922
 10
-7.5104166667
 20
-20.6102280922
 10
-7.1762152778
 20
-20.7057142033
 10
-6.8289930556
 20
-20.7360961478
 10
-6.8289930556
 20
-20.7360961478
 10
-6.5295138889
 20
-20.7100544811
 10
-6.2387152778
 20
-20.6232489256
 10
-5.9479166667
 20
-20.4843600367
 10
-5.6614583333
 20
-20.2890475367
 10
-5.3880208333
 20
-20.0416517033
 10
-5.1319444444
 20
-19.7508530922
 10
-4.8932291667
 20
-19.4166517033
 10
-4.6762152778
 20
-19.0390475367
 10
-4.6762152778
 20
-19.0390475367
 10
-4.4678819444
 20
-18.5963392033
 10
-4.2855902778
 20
-18.1015475367
 10
-4.1206597222
 20
-17.5503322589
 10
-3.9774305556
 20
-16.9513739256
 10
-3.8602430556
 20
-16.3263739256
 10
-3.7734375
 20
-15.7143947589
 10
-3.7256944444
 20
-15.1110961478
 10
-3.7083333333
 20
-14.5164780922
 10
-3.7083333333
 20
-14.5164780922
 10
-3.7256944444
 20
-13.9044989256
 10
-3.7777777778
 20
-13.2925197589
 10
-3.8689236111
 20
-12.6762003144
 10
-3.9947916667
 20
-12.0555405922
 10
-4.1467013889
 20
-11.4565822589
 10
-4.3246527778
 20
-10.8966864256
 10
-4.5286458333
 20
-10.3845336478
 10
-4.7543402778
 20
-9.9157836478
 10
-4.7543402778
 20
-9.9157836478
 10
-4.9887152778
 20
-9.52081837
 10
-5.2361111111
 20
-9.1822767033
 10
-5.5008680556
 20
-8.8914780922
 10
-5.7743055556
 20
-8.6571030922
 10
-6.0607638889
 20
-8.4704711478
 10
-6.3602430556
 20
-8.3402628144
 10
-6.6727430556
 20
-8.2621378144
 10
-6.9982638889
 20
-8.2360961478
 10
-6.9982638889
 20
-8.2360961478
 10
-7.3064236111
 20
-8.2621378144
 10
-7.6059027778
 20
-8.3446030922
 10
-7.8923611111
 20
-8.4834919811
 10
-8.1701388889
 20
-8.6788044811
 10
-8.4392361111
 20
-8.9262003144
 10
-8.6953125
 20
-9.2300197589
 10
-8.9383680556
 20
-9.5902628144
 10
-9.1727430556
 20
-10.0069294811
 10
-9.1727430556
 20
-10.0069294811
 10
-9.3897569444
 20
-10.4626586478
 10
-9.5763888889
 20
-10.9400892033
 10
-9.7369791667
 20
-11.4479017033
 10
-9.8671875
 20
-11.9730753144
 10
-9.9670138889
 20
-12.52863087
 10
-10.0407986111
 20
-13.1058878144
 10
-10.0842013889
 20
-13.7091864256
 10
-10.0972222222
 20
-14.3385267033
  0
LWPOLYLINE
  5
7F
330
1F
100
AcDbEntity
  8
0
  6
Continuous
 62
     7
100
AcDbPolyline
 90
       76
 70
   128
 43
0.0
 10
5.1249973476
 20
-8.2360961478
 10
7.9027777778
 20
-8.2360961478
 10
7.9027777778
 20
-8.2360961478
 10
7.9027777778
 20
-8.7916517033
 10
7.9027777778
 20
-8.7916517033
 10
5.125
 20
-8.7916517033
 10
5.125
 20
-8.7916517033
 10
5.125
 20
-17.4418253144
 10
5.125
 20
-17.4418253144
 10
5.1510416667
 20
-18.1666517033
 10
5.2204861111
 20
-18.77863087
 10
5.3420138889
 20
-19.2821030922
 10
5.5112847222
 20
-19.6727280922
 10
5.5112847222
 20
-19.6727280922
 10
5.75
 20
-20.0025892033
 10
6.0538194444
 20
-20.2499850367
 10
6.4010416667
 20
-20.4062350367
 10
6.7743055556
 20
-20.45831837
 10
6.7743055556
 20
-20.45831837
 10
7.0086805556
 20
-20.4409572589
 10
7.2213541667
 20
-20.3845336478
 10
7.4123263889
 20
-20.2890475367
 10
7.5815972222
 20
-20.1588392033
 10
7.7465277778
 20
-19.9765475367
 10
7.9244791667
 20
-19.7378322589
 10
8.1067708333
 20
-19.4340128144
 10
8.2977430556
 20
-19.0694294811
 10
8.2977430556
 20
-19.0694294811
 10
8.4583333333
 20
-19.3472072589
 10
8.4583333333
 20
-19.3472072589
 10
8.25
 20
-19.7421725367
 10
8.0026041667
 20
-20.0850544811
 10
7.7204861111
 20
-20.3715128144
 10
7.3949652778
 20
-20.6058878144
 10
7.0347222222
 20
-20.7838392033
 10
6.6310763889
 20
-20.9097072589
 10
6.1840277778
 20
-20.9878322589
 10
5.6935763889
 20
-21.0138739256
 10
5.6935763889
 20
-21.0138739256
 10
5.0642361111
 20
-20.9704711478
 10
4.5217013889
 20
-20.8446030922
 10
4.0746527778
 20
-20.6319294811
 10
3.71875
 20
-20.3367905922
 10
3.71875
 20
-20.3367905922
 10
3.5668402778
 20
-20.1501586478
 10
3.4453125
 20
-19.95050587
 10
3.3498263889
 20
-19.7291517033
 10
3.2847222222
 20
-19.4904364256
 10
3.2413194444
 20
-19.1952975367
 10
3.2065972222
 20
-18.8003322589
 10
3.1892361111
 20
-18.3055405922
 10
3.1805555556
 20
-17.7152628144
 10
3.1805555556
 20
-17.7152628144
 10
3.1805555556
 20
-8.7916517033
 10
3.1805555556
 20
-8.7916517033
 10
1.9609375
 20
-8.7916517033
 10
1.9609375
 20
-8.7916517033
 10
1.9609375
 20
-8.5572767033
 10
1.9609375
 20
-8.5572767033
 10
2.3255208333
 20
-8.3663044811
 10
2.6814236111
 20
-8.1058878144
 10
3.0199652778
 20
-7.7760267033
 10
3.3498263889
 20
-7.37238087
 10
3.3498263889
 20
-7.37238087
 10
3.7317708333
 20
-6.8298461478
 10
4.0269097222
 20
-6.2959919811
 10
4.1571180556
 20
-6.0095336478
 10
4.2829861111
 20
-5.6840128144
 10
4.4045138889
 20
-5.3150892033
 10
4.5217013889
 20
-4.91144337
 10
4.5217013889
 20
-4.91144337
 10
4.6475694444
 20
-4.4296725367
 10
4.6475694444
 20
-4.4296725367
 10
5.125
 20
-4.4296725367
 10
5.125
 20
-4.4296725367
 10
5.125
 20
-8.2360961478
  0
LWPOLYLINE
  5
80
330
1F
100
AcDbEntity
  8
0
  6
Continuous
 62
     7
100
AcDbPolyline
 90
      161
 70
   128
 43
0.0
 10
10.09722054
 20
-0.1805405922
 10
10.0972222222
 20
-9.8810614256
 10
10.0972222222
 20
-9.8810614256
 10
10.2925347222
 20
-9.6119642033
 10
10.4748263889
 20
-9.3732489256
 10
10.6440972222
 20
-9.16925587
 10
10.8046875
 20
-8.9956447589
 10
11.1432291667
 20
-8.6961655922
 10
11.546875
 20
-8.4357489256
 10
11.546875
 20
-8.4357489256
 10
11.9765625
 20
-8.2274155922
 10
12.4366319444
 20
-8.07550587
 10
12.9270833333
 20
-7.9887003144
 10
13.4435763889
 20
-7.95831837
 10
13.4435763889
 20
-7.95831837
 10
14.0859375
 20
-8.0017211478
 10
14.671875
 20
-8.1319294811
 10
15.2013888889
 20
-8.34894337
 10
15.6701388889
 20
-8.6527628144
 10
15.6701388889
 20
-8.6527628144
 10
15.9565972222
 20
-8.9262003144
 10
16.1996527778
 20
-9.2256794811
 10
16.3862847222
 20
-9.55988087
 10
16.5295138889
 20
-9.9201239256
 10
16.6336805556
 20
-10.34113087
 10
16.7074652778
 20
-10.8532836478
 10
16.7508680556
 20
-11.4609225367
 10
16.7638888889
 20
-12.1597072589
 10
16.7638888889
 20
-12.1597072589
 10
16.7638888889
 20
-16.4782836478
 10
16.7638888889
 20
-16.4782836478
 10
16.7769097222
 20
-17.6024155922
 10
16.7769097222
 20
-17.6024155922
 10
16.78125
 20
-18.0711655922
 10
16.7986111111
 20
-18.4748114256
 10
16.8289930556
 20
-18.8090128144
 10
16.8680555556
 20
-19.0781100367
 10
17.0069444444
 20
-19.5034572589
 10
17.2282986111
 20
-19.8506794811
 10
17.2282986111
 20
-19.8506794811
 10
17.4279513889
 20
-20.0373114256
 10
17.6927083333
 20
-20.2022419811
 10
18.0269097222
 20
-20.34113087
 10
18.4305555556
 20
-20.45831837
 10
18.4305555556
 20
-20.45831837
 10
18.4305555556
 20
-20.7360961478
 10
18.4305555556
 20
-20.7360961478
 10
13.2092013889
 20
-20.7360961478
 10
13.2092013889
 20
-20.7360961478
 10
13.2092013889
 20
-20.45831837
 10
13.2092013889
 20
-20.45831837
 10
13.4782986111
 20
-20.4018947589
 10
13.7039930556
 20
-20.34113087
 10
13.8862847222
 20
-20.2760267033
 10
14.0295138889
 20
-20.2022419811
 10
14.2638888889
 20
-19.9982489256
 10
14.4722222222
 20
-19.6857489256
 10
14.4722222222
 20
-19.6857489256
 10
14.5633680556
 20
-19.48175587
 10
14.6371527778
 20
-19.2387003144
 10
14.6979166667
 20
-18.9696030922
 10
14.7413194444
 20
-18.66144337
 10
14.7760416667
 20
-18.2968600367
 10
14.8020833333
 20
-17.8541517033
 10
14.8151041667
 20
-17.3376586478
 10
14.8194444444
 20
-16.7430405922
 10
14.8194444444
 20
-16.7430405922
 10
14.8194444444
 20
-11.9513739256
 10
14.8194444444
 20
-11.9513739256
 10
14.8107638889
 20
-11.43488087
 10
14.7890625
 20
-10.9791517033
 10
14.75
 20
-10.57550587
 10
14.6979166667
 20
-10.2326239256
 10
14.5416666667
 20
-9.63800587
 10
14.2986111111
 20
-9.1258530922
 10
14.2986111111
 20
-9.1258530922
 10
13.9904513889
 20
-8.7352280922
 10
13.6302083333
 20
-8.4574503144
 10
13.2092013889
 20
-8.2925197589
 10
12.7317708333
 20
-8.2360961478
 10
12.7317708333
 20
-8.2360961478
 10
12.4105902778
 20
-8.2577975367
 10
12.1154513889
 20
-8.3272419811
 10
11.8376736111
 20
-8.4400892033
 10
11.5772569444
 20
-8.5963392033
 10
11.3428819444
 20
-8.8003322589
 10
11.1258680556
 20
-9.0477280922
 10
10.9305555556
 20
-9.3428669811
 10
10.7569444444
 20
-9.67706837
 10
10.6006944444
 20
-10.0633530922
 10
10.4661458333
 20
-10.4930405922
 10
10.3532986111
 20
-10.96613087
 10
10.2621527778
 20
-11.4826239256
 10
10.1883680556
 20
-12.0468600367
 10
10.1362847222
 20
-12.6544989256
 10
10.1059027778
 20
-13.30988087
 10
10.0972222222
 20
-14.0086655922
 10
10.0972222222
 20
-14.0086655922
 10
10.0972222222
 20
-16.4262003144
 10
10.0972222222
 20
-16.4262003144
 10
10.1102430556
 20
-17.5416517033
 10
10.1102430556
 20
-17.5416517033
 10
10.1145833333
 20
-18.0234225367
 10
10.1319444444
 20
-18.4314086478
 10
10.1579861111
 20
-18.7742905922
 10
10.1970486111
 20
-19.0477280922
 10
10.3229166667
 20
-19.48175587
 10
10.53125
 20
-19.8376586478
 10
10.53125
 20
-19.8376586478
 10
10.7135416667
 20
-20.02863087
 10
10.9652777778
 20
-20.1979017033
 10
11.2734375
 20
-20.34113087
 10
11.6510416667
 20
-20.45831837
 10
11.6510416667
 20
-20.45831837
 10
11.6510416667
 20
-20.7360961478
 10
11.6510416667
 20
-20.7360961478
 10
6.4861111111
 20
-20.7360961478
 10
6.4861111111
 20
-20.7360961478
 10
6.4861111111
 20
-20.45831837
 10
6.4861111111
 20
-20.45831837
 10
6.7986111111
 20
-20.3932142033
 10
7.0677083333
 20
-20.3150892033
 10
7.2847222222
 20
-20.2282836478
 10
7.4539930556
 20
-20.1284572589
 10
7.5928819444
 20
-20.0025892033
 10
7.71875
 20
-19.8419989256
 10
7.8315972222
 20
-19.6423461478
 10
7.9270833333
 20
-19.40363087
 10
7.9270833333
 20
-19.40363087
 10
7.9835069444
 20
-19.2126586478
 10
8.0355902778
 20
-18.9826239256
 10
8.0703125
 20
-18.7048461478
 10
8.1006944444
 20
-18.38800587
 10
8.1223958333
 20
-18.0104017033
 10
8.1397569444
 20
-17.5546725367
 10
8.1484375
 20
-17.0251586478
 10
8.1527777778
 20
-16.4175197589
 10
8.1527777778
 20
-16.4175197589
 10
8.1527777778
 20
-4.9244642033
 10
8.1527777778
 20
-4.9244642033
 10
8.1484375
 20
-4.2343600367
 10
8.1397569444
 20
-3.6484225367
 10
8.1180555556
 20
-3.1796725367
 10
8.0920138889
 20
-2.8150892033
 10
8.0529513889
 20
-2.5199503144
 10
7.9965277778
 20
-2.2595336478
 10
7.9184027778
 20
-2.0251586478
 10
7.8229166667
 20
-1.8211655922
 10
7.8229166667
 20
-1.8211655922
 10
7.7144097222
 20
-1.63019337
 10
7.5972222222
 20
-1.4696030922
 10
7.4670138889
 20
-1.3350544811
 10
7.3237847222
 20
-1.2352280922
 10
7.1631944444
 20
-1.1527628144
 10
6.9678819444
 20
-1.0919989256
 10
6.7421875
 20
-1.04425587
 10
6.4861111111
 20
-1.0138739256
 10
6.4861111111
 20
-1.0138739256
 10
6.4861111111
 20
-0.7360961478
 10
6.4861111111
 20
-0.7360961478
 10
10.0972222222
 20
-0.1805405922
  0
LWPOLYLINE
  5
81
330
1F
100
AcDbEntity
  8
0
  6
Continuous
 62
     7
100
AcDbPolyline
 90
      112
 70
   128
 43
0.0
 10
19.513875246
 20
-12.6805405922
 10
19.5138888889
 20
-13.0234225367
 10
19.5138888889
 20
-13.3142211478
 10
19.5138888889
 20
-13.5572767033
 10
19.5138888889
 20
-13.7482489256
 10
19.5138888889
 20
-13.7482489256
 10
19.53125
 20
-14.3992905922
 10
19.5833333333
 20
-15.0416517033
 10
19.6657986111
 20
-15.6753322589
 10
19.7873263889
 20
-16.3046725367
 10
19.9392361111
 20
-16.8992905922
 10
20.1171875
 20
-17.4461655922
 10
20.3168402778
 20
-17.9366169811
 10
20.5425347222
 20
-18.3749850367
 10
20.5425347222
 20
-18.3749850367
 10
20.7986111111
 20
-18.7742905922
 10
21.0850694444
 20
-19.1258530922
 10
21.4019097222
 20
-19.4340128144
 10
21.7447916667
 20
-19.6987697589
 10
22.109375
 20
-19.91144337
 10
22.4826388889
 20
-20.0590128144
 10
22.8645833333
 20
-20.1501586478
 10
23.2552083333
 20
-20.1805405922
 10
23.2552083333
 20
-20.1805405922
 10
23.5416666667
 20
-20.1631794811
 10
23.8237847222
 20
-20.1110961478
 10
24.0972222222
 20
-20.0242905922
 10
24.3619791667
 20
-19.9027628144
 10
24.6137152778
 20
-19.7508530922
 10
24.84375
 20
-19.5685614256
 10
25.0477430556
 20
-19.36456837
 10
25.234375
 20
-19.13019337
 10
25.234375
 20
-19.13019337
 10
25.4210069444
 20
-18.8220336478
 10
25.5946180556
 20
-18.42706837
 10
25.7552083333
 20
-17.95831837
 10
25.9027777778
 20
-17.4027628144
 10
25.9027777778
 20
-17.4027628144
 10
26.1805555556
 20
-17.5069294811
 10
26.1805555556
 20
-17.5069294811
 10
26.0980902778
 20
-17.9279364256
 10
25.9895833333
 20
-18.3229017033
 10
25.8637152778
 20
-18.6918253144
 10
25.7161458333
 20
-19.0347072589
 10
25.546875
 20
-19.3472072589
 10
25.3559027778
 20
-19.63800587
 10
25.1475694444
 20
-19.8984225367
 10
24.9131944444
 20
-20.1327975367
 10
24.6614583333
 20
-20.34113087
 10
24.3880208333
 20
-20.5190822589
 10
24.0972222222
 20
-20.6709919811
 10
23.7847222222
 20
-20.7925197589
 10
23.4505208333
 20
-20.88800587
 10
23.0989583333
 20
-20.9574503144
 10
22.7256944444
 20
-21.0008530922
 10
22.3350694444
 20
-21.0138739256
 10
22.3350694444
 20
-21.0138739256
 10
21.6623263889
 20
-20.9791517033
 10
21.0416666667
 20
-20.8706447589
 10
20.46875
 20
-20.6883530922
 10
19.9435763889
 20
-20.4366169811
 10
19.4618055556
 20
-20.1110961478
 10
19.0234375
 20
-19.7031100367
 10
18.6197916667
 20
-19.2213392033
 10
18.2552083333
 20
-18.66144337
 10
18.2552083333
 20
-18.66144337
 10
18.0295138889
 20
-18.23175587
 10
17.8342013889
 20
-17.7760267033
 10
17.6692708333
 20
-17.2985961478
 10
17.5347222222
 20
-16.7994642033
 10
17.4262152778
 20
-16.2742905922
 10
17.3524305556
 20
-15.7230753144
 10
17.3046875
 20
-15.1501586478
 10
17.2916666667
 20
-14.5512003144
 10
17.2916666667
 20
-14.5512003144
 10
17.3220486111
 20
-13.7439086478
 10
17.4045138889
 20
-12.9800197589
 10
17.5477430556
 20
-12.2595336478
 10
17.7473958333
 20
-11.5824503144
 10
17.9991319444
 20
-10.9531100367
 10
18.3116319444
 20
-10.3715128144
 10
18.6805555556
 20
-9.8289780922
 10
19.1059027778
 20
-9.3341864256
 10
19.1059027778
 20
-9.3341864256
 10
19.4401041667
 20
-9.01300587
 10
19.7873263889
 20
-8.7308878144
 10
20.1475694444
 20
-8.4965128144
 10
20.5164930556
 20
-8.3012003144
 10
20.8984375
 20
-8.15363087
 10
21.2934027778
 20
-8.0451239256
 10
21.6970486111
 20
-7.9800197589
 10
22.1137152778
 20
-7.95831837
 10
22.1137152778
 20
-7.95831837
 10
22.5564236111
 20
-7.9843600367
 10
22.9817708333
 20
-8.0624850367
 10
23.3897569444
 20
-8.1970336478
 10
23.7803819444
 20
-8.3793253144
 10
24.1493055556
 20
-8.6093600367
 10
24.4878472222
 20
-8.8914780922
 10
24.8003472222
 20
-9.2169989256
 10
25.078125
 20
-9.5902628144
 10
25.078125
 20
-9.5902628144
 10
25.2734375
 20
-9.9071030922
 10
25.4383680556
 20
-10.2456447589
 10
25.5815972222
 20
-10.6058878144
 10
25.6987847222
 20
-10.9791517033
 10
25.7855902778
 20
-11.3784572589
 10
25.8506944444
 20
-11.7907836478
 10
25.8897569444
 20
-12.2248114256
 10
25.9027777778
 20
-12.6805405922
 10
25.9027777778
 20
-12.6805405922
 10
19.5138888889
 20
-12.6805405922
  0
LWPOLYLINE
  5
82
330
1F
100
AcDbEntity
  8
0
  6
Continuous
 62
     7
100
AcDbPolyline
 90
       29
 70
   128
 43
0.0
 10
23.958325386
 20
-12.1249850367
 10
23.9105902778
 20
-11.4175197589
 10
23.828125
 20
-10.8012003144
 10
23.7196180556
 20
-10.2673461478
 10
23.5807291667
 20
-9.8202975367
 10
23.5807291667
 20
-9.8202975367
 10
23.4331597222
 20
-9.4730753144
 10
23.2638888889
 20
-9.1649155922
 10
23.0685763889
 20
-8.8914780922
 10
22.8515625
 20
-8.66144337
 10
22.6215277778
 20
-8.4748114256
 10
22.3828125
 20
-8.3402628144
 10
22.1354166667
 20
-8.2621378144
 10
21.8793402778
 20
-8.2360961478
 10
21.8793402778
 20
-8.2360961478
 10
21.6666666667
 20
-8.2534572589
 10
21.4583333333
 20
-8.3055405922
 10
21.2543402778
 20
-8.3923461478
 10
21.0633680556
 20
-8.5138739256
 10
20.8723958333
 20
-8.6701239256
 10
20.6944444444
 20
-8.85675587
 10
20.5208333333
 20
-9.0824503144
 10
20.3515625
 20
-9.3428669811
 10
20.0564236111
 20
-9.9331447589
 10
19.8307291667
 20
-10.5928669811
 10
19.6701388889
 20
-11.3220336478
 10
19.5746527778
 20
-12.1249850367
 10
19.5746527778
 20
-12.1249850367
 10
23.9583333333
 20
-12.1249850367
  0
LWPOLYLINE
  5
83
330
1F
100
AcDbEntity
  8
0
  6
Continuous
 62
     7
100
AcDbPolyline
 90
       12
 70
   128
 43
0.0
 10
-42.2430336475
 20
-39.0574862421
 10
-42.2430555556
 20
-42.0501077698
 10
-42.2430555556
 20
-42.0501077698
 10
-56.3630642361
 20
-74.0574862421
 10
-56.3630642361
 20
-74.0574862421
 10
-67.5208333333
 20
-74.0574862421
 10
-67.5208333333
 20
-74.0574862421
 10
-67.5208333333
 20
-71.5357848532
 10
-67.5208333333
 20
-71.5357848532
 10
-53.34765625
 20
-39.0574862421
 10
-53.34765625
 20
-39.0574862421
 10
-42.2430555556
 20
-39.0574862421
  0
LWPOLYLINE
  5
84
330
1F
100
AcDbEntity
  8
0
  6
Continuous
 62
     7
100
AcDbPolyline
 90
       36
 70
   128
 43
0.0
 10
-66.5485858917
 20
-39.0574862421
 10
-55.4212239583
 20
-39.0574862421
 10
-55.4212239583
 20
-39.0574862421
 10
-56.7048611111
 20
-42.0273213115
 10
-56.7048611111
 20
-42.0273213115
 10
-57.7682291667
 20
-42.2323994365
 10
-58.7936197917
 20
-42.5666008254
 10
-59.7658420139
 20
-43.0375209643
 10
-60.7000868056
 20
-43.6299688809
 10
-60.7000868056
 20
-43.6299688809
 10
-61.2545572917
 20
-44.0629115893
 10
-61.7634548611
 20
-44.5414272143
 10
-62.2267795139
 20
-45.0655157559
 10
-62.64453125
 20
-45.6351772143
 10
-63.0167100694
 20
-46.2428161032
 10
-63.3433159722
 20
-46.8960279087
 10
-63.6243489583
 20
-47.5948126309
 10
-63.8598090278
 20
-48.3315747837
 10
-63.8598090278
 20
-48.3315747837
 10
-63.9661458333
 20
-48.6961581171
 10
-64.0876736111
 20
-49.0075730476
 10
-64.2243923611
 20
-49.2506286032
 10
-64.3763020833
 20
-49.4405157559
 10
-64.7408854167
 20
-49.6759758254
 10
-65.2421875
 20
-49.7519306865
 10
-65.2421875
 20
-49.7519306865
 10
-65.5460069444
 20
-49.7291442282
 10
-65.8118489583
 20
-49.6607848532
 10
-66.0397135417
 20
-49.5468525615
 10
-66.2220052083
 20
-49.3797518671
 10
-66.3663194444
 20
-49.1746737421
 10
-66.4650607639
 20
-48.9164272143
 10
-66.5258246528
 20
-48.6202032559
 10
-66.5486111111
 20
-48.2708108948
 10
-66.5486111111
 20
-48.2708108948
 10
-66.5486111111
 20
-39.0574862421
  0
LWPOLYLINE
  5
85
330
1F
100
AcDbEntity
  8
0
  6
Continuous
 62
     7
100
AcDbPolyline
 90
       36
 70
   128
 43
0.0
 10
-42.2430336475
 20
-74.0574862421
 10
-54.236328125
 20
-74.0574862421
 10
-54.236328125
 20
-74.0574862421
 10
-53.0894097222
 20
-71.4370435337
 10
-53.0894097222
 20
-71.4370435337
 10
-51.6234809028
 20
-71.0420782559
 10
-50.3702256944
 20
-70.6167310337
 10
-49.3372395833
 20
-70.1685973532
 10
-48.5245225694
 20
-69.6824862421
 10
-48.5245225694
 20
-69.6824862421
 10
-47.947265625
 20
-69.2343525615
 10
-47.4307725694
 20
-68.7482414504
 10
-46.9750434028
 20
-68.2393438809
 10
-46.580078125
 20
-67.6924688809
 10
-46.2003038194
 20
-67.0620435337
 10
-45.8129340278
 20
-66.2873039504
 10
-45.41796875
 20
-65.3758456171
 10
-45.0154079861
 20
-64.3200730476
 10
-45.0154079861
 20
-64.3200730476
 10
-44.8634982639
 20
-63.9327032559
 10
-44.7039930556
 20
-63.6136928393
 10
-44.5596788194
 20
-63.3630417976
 10
-44.4077690972
 20
-63.1807501309
 10
-44.0583767361
 20
-62.9528855476
 10
-43.6026475694
 20
-62.8769306865
 10
-43.6026475694
 20
-62.8769306865
 10
-43.2912326389
 20
-62.9073126309
 10
-43.0177951389
 20
-62.9908629782
 10
-42.7823350694
 20
-63.1427727004
 10
-42.5924479167
 20
-63.3478508254
 10
-42.4405381944
 20
-63.6060973532
 10
-42.3266059028
 20
-63.9251077698
 10
-42.2658420139
 20
-64.2896911032
 10
-42.2430555556
 20
-64.7074428393
 10
-42.2430555556
 20
-64.7074428393
 10
-42.2430555556
 20
-74.0574862421
  0
LWPOLYLINE
  5
86
330
1F
100
AcDbEntity
  8
0
  6
Continuous
 62
     7
100
AcDbPolyline
 90
       61
 70
   128
 43
0.0
 10
-22.0208317041
 20
-41.1614358948
 10
-22.6360677083
 20
-41.4196824226
 10
-23.1525607639
 20
-41.7159063809
 10
-23.5779079861
 20
-42.0577032559
 10
-23.9045138889
 20
-42.4374775615
 10
-24.1399739583
 20
-42.8856112421
 10
-24.3146701389
 20
-43.4324862421
 10
-24.4134114583
 20
-44.0705070754
 10
-24.4513888889
 20
-44.8072692282
 10
-24.4513888889
 20
-44.8072692282
 10
-24.4513888889
 20
-67.6772779087
 10
-24.4513888889
 20
-67.6772779087
 10
-24.4134114583
 20
-68.7178595059
 10
-24.2918836806
 20
-69.5913404087
 10
-24.0944010417
 20
-70.3053161032
 10
-23.8209635417
 20
-70.8445956171
 10
-23.8209635417
 20
-70.8445956171
 10
-23.5247395833
 20
-71.1939879782
 10
-23.1221788194
 20
-71.4978074226
 10
-22.6208767361
 20
-71.7408629782
 10
-22.0208333333
 20
-71.9383456171
 10
-22.0208333333
 20
-71.9383456171
 10
-22.0208333333
 20
-74.7410799921
 10
-22.0208333333
 20
-74.7410799921
 10
-23.4184027778
 20
-74.5739792976
 10
-24.7628038194
 20
-74.3005417976
 10
-26.0464409722
 20
-73.9207674921
 10
-27.2693142361
 20
-73.4346563809
 10
-28.4390190972
 20
-72.8498039504
 10
-29.5479600694
 20
-72.1586147143
 10
-30.5961371528
 20
-71.3610886726
 10
-31.5911458333
 20
-70.4572258254
 10
-31.5911458333
 20
-70.4572258254
 10
-32.7684461806
 20
-69.1508022143
 10
-33.7862413194
 20
-67.7304463115
 10
-34.64453125
 20
-66.1809671448
 10
-35.3509114583
 20
-64.5099602004
 10
-35.8977864583
 20
-62.7174254782
 10
-36.2927517361
 20
-60.7957674921
 10
-36.5282118056
 20
-58.7601772143
 10
-36.6041666667
 20
-56.5954636726
 10
-36.6041666667
 20
-56.5954636726
 10
-36.5206163194
 20
-54.4155591587
 10
-36.2699652778
 20
-52.3419914504
 10
-35.8598090278
 20
-50.3823560337
 10
-35.2825520833
 20
-48.5290574226
 10
-34.5381944444
 20
-46.7972865893
 10
-33.6343315972
 20
-45.2022345059
 10
-32.5785590278
 20
-43.7363056865
 10
-31.3556857639
 20
-42.4146911032
 10
-31.3556857639
 20
-42.4146911032
 10
-30.3454861111
 20
-41.5108282559
 10
-29.2973090278
 20
-40.7208977004
 10
-28.2111545139
 20
-40.0524949226
 10
-27.0870225694
 20
-39.4980244365
 10
-25.9097222222
 20
-39.0498907559
 10
-24.6792534722
 20
-38.7156893671
 10
-23.3804253472
 20
-38.4878247837
 10
-22.0208333333
 20
-38.3662970059
 10
-22.0208333333
 20
-38.3662970059
 10
-22.0208333333
 20
-41.1614358948
  0
LWPOLYLINE
  5
87
330
1F
100
AcDbEntity
  8
0
  6
Continuous
 62
     7
100
AcDbPolyline
 90
       62
 70
   128
 43
0.0
 10
-20.07637918
 20
-41.1614358948
 10
-20.0763888889
 20
-38.3662970059
 10
-20.0763888889
 20
-38.3662970059
 10
-18.716796875
 20
-38.4878247837
 10
-17.4255642361
 20
-38.7156893671
 10
-16.1875
 20
-39.0498907559
 10
-15.0101996528
 20
-39.4980244365
 10
-13.8784722222
 20
-40.0524949226
 10
-12.7923177083
 20
-40.7208977004
 10
-11.744140625
 20
-41.5108282559
 10
-10.7339409722
 20
-42.4146911032
 10
-10.7339409722
 20
-42.4146911032
 10
-9.5034722222
 20
-43.7514966587
 10
-8.4401041667
 20
-45.2174254782
 10
-7.5438368056
 20
-46.8048820754
 10
-6.7994791667
 20
-48.5138664504
 10
-6.2298177083
 20
-50.3443786032
 10
-5.8196614583
 20
-52.3040140198
 10
-5.5766059028
 20
-54.3851772143
 10
-5.4930555556
 20
-56.5954636726
 10
-5.4930555556
 20
-56.5954636726
 10
-5.5690104167
 20
-58.7601772143
 10
-5.8044704861
 20
-60.7957674921
 10
-6.1994357639
 20
-62.7174254782
 10
-6.7463107639
 20
-64.5099602004
 10
-7.4450954861
 20
-66.1809671448
 10
-8.3109809028
 20
-67.7304463115
 10
-9.3287760417
 20
-69.1508022143
 10
-10.4984809028
 20
-70.4572258254
 10
-10.4984809028
 20
-70.4572258254
 10
-11.4934895833
 20
-71.3686841587
 10
-12.5416666667
 20
-72.1662102004
 10
-13.6506076389
 20
-72.8649949226
 10
-14.8203125
 20
-73.4498473532
 10
-16.0431857639
 20
-73.9359584643
 10
-17.3268229167
 20
-74.3081372837
 10
-18.6712239583
 20
-74.5815747837
 10
-20.0763888889
 20
-74.7410799921
 10
-20.0763888889
 20
-74.7410799921
 10
-20.0763888889
 20
-71.9383456171
 10
-20.0763888889
 20
-71.9383456171
 10
-19.4763454861
 20
-71.7636494365
 10
-19.0282118056
 20
-71.5433803393
 10
-18.6712239583
 20
-71.2471563809
 10
-18.3446180556
 20
-70.8445956171
 10
-18.3446180556
 20
-70.8445956171
 10
-18.0407986111
 20
-70.2521477004
 10
-17.8205295139
 20
-69.5305765198
 10
-17.69140625
 20
-68.6722865893
 10
-17.6458333333
 20
-67.6772779087
 10
-17.6458333333
 20
-67.6772779087
 10
-17.6458333333
 20
-44.8072692282
 10
-17.6458333333
 20
-44.8072692282
 10
-17.6762152778
 20
-44.1540574226
 10
-17.759765625
 20
-43.5692049921
 10
-17.9040798611
 20
-43.0603074226
 10
-18.1091579861
 20
-42.6197692282
 10
-18.1091579861
 20
-42.6197692282
 10
-18.4509548611
 20
-42.1336581171
 10
-18.8459201389
 20
-41.7614792976
 10
-19.3624131944
 20
-41.4576598532
 10
-20.0763888889
 20
-41.1614358948
  0
LWPOLYLINE
  5
88
330
1F
100
AcDbEntity
  8
0
  6
Continuous
 62
     7
100
AcDbPolyline
 90
       34
 70
   128
 43
0.0
 10
15.6785994768
 20
-39.0574862421
 10
29.3125
 20
-62.8085713115
 10
29.3125
 20
-62.8085713115
 10
29.3125
 20
-74.0574862421
 10
29.3125
 20
-74.0574862421
 10
22.3170572917
 20
-74.0574862421
 10
22.3170572917
 20
-74.0574862421
 10
4.8094618056
 20
-44.0553161032
 10
4.8094618056
 20
-44.0553161032
 10
4.5360243056
 20
-43.6071824226
 10
4.29296875
 20
-43.2274081171
 10
4.0726996528
 20
-42.9311841587
 10
3.8752170139
 20
-42.7033195754
 10
3.4650607639
 20
-42.3691181865
 10
2.9485677083
 20
-42.1336581171
 10
2.9485677083
 20
-42.1336581171
 10
1.96875
 20
-41.7766702698
 10
1.96875
 20
-41.7766702698
 10
1.6193576389
 20
-41.5943786032
 10
1.3459201389
 20
-41.3133456171
 10
1.1788194444
 20
-40.9563577698
 10
1.1180555556
 20
-40.5689879782
 10
1.1180555556
 20
-40.5689879782
 10
1.1788194444
 20
-40.1512362421
 10
1.353515625
 20
-39.7638664504
 10
1.6345486111
 20
-39.4448560337
 10
1.9991319444
 20
-39.2397779087
 10
1.9991319444
 20
-39.2397779087
 10
2.3181423611
 20
-39.1562275615
 10
2.8346354167
 20
-39.1030591587
 10
3.541015625
 20
-39.0650817282
 10
4.4448784722
 20
-39.0574862421
 10
4.4448784722
 20
-39.0574862421
 10
15.6786024306
 20
-39.0574862421
  0
LWPOLYLINE
  5
89
330
1F
100
AcDbEntity
  8
0
  6
Continuous
 62
     7
100
AcDbPolyline
 90
       59
 70
   128
 43
0.0
 10
5.006942898
 20
-48.1948560337
 10
7.9236111111
 20
-52.6837883254
 10
7.9236111111
 20
-52.6837883254
 10
7.9236111111
 20
-66.3556633254
 10
7.9236111111
 20
-66.3556633254
 10
7.9615885417
 20
-67.2063577698
 10
8.0755208333
 20
-67.9810973532
 10
8.2578125
 20
-68.6722865893
 10
8.5160590278
 20
-69.2875209643
 10
8.8578559028
 20
-69.8343959643
 10
9.283203125
 20
-70.3356980476
 10
9.7996961806
 20
-70.7838317282
 10
10.3997395833
 20
-71.1787970059
 10
10.3997395833
 20
-71.1787970059
 10
11.1592881944
 20
-71.6117397143
 10
11.1592881944
 20
-71.6117397143
 10
11.4479166667
 20
-71.8244133254
 10
11.6529947917
 20
-72.0902553393
 10
11.7745225694
 20
-72.4016702698
 10
11.8125
 20
-72.7586581171
 10
11.8125
 20
-72.7586581171
 10
11.7821180556
 20
-73.0396911032
 10
11.6985677083
 20
-73.2903421448
 10
11.5466579861
 20
-73.5182067282
 10
11.3415798611
 20
-73.7232848532
 10
11.3415798611
 20
-73.7232848532
 10
11.0909288194
 20
-73.8675990893
 10
10.7263454861
 20
-73.9739358948
 10
10.2630208333
 20
-74.0346997837
 10
9.693359375
 20
-74.0574862421
 10
9.693359375
 20
-74.0574862421
 10
3.5713975694
 20
-74.0574862421
 10
3.5713975694
 20
-74.0574862421
 10
2.994140625
 20
-74.0346997837
 10
2.5004340278
 20
-73.9739358948
 10
2.0750868056
 20
-73.8675990893
 10
1.7332899306
 20
-73.7232848532
 10
1.4598524306
 20
-73.5409931865
 10
1.2699652778
 20
-73.3131286032
 10
1.1560329861
 20
-73.0396911032
 10
1.1180555556
 20
-72.7282761726
 10
1.1180555556
 20
-72.7282761726
 10
1.1788194444
 20
-72.3181199226
 10
1.3687065972
 20
-72.0067049921
 10
1.5282118056
 20
-71.8547952698
 10
1.7712673611
 20
-71.6876945754
 10
2.0826822917
 20
-71.4902119365
 10
2.4700520833
 20
-71.2775383254
 10
2.4700520833
 20
-71.2775383254
 10
3.0625
 20
-70.9053595059
 10
3.5789930556
 20
-70.4648213115
 10
4.01953125
 20
-69.9483282559
 10
4.3765190972
 20
-69.3710713115
 10
4.6499565972
 20
-68.7178595059
 10
4.8474392361
 20
-68.0038838115
 10
4.9689670139
 20
-67.2139532559
 10
5.0069444444
 20
-66.3556633254
 10
5.0069444444
 20
-66.3556633254
 10
5.0069444444
 20
-48.1948560337
  0
LWPOLYLINE
  5
8A
330
1F
100
AcDbEntity
  8
0
  6
Continuous
 62
     7
100
AcDbPolyline
 90
       58
 70
   128
 43
0.0
 10
29.3124914169
 20
-58.7297952698
 10
26.3958333333
 20
-54.1573126309
 10
26.3958333333
 20
-54.1573126309
 10
26.3958333333
 20
-47.0783195754
 10
26.3958333333
 20
-47.0783195754
 10
26.3578559028
 20
-46.0453334643
 10
26.236328125
 20
-45.1490661032
 10
26.03125
 20
-44.3743265198
 10
25.7502170139
 20
-43.7363056865
 10
25.3628472222
 20
-43.1742397143
 10
24.8615451389
 20
-42.6577466587
 10
24.2311197917
 20
-42.1792310337
 10
23.4791666667
 20
-41.7386928393
 10
23.4791666667
 20
-41.7386928393
 10
23.0082465278
 20
-41.4728508254
 10
22.7120225694
 20
-41.1842223532
 10
22.5601128472
 20
-40.8348299921
 10
22.5069444444
 20
-40.4094827698
 10
22.5069444444
 20
-40.4094827698
 10
22.5373263889
 20
-40.0828768671
 10
22.6284722222
 20
-39.8018438809
 10
22.7727864583
 20
-39.5739792976
 10
22.9778645833
 20
-39.3840921448
 10
23.2513020833
 20
-39.2397779087
 10
23.5930989583
 20
-39.1410365893
 10
24.0108506944
 20
-39.0802727004
 10
24.4969618056
 20
-39.0574862421
 10
24.4969618056
 20
-39.0574862421
 10
31.1050347222
 20
-39.0574862421
 10
31.1050347222
 20
-39.0574862421
 10
31.6898871528
 20
-39.0802727004
 10
32.1608072917
 20
-39.1638230476
 10
32.525390625
 20
-39.2929463115
 10
32.7760416667
 20
-39.4752379782
 10
32.7760416667
 20
-39.4752379782
 10
32.9659288194
 20
-39.6955070754
 10
33.0950520833
 20
-39.9309671448
 10
33.1786024306
 20
-40.1892136726
 10
33.2013888889
 20
-40.4626511726
 10
33.2013888889
 20
-40.4626511726
 10
33.140625
 20
-40.9411667976
 10
32.9583333333
 20
-41.2829636726
 10
32.798828125
 20
-41.4348733948
 10
32.5557725694
 20
-41.6019740893
 10
32.2215711806
 20
-41.8070522143
 10
31.8114149306
 20
-42.0273213115
 10
31.8114149306
 20
-42.0273213115
 10
31.1809895833
 20
-42.4222865893
 10
30.6417100694
 20
-42.9159931865
 10
30.1707899306
 20
-43.5008456171
 10
29.791015625
 20
-44.1844393671
 10
29.791015625
 20
-44.1844393671
 10
29.5783420139
 20
-44.7692917976
 10
29.4340277778
 20
-45.4452900615
 10
29.3428819444
 20
-46.2124341587
 10
29.3125
 20
-47.0783195754
 10
29.3125
 20
-47.0783195754
 10
29.3125
 20
-58.7297952698
  0
LWPOLYLINE
  5
8B
330
1F
100
AcDbEntity
  8
0
  6
Continuous
 62
     7
100
AcDbPolyline
 90
       64
 70
   128
 43
0.0
 10
53.9097189903
 20
-39.0574862421
 10
53.9097222222
 20
-74.0574862421
 10
53.9097222222
 20
-74.0574862421
 10
42.7063802083
 20
-74.0574862421
 10
42.7063802083
 20
-74.0574862421
 10
42.0379774306
 20
-74.0574862421
 10
42.0379774306
 20
-74.0574862421
 10
41.6430121528
 20
-74.0346997837
 10
41.3012152778
 20
-73.9739358948
 10
40.9973958333
 20
-73.8675990893
 10
40.7467447917
 20
-73.7156893671
 10
40.5492621528
 20
-73.5258022143
 10
40.4125434028
 20
-73.2903421448
 10
40.3289930556
 20
-73.0320956171
 10
40.2986111111
 20
-72.7282761726
 10
40.2986111111
 20
-72.7282761726
 10
40.359375
 20
-72.2497605476
 10
40.5340711806
 20
-71.8623907559
 10
40.8302951389
 20
-71.5661667976
 10
41.248046875
 20
-71.3534931865
 10
41.248046875
 20
-71.3534931865
 10
41.6050347222
 20
-71.2243699226
 10
41.8708767361
 20
-71.1256286032
 10
42.0607638889
 20
-71.0572692282
 10
42.1671006944
 20
-71.0116963115
 10
42.3038194444
 20
-70.9053595059
 10
42.4405381944
 20
-70.7154723532
 10
42.4405381944
 20
-70.7154723532
 10
42.5696614583
 20
-70.4800122837
 10
42.6608072917
 20
-70.1837883254
 10
42.7139756944
 20
-69.8343959643
 10
42.7291666667
 20
-69.4166442282
 10
42.7291666667
 20
-69.4166442282
 10
42.7291666667
 20
-43.7894740893
 10
42.7291666667
 20
-43.7894740893
 10
42.7139756944
 20
-43.3641268671
 10
42.6608072917
 20
-42.9995435337
 10
42.5696614583
 20
-42.7033195754
 10
42.4405381944
 20
-42.4602640198
 10
42.4405381944
 20
-42.4602640198
 10
42.3038194444
 20
-42.2703768671
 10
42.1671006944
 20
-42.1640400615
 10
42.0607638889
 20
-42.1184671448
 10
41.8708767361
 20
-42.0425122837
 10
41.6050347222
 20
-41.9437709643
 10
41.248046875
 20
-41.8146477004
 10
41.248046875
 20
-41.8146477004
 10
40.8302951389
 20
-41.6019740893
 10
40.5340711806
 20
-41.2905591587
 10
40.359375
 20
-40.8955938809
 10
40.2986111111
 20
-40.4094827698
 10
40.2986111111
 20
-40.4094827698
 10
40.3289930556
 20
-40.0980678393
 10
40.4125434028
 20
-39.8322258254
 10
40.5492621528
 20
-39.5967657559
 10
40.7467447917
 20
-39.4068786032
 10
40.9973958333
 20
-39.2549688809
 10
41.3012152778
 20
-39.1410365893
 10
41.6430121528
 20
-39.0802727004
 10
42.0379774306
 20
-39.0574862421
 10
42.0379774306
 20
-39.0574862421
 10
42.7063802083
 20
-39.0574862421
 10
42.7063802083
 20
-39.0574862421
 10
53.9097222222
 20
-39.0574862421
  0
LWPOLYLINE
  5
8C
330
1F
100
AcDbEntity
  8
0
  6
Continuous
 62
     7
100
AcDbPolyline
 90
       31
 70
   128
 43
0.0
 10
56.340277195
 20
-39.0574862421
 10
66.5486111111
 20
-39.0574862421
 10
66.5486111111
 20
-39.0574862421
 10
66.5486111111
 20
-48.2708108948
 10
66.5486111111
 20
-48.2708108948
 10
66.5334201389
 20
-48.6353942282
 10
66.47265625
 20
-48.9392136726
 10
66.3815104167
 20
-49.1974602004
 10
66.2447916667
 20
-49.4025383254
 10
66.0700954861
 20
-49.5544480476
 10
65.8498263889
 20
-49.6607848532
 10
65.5915798611
 20
-49.7291442282
 10
65.2801649306
 20
-49.7519306865
 10
65.2801649306
 20
-49.7519306865
 10
64.8016493056
 20
-49.6911667976
 10
64.4674479167
 20
-49.5240661032
 10
64.3459201389
 20
-49.3721563809
 10
64.2243923611
 20
-49.1670782559
 10
64.1028645833
 20
-48.8936407559
 10
63.9889322917
 20
-48.5670348532
 10
63.9889322917
 20
-48.5670348532
 10
63.4496527778
 20
-47.1542744365
 10
62.8040364583
 20
-45.9238056865
 10
62.0368923611
 20
-44.8680331171
 10
61.1634114583
 20
-43.9945522143
 10
60.1608072917
 20
-43.2805765198
 10
59.0290798611
 20
-42.7337015198
 10
57.7530381944
 20
-42.3387362421
 10
56.3402777778
 20
-42.1032761726
 10
56.3402777778
 20
-42.1032761726
 10
56.3402777778
 20
-39.0574862421
  0
LWPOLYLINE
  5
8D
330
1F
100
AcDbEntity
  8
0
  6
Continuous
 62
     7
100
AcDbPolyline
 90
       57
 70
   128
 43
0.0
 10
56.340277195
 20
-57.8107414504
 10
56.3402777778
 20
-54.8560973532
 10
56.3402777778
 20
-54.8560973532
 10
57.0086805556
 20
-54.4839185337
 10
57.5935329861
 20
-54.1041442282
 10
58.0720486111
 20
-53.7015834643
 10
58.4670138889
 20
-53.2838317282
 10
58.7860243056
 20
-52.8205070754
 10
59.0670572917
 20
-52.2812275615
 10
59.294921875
 20
-51.6735886726
 10
59.4772135417
 20
-50.9975904087
 10
59.4772135417
 20
-50.9975904087
 10
59.5835503472
 20
-50.5418612421
 10
59.705078125
 20
-50.1696824226
 10
59.841796875
 20
-49.8658629782
 10
59.9937065972
 20
-49.6455938809
 10
60.1759982639
 20
-49.4784931865
 10
60.388671875
 20
-49.3569654087
 10
60.6317274306
 20
-49.2886060337
 10
60.9127604167
 20
-49.2658195754
 10
60.9127604167
 20
-49.2658195754
 10
61.27734375
 20
-49.3037970059
 10
61.5811631944
 20
-49.4329202698
 10
61.8166232639
 20
-49.6379983948
 10
61.9989149306
 20
-49.9266268671
 10
61.9989149306
 20
-49.9266268671
 10
62.0748697917
 20
-50.1544914504
 10
62.1280381944
 20
-50.4886928393
 10
62.166015625
 20
-50.9292310337
 10
62.1736111111
 20
-51.4837015198
 10
62.1736111111
 20
-51.4837015198
 10
62.1736111111
 20
-61.1983282559
 10
62.1736111111
 20
-61.1983282559
 10
62.1584201389
 20
-61.7603942282
 10
62.1128472222
 20
-62.2313143671
 10
62.029296875
 20
-62.6110886726
 10
61.9153645833
 20
-62.8921216587
 10
61.755859375
 20
-63.0971997837
 10
61.55078125
 20
-63.2415140198
 10
61.2849392361
 20
-63.3326598532
 10
60.9659288194
 20
-63.3630417976
 10
60.9659288194
 20
-63.3630417976
 10
60.45703125
 20
-63.2718959643
 10
60.0696614583
 20
-63.0060539504
 10
59.9177517361
 20
-62.7933803393
 10
59.7810329861
 20
-62.5199428393
 10
59.6595052083
 20
-62.1933369365
 10
59.5531684028
 20
-61.7983716587
 10
59.5531684028
 20
-61.7983716587
 10
59.3253038194
 20
-60.9628681865
 10
59.0442708333
 20
-60.2261060337
 10
58.7252604167
 20
-59.5956806865
 10
58.3530815972
 20
-59.0715921448
 10
57.9353298611
 20
-58.6386494365
 10
57.4644097222
 20
-58.2816615893
 10
56.9327256944
 20
-58.0082240893
 10
56.3402777778
 20
-57.8107414504
  0
LWPOLYLINE
  5
8E
330
1F
100
AcDbEntity
  8
0
  6
Continuous
 62
     7
100
AcDbPolyline
 90
       38
 70
   128
 43
0.0
 10
56.340277195
 20
-74.0574862421
 10
56.3402777778
 20
-71.2319654087
 10
56.3402777778
 20
-71.2319654087
 10
57.1378038194
 20
-71.0876511726
 10
57.8669704861
 20
-70.9205504782
 10
58.5201822917
 20
-70.7230678393
 10
59.1050347222
 20
-70.5027987421
 10
59.6519097222
 20
-70.2293612421
 10
60.1987847222
 20
-69.9027553393
 10
60.7532552083
 20
-69.5077900615
 10
61.3001302083
 20
-69.0596563809
 10
61.3001302083
 20
-69.0596563809
 10
62.2951388889
 20
-68.0722431865
 10
63.0622829861
 20
-67.0544480476
 10
63.3888888889
 20
-66.4923820754
 10
63.7003038194
 20
-65.8543612421
 10
64.01171875
 20
-65.1251945754
 10
64.3079427083
 20
-64.3200730476
 10
64.3079427083
 20
-64.3200730476
 10
64.4522569444
 20
-63.9327032559
 10
64.5965711806
 20
-63.6136928393
 10
64.7484809028
 20
-63.3630417976
 10
64.900390625
 20
-63.1807501309
 10
65.2725694444
 20
-62.9528855476
 10
65.7510850694
 20
-62.8769306865
 10
65.7510850694
 20
-62.8769306865
 10
66.0852864583
 20
-62.9073126309
 10
66.3663194444
 20
-62.9832674921
 10
66.5865885417
 20
-63.1199862421
 10
66.7536892361
 20
-63.3098733948
 10
66.8752170139
 20
-63.5681199226
 10
66.9663628472
 20
-63.9023213115
 10
67.01953125
 20
-64.3200730476
 10
67.0347222222
 20
-64.8137796448
 10
67.0347222222
 20
-64.8137796448
 10
67.0347222222
 20
-74.0574862421
 10
67.0347222222
 20
-74.0574862421
 10
56.3402777778
 20
-74.0574862421
  0
POINT
  5
8F
330
1F
100
AcDbEntity
  8
0
  6
Continuous
 62
     7
100
AcDbPoint
 10
0.0
 20
0.0
 30
0.0
  0
ENDSEC
  0
SECTION
  2
OBJECTS
  0
DICTIONARY
  5
C
330
0
100
AcDbDictionary
281
     1
  3
ACAD_GROUP
350
D
  3
ACAD_LAYOUT
350
1A
  3
ACAD_MLINESTYLE
350
17
  3
ACAD_PLOTSETTINGS
350
19
  3
ACAD_PLOTSTYLENAME
350
E
  3
ACAD_SCALELIST
350
47
  3
DWGPROPS
350
90
  0
DICTIONARY
  5
D
102
{ACAD_REACTORS
330
C
102
}
330
C
100
AcDbDictionary
281
     1
  0
DICTIONARY
  5
1A
102
{ACAD_REACTORS
330
C
102
}
330
C
100
AcDbDictionary
281
     1
  3
Layout1
350
1E
  3
Layout2
350
26
  3
Model
350
22
  0
DICTIONARY
  5
17
102
{ACAD_REACTORS
330
C
102
}
330
C
100
AcDbDictionary
281
     1
  3
Standard
350
18
  0
DICTIONARY
  5
19
102
{ACAD_REACTORS
330
C
102
}
330
C
100
AcDbDictionary
281
     1
  0
ACDBDICTIONARYWDFLT
  5
E
102
{ACAD_REACTORS
330
C
102
}
330
C
100
AcDbDictionary
281
     1
  3
Normal
350
F
100
AcDbDictionaryWithDefault
340
F
  0
DICTIONARY
  5
47
102
{ACAD_REACTORS
330
C
102
}
330
C
100
AcDbDictionary
281
     1
  3
A0
350
48
  3
A1
350
49
  3
A2
350
4A
  3
A3
350
4B
  3
A4
350
4C
  3
A5
350
4D
  3
A6
350
4E
  3
A7
350
4F
  3
A8
350
50
  3
A9
350
51
  3
B0
350
52
  3
B1
350
53
  3
B2
350
54
  3
B3
350
55
  3
B4
350
56
  3
B5
350
57
  3
B6
350
58
  0
XRECORD
  5
90
102
{ACAD_REACTORS
330
C
102
}
330
C
100
AcDbXrecord
280
     1
  1
DWGPROPS COOKIE
  2

  3

  4

  6

  7

  8
196933
  9

300
=
301
=
302
=
303
=
304
=
305
=
306
=
307
=
308
=
309
=
 40
0.0
 41
2460980.695193195
 42
2460980.696034908
  1

 90
        0
  0
LAYOUT
  5
1E
102
{ACAD_REACTORS
330
1A
102
}
330
1A
100
AcDbPlotSettings
  1

  2
none_device
  4

  6

 40
0.0
 41
0.0
 42
0.0
 43
0.0
 44
0.0
 45
0.0
 46
0.0
 47
0.0
 48
0.0
 49
0.0
140
0.0
141
0.0
142
1.0
143
1.0
 70
   688
 72
     1
 73
     0
 74
     5
  7

 75
    16
147
1.0
148
0.0
149
0.0
100
AcDbLayout
  1
Layout1
 70
     1
 71
     1
 10
0.0
 20
0.0
 11
420.0
 21
297.0
 12
0.0
 22
0.0
 32
0.0
 14
1.0000000000E+20
 24
1.0000000000E+20
 34
1.0000000000E+20
 15
-1.0000000000E+20
 25
-1.0000000000E+20
 35
-1.0000000000E+20
146
0.0
 13
0.0
 23
0.0
 33
0.0
 16
1.0
 26
0.0
 36
0.0
 17
0.0
 27
1.0
 37
0.0
 76
     0
330
1B
  0
LAYOUT
  5
26
102
{ACAD_REACTORS
330
1A
102
}
330
1A
100
AcDbPlotSettings
  1

  2
none_device
  4

  6

 40
0.0
 41
0.0
 42
0.0
 43
0.0
 44
0.0
 45
0.0
 46
0.0
 47
0.0
 48
0.0
 49
0.0
140
0.0
141
0.0
142
1.0
143
1.0
 70
   688
 72
     1
 73
     0
 74
     5
  7

 75
    16
147
1.0
148
0.0
149
0.0
100
AcDbLayout
  1
Layout2
 70
     1
 71
     2
 10
0.0
 20
0.0
 11
0.0
 21
0.0
 12
0.0
 22
0.0
 32
0.0
 14
0.0
 24
0.0
 34
0.0
 15
0.0
 25
0.0
 35
0.0
146
0.0
 13
0.0
 23
0.0
 33
0.0
 16
1.0
 26
0.0
 36
0.0
 17
0.0
 27
1.0
 37
0.0
 76
     0
330
23
  0
LAYOUT
  5
22
102
{ACAD_REACTORS
330
1A
102
}
330
1A
100
AcDbPlotSettings
  1

  2
none_device
  4
ANSI_A_(11.00_x_8.50_Inches)
  6

 40
6.35
 41
19.05
 42
6.35000508
 43
19.05000254
 44
279.4
 45
215.9
 46
133.34999746
 47
88.89999873
 48
0.0
 49
0.0
140
0.0
141
0.0
142
0.0363
143
1.0
 70
  1696
 72
     0
 73
     0
 74
     0
  7

 75
     0
147
0.0179189148
148
-1300.4909072572
149
0.0
100
AcDbLayout
  1
Model
 70
     1
 71
     0
 10
0.0
 20
0.0
 11
420.0
 21
297.0
 12
0.0
 22
0.0
 32
0.0
 14
-150.0
 24
-100.0
 34
0.0
 15
150.0
 25
100.0
 35
0.0
146
0.0
 13
0.0
 23
0.0
 33
0.0
 16
1.0
 26
0.0
 36
0.0
 17
0.0
 27
1.0
 37
0.0
 76
     0
330
1F
331
29
  0
MLINESTYLE
  5
18
102
{ACAD_REACTORS
330
17
102
}
330
17
100
AcDbMlineStyle
  2
Standard
 70
     0
  3

 62
   256
 51
90.0
 52
90.0
 71
     2
 49
0.5
 62
   256
  6
BYLAYER
 49
-0.5
 62
   256
  6
BYLAYER
  0
ACDBPLACEHOLDER
  5
F
102
{ACAD_REACTORS
330
E
102
}
330
E
  0
SCALE
  5
48
102
{ACAD_REACTORS
330
47
102
}
330
47
100
AcDbScale
 70
     0
300
1:1
140
1.0
141
1.0
290
     1
  0
SCALE
  5
49
102
{ACAD_REACTORS
330
47
102
}
330
47
100
AcDbScale
 70
     0
300
1:2
140
1.0
141
2.0
290
     0
  0
SCALE
  5
4A
102
{ACAD_REACTORS
330
47
102
}
330
47
100
AcDbScale
 70
     0
300
1:4
140
1.0
141
4.0
290
     0
  0
SCALE
  5
4B
102
{ACAD_REACTORS
330
47
102
}
330
47
100
AcDbScale
 70
     0
300
1:5
140
1.0
141
5.0
290
     0
  0
SCALE
  5
4C
102
{ACAD_REACTORS
330
47
102
}
330
47
100
AcDbScale
 70
     0
300
1:8
140
1.0
141
8.0
290
     0
  0
SCALE
  5
4D
102
{ACAD_REACTORS
330
47
102
}
330
47
100
AcDbScale
 70
     0
300
1:10
140
1.0
141
10.0
290
     0
  0
SCALE
  5
4E
102
{ACAD_REACTORS
330
47
102
}
330
47
100
AcDbScale
 70
     0
300
1:16
140
1.0
141
16.0
290
     0
  0
SCALE
  5
4F
102
{ACAD_REACTORS
330
47
102
}
330
47
100
AcDbScale
 70
     0
300
1:20
140
1.0
141
20.0
290
     0
  0
SCALE
  5
50
102
{ACAD_REACTORS
330
47
102
}
330
47
100
AcDbScale
 70
     0
300
1:30
140
1.0
141
30.0
290
     0
  0
SCALE
  5
51
102
{ACAD_REACTORS
330
47
102
}
330
47
100
AcDbScale
 70
     0
300
1:40
140
1.0
141
40.0
290
     0
  0
SCALE
  5
52
102
{ACAD_REACTORS
330
47
102
}
330
47
100
AcDbScale
 70
     0
300
1:50
140
1.0
141
50.0
290
     0
  0
SCALE
  5
53
102
{ACAD_REACTORS
330
47
102
}
330
47
100
AcDbScale
 70
     0
300
1:100
140
1.0
141
100.0
290
     0
  0
SCALE
  5
54
102
{ACAD_REACTORS
330
47
102
}
330
47
100
AcDbScale
 70
     0
300
2:1
140
2.0
141
1.0
290
     0
  0
SCALE
  5
55
102
{ACAD_REACTORS
330
47
102
}
330
47
100
AcDbScale
 70
     0
300
4:1
140
4.0
141
1.0
290
     0
  0
SCALE
  5
56
102
{ACAD_REACTORS
330
47
102
}
330
47
100
AcDbScale
 70
     0
300
8:1
140
8.0
141
1.0
290
     0
  0
SCALE
  5
57
102
{ACAD_REACTORS
330
47
102
}
330
47
100
AcDbScale
 70
     0
300
10:1
140
10.0
141
1.0
290
     0
  0
SCALE
  5
58
102
{ACAD_REACTORS
330
47
102
}
330
47
100
AcDbScale
 70
     0
300
100:1
140
100.0
141
1.0
290
     0
  0
ENDSEC
  0
EOF
