  0
SECTION
  2
HEADER
  9
$ACADVER
  1
AC1015
  9
$ACADMAINTVER
 70
     6
  9
$DWGCODEPAGE
  3
ANSI_1252
  9
$INSBASE
 10
0.0
 20
0.0
 30
0.0
  9
$EXTMIN
 10
3.2496321946
 20
5.1077623918
 30
0.0
  9
$EXTMAX
 10
48.0960832422
 20
62.1373554585
 30
0.0
  9
$LIMMIN
 10
0.0
 20
0.0
  9
$LIMMAX
 10
420.0
 20
297.0
  9
$ORTHOMODE
 70
     0
  9
$REGENMODE
 70
     1
  9
$FILLMODE
 70
     1
  9
$QTEXTMODE
 70
     0
  9
$MIRRTEXT
 70
     1
  9
$LTSCALE
 40
1.0
  9
$ATTMODE
 70
     1
  9
$TEXTSIZE
 40
3.5
  9
$TRACEWID
 40
1.0
  9
$TEXTSTYLE
  7
Standard
  9
$CLAYER
  8
0
  9
$CELTYPE
  6
ByLayer
  9
$CECOLOR
 62
   256
  9
$CELTSCALE
 40
1.0
  9
$DISPSILH
 70
     0
  9
$DIMSCALE
 40
1.0
  9
$DIMASZ
 40
3.302
  9
$DIMEXO
 40
0.0
  9
$DIMDLI
 40
3.75
  9
$DIMRND
 40
0.0
  9
$DIMDLE
 40
0.0
  9
$DIMEXE
 40
1.0
  9
$DIMTP
 40
0.0
  9
$DIMTM
 40
0.0
  9
$DIMTXT
 40
3.5
  9
$DIMCEN
 40
2.5
  9
$DIMTSZ
 40
0.0
  9
$DIMTOL
 70
     0
  9
$DIMLIM
 70
     0
  9
$DIMTIH
 70
     1
  9
$DIMTOH
 70
     1
  9
$DIMSE1
 70
     0
  9
$DIMSE2
 70
     0
  9
$DIMTAD
 70
     1
  9
$DIMZIN
 70
     1
  9
$DIMBLK
  1

  9
$DIMASO
 70
     1
  9
$DIMSHO
 70
     1
  9
$DIMPOST
  1

  9
$DIMAPOST
  1

  9
$DIMALT
 70
     0
  9
$DIMALTD
 70
     3
  9
$DIMALTF
 40
0.0393700787
  9
$DIMLFAC
 40
1.0
  9
$DIMTOFL
 70
     1
  9
$DIMTVP
 40
0.0
  9
$DIMTIX
 70
     0
  9
$DIMSOXD
 70
     0
  9
$DIMSAH
 70
     0
  9
$DIMBLK1
  1

  9
$DIMBLK2
  1

  9
$DIMSTYLE
  2
ISO-25
  9
$DIMCLRD
 70
     0
  9
$DIMCLRE
 70
     0
  9
$DIMCLRT
 70
     0
  9
$DIMTFAC
 40
1.0
  9
$DIMGAP
 40
1.524
  9
$DIMJUST
 70
     0
  9
$DIMSD1
 70
     0
  9
$DIMSD2
 70
     0
  9
$DIMTOLJ
 70
     0
  9
$DIMTZIN
 70
     1
  9
$DIMALTZ
 70
     0
  9
$DIMALTTZ
 70
     0
  9
$DIMUPT
 70
     0
  9
$DIMDEC
 70
     2
  9
$DIMTDEC
 70
     2
  9
$DIMALTU
 70
     2
  9
$DIMALTTD
 70
     3
  9
$DIMTXSTY
  7
Standard
  9
$DIMAUNIT
 70
     0
  9
$DIMADEC
 70
     2
  9
$DIMALTRND
 40
0.0
  9
$DIMAZIN
 70
     0
  9
$DIMDSEP
 70
    44
  9
$DIMATFIT
 70
     3
  9
$DIMFRAC
 70
     0
  9
$DIMLDRBLK
  1

  9
$DIMLUNIT
 70
     2
  9
$DIMLWD
 70
    -2
  9
$DIMLWE
 70
    -2
  9
$DIMTMOVE
 70
     0
  9
$LUNITS
 70
     2
  9
$LUPREC
 70
     2
  9
$SKETCHINC
 40
1.0
  9
$FILLETRAD
 40
0.0
  9
$AUNITS
 70
     0
  9
$AUPREC
 70
     2
  9
$MENU
  1
.
  9
$ELEVATION
 40
0.0
  9
$PELEVATION
 40
0.0
  9
$THICKNESS
 40
0.0
  9
$LIMCHECK
 70
     0
  9
$CHAMFERA
 40
0.0
  9
$CHAMFERB
 40
0.0
  9
$CHAMFERC
 40
0.0
  9
$CHAMFERD
 40
0.0
  9
$SKPOLY
 70
     0
  9
$TDCREATE
 40
2460954.949927743
  9
$TDUCREATE
 40
2460955.199927743
  9
$TDUPDATE
 40
2460954.950248773
  9
$TDUUPDATE
 40
2460955.200248773
  9
$TDINDWG
 40
0.0000000116
  9
$TDUSRTIMER
 40
0.0000000116
  9
$USRTIMER
 70
     1
  9
$ANGBASE
 50
0.0
  9
$ANGDIR
 70
     0
  9
$PDMODE
 70
     0
  9
$PDSIZE
 40
-1.0
  9
$PLINEWID
 40
0.0
  9
$SPLFRAME
 70
     0
  9
$SPLINETYPE
 70
     6
  9
$SPLINESEGS
 70
     8
  9
$HANDSEED
  5
8B
  9
$SURFTAB1
 70
     6
  9
$SURFTAB2
 70
     6
  9
$SURFTYPE
 70
     6
  9
$SURFU
 70
     6
  9
$SURFV
 70
     6
  9
$UCSBASE
  2

  9
$UCSNAME
  2

  9
$UCSORG
 10
0.0
 20
0.0
 30
0.0
  9
$UCSXDIR
 10
1.0
 20
0.0
 30
0.0
  9
$UCSYDIR
 10
0.0
 20
1.0
 30
0.0
  9
$UCSORTHOREF
  2

  9
$UCSORTHOVIEW
 70
     0
  9
$UCSORGTOP
 10
0.0
 20
0.0
 30
0.0
  9
$UCSORGBOTTOM
 10
0.0
 20
0.0
 30
0.0
  9
$UCSORGLEFT
 10
0.0
 20
0.0
 30
0.0
  9
$UCSORGRIGHT
 10
0.0
 20
0.0
 30
0.0
  9
$UCSORGFRONT
 10
0.0
 20
0.0
 30
0.0
  9
$UCSORGBACK
 10
0.0
 20
0.0
 30
0.0
  9
$PUCSBASE
  2

  9
$PUCSNAME
  2

  9
$PUCSORG
 10
0.0
 20
0.0
 30
0.0
  9
$PUCSXDIR
 10
1.0
 20
0.0
 30
0.0
  9
$PUCSYDIR
 10
0.0
 20
1.0
 30
0.0
  9
$PUCSORTHOREF
  2

  9
$PUCSORTHOVIEW
 70
     0
  9
$PUCSORGTOP
 10
0.0
 20
0.0
 30
0.0
  9
$PUCSORGBOTTOM
 10
0.0
 20
0.0
 30
0.0
  9
$PUCSORGLEFT
 10
0.0
 20
0.0
 30
0.0
  9
$PUCSORGRIGHT
 10
0.0
 20
0.0
 30
0.0
  9
$PUCSORGFRONT
 10
0.0
 20
0.0
 30
0.0
  9
$PUCSORGBACK
 10
0.0
 20
0.0
 30
0.0
  9
$USERI1
 70
     0
  9
$USERI2
 70
     0
  9
$USERI3
 70
     0
  9
$USERI4
 70
     0
  9
$USERI5
 70
     0
  9
$USERR1
 40
0.0
  9
$USERR2
 40
0.0
  9
$USERR3
 40
0.0
  9
$USERR4
 40
0.0
  9
$USERR5
 40
0.0
  9
$WORLDVIEW
 70
     1
  9
$SHADEDGE
 70
     3
  9
$SHADEDIF
 70
    70
  9
$TILEMODE
 70
     1
  9
$MAXACTVP
 70
    64
  9
$PINSBASE
 10
0.0
 20
0.0
 30
0.0
  9
$PLIMCHECK
 70
     0
  9
$PEXTMIN
 10
1.0000000000E+20
 20
1.0000000000E+20
 30
1.0000000000E+20
  9
$PEXTMAX
 10
-1.0000000000E+20
 20
-1.0000000000E+20
 30
-1.0000000000E+20
  9
$PLIMMIN
 10
0.0
 20
0.0
  9
$PLIMMAX
 10
420.0
 20
297.0
  9
$UNITMODE
 70
     0
  9
$VISRETAIN
 70
     1
  9
$PLINEGEN
 70
     0
  9
$PSLTSCALE
 70
     1
  9
$TREEDEPTH
 70
  3020
  9
$CMLSTYLE
  2
Standard
  9
$CMLJUST
 70
     0
  9
$CMLSCALE
 40
20.0
  9
$PROXYGRAPHICS
 70
     1
  9
$MEASUREMENT
 70
     1
  9
$CELWEIGHT
370
    -1
  9
$ENDCAPS
280
     0
  9
$JOINSTYLE
280
     0
  9
$LWDISPLAY
290
     1
  9
$INSUNITS
 70
     4
  9
$HYPERLINKBASE
  1

  9
$STYLESHEET
  1

  9
$XEDIT
290
     1
  9
$CEPSNTYPE
380
     0
  9
$PSTYLEMODE
290
     1
  9
$FINGERPRINTGUID
  2
{4c05573e-f72b-42d4-a2ad-2c6e11532258}
  9
$VERSIONGUID
  2
{FAEB1C32-E019-11D5-929B-00C0DF256EC4}
  9
$EXTNAMES
290
     1
  9
$PSVPSCALE
 40
0.0
  9
$OLESTARTUP
290
     0
  0
ENDSEC
  0
SECTION
  2
CLASSES
  0
CLASS
  1
ACDBDICTIONARYWDFLT
  2
AcDbDictionaryWithDefault
  3
ObjectDBX Classes
 90
        0
280
     0
281
     0
  0
CLASS
  1
VISUALSTYLE
  2
AcDbVisualStyle
  3
ObjectDBX Classes
 90
     4095
280
     0
281
     0
  0
CLASS
  1
MATERIAL
  2
AcDbMaterial
  3
ObjectDBX Classes
 90
     1153
280
     0
281
     0
  0
CLASS
  1
SCALE
  2
AcDbScale
  3
ObjectDBX Classes
 90
     1153
280
     0
281
     0
  0
CLASS
  1
TABLESTYLE
  2
AcDbTableStyle
  3
ObjectDBX Classes
 90
     4095
280
     0
281
     0
  0
CLASS
  1
MLEADERSTYLE
  2
AcDbMLeaderStyle
  3
ACDB_MLEADERSTYLE_CLASS
 90
     4095
280
     0
281
     0
  0
CLASS
  1
SUN
  2
AcDbSun
  3
SCENEOE
 90
     1153
280
     0
281
     0
  0
CLASS
  1
ACDBPLACEHOLDER
  2
AcDbPlaceHolder
  3
ObjectDBX Classes
 90
        0
280
     0
281
     0
  0
CLASS
  1
LAYOUT
  2
AcDbLayout
  3
ObjectDBX Classes
 90
        0
280
     0
281
     0
  0
ENDSEC
  0
SECTION
  2
TABLES
  0
TABLE
  2
VPORT
  5
8
330
0
100
AcDbSymbolTable
 70
     1
  0
VPORT
  5
29
330
8
100
AcDbSymbolTableRecord
100
AcDbViewportTableRecord
  2
*Active
 70
     0
 10
0.0
 20
0.0
 11
1.0
 21
1.0
 12
25.6728577184
 22
33.6225589252
 13
0.0
 23
0.0
 14
10.0
 24
10.0
 15
10.0
 25
10.0
 16
0.0
 26
0.0
 36
1.0
 17
0.0
 27
0.0
 37
0.0
 40
58.170184928
 41
0.7863715772
 42
50.0
 43
0.0
 44
0.0
 50
0.0
 51
0.0
 71
     0
 72
   100
 73
     1
 74
     3
 75
     0
 76
     0
 77
     0
 78
     0
281
     0
 65
     1
110
0.0
120
0.0
130
0.0
111
1.0
121
0.0
131
0.0
112
0.0
122
1.0
132
0.0
 79
     0
146
0.0
  0
ENDTAB
  0
TABLE
  2
LTYPE
  5
5
330
0
100
AcDbSymbolTable
 70
     6
  0
LTYPE
  5
14
330
5
100
AcDbSymbolTableRecord
100
AcDbLinetypeTableRecord
  2
ByBlock
 70
     0
  3

 72
    65
 73
     0
 40
0.0
  0
LTYPE
  5
15
330
5
100
AcDbSymbolTableRecord
100
AcDbLinetypeTableRecord
  2
ByLayer
 70
     0
  3

 72
    65
 73
     0
 40
0.0
  0
LTYPE
  5
16
330
5
100
AcDbSymbolTableRecord
100
AcDbLinetypeTableRecord
  2
Continuous
 70
     0
  3
Solid line
 72
    65
 73
     0
 40
0.0
  0
LTYPE
  5
5E
330
5
100
AcDbSymbolTableRecord
100
AcDbLinetypeTableRecord
  2
HIDDEN
 70
     0
  3
Hidden __ __ __ __ __ __ __ __ __ __ __ __ __ __
 72
    65
 73
     2
 40
1.905
 49
1.27
 74
     0
 49
-0.635
 74
     0
  0
LTYPE
  5
5F
330
5
100
AcDbSymbolTableRecord
100
AcDbLinetypeTableRecord
  2
PHANTOM
 70
     0
  3
Phantom ______  __  __  ______  __  __  ______
 72
    65
 73
     6
 40
12.7
 49
6.35
 74
     0
 49
-1.27
 74
     0
 49
1.27
 74
     0
 49
-1.27
 74
     0
 49
1.27
 74
     0
 49
-1.27
 74
     0
  0
LTYPE
  5
60
330
5
100
AcDbSymbolTableRecord
100
AcDbLinetypeTableRecord
  2
CENTER
 70
     0
  3
Center ____ _ ____ _ ____ _ ____ _ ____ _ ____
 72
    65
 73
     4
 40
10.16
 49
6.35
 74
     0
 49
-1.27
 74
     0
 49
1.27
 74
     0
 49
-1.27
 74
     0
  0
LTYPE
  5
61
330
5
100
AcDbSymbolTableRecord
100
AcDbLinetypeTableRecord
  2
CENTERX2
 70
     0
  3
Center (2x) ________  __  ________  __  _____
 72
    65
 73
     4
 40
20.32
 49
12.7
 74
     0
 49
-2.54
 74
     0
 49
2.54
 74
     0
 49
-2.54
 74
     0
  0
LTYPE
  5
62
330
5
100
AcDbSymbolTableRecord
100
AcDbLinetypeTableRecord
  2
DOT2
 70
     0
  3
Dot (.5x) ........................................
 72
    65
 73
     2
 40
0.635
 49
0.0
 74
     0
 49
-0.635
 74
     0
  0
ENDTAB
  0
TABLE
  2
LAYER
  5
2
330
0
100
AcDbSymbolTable
 70
     1
  0
LAYER
  5
10
330
2
100
AcDbSymbolTableRecord
100
AcDbLayerTableRecord
  2
0
 70
     0
 62
     7
  6
Continuous
370
    -3
390
F
  0
ENDTAB
  0
TABLE
  2
STYLE
  5
3
330
0
100
AcDbSymbolTable
 70
     2
  0
STYLE
  5
11
330
3
100
AcDbSymbolTableRecord
100
AcDbTextStyleTableRecord
  2
Standard
 70
     0
 40
0.0
 41
1.0
 50
0.0
 71
     0
 42
3.5
  3
txt
  4

  0
STYLE
  5
87
330
3
100
AcDbSymbolTableRecord
100
AcDbTextStyleTableRecord
  2
SLDTEXTSTYLE0
 70
     0
 40
0.0
 41
0.7
 50
0.0
 71
     0
 42
3.5
  3
TXT
  4

  0
ENDTAB
  0
TABLE
  2
VIEW
  5
6
330
0
100
AcDbSymbolTable
 70
     0
  0
ENDTAB
  0
TABLE
  2
UCS
  5
7
330
0
100
AcDbSymbolTable
 70
     0
  0
ENDTAB
  0
TABLE
  2
APPID
  5
9
330
0
100
AcDbSymbolTable
 70
     1
  0
APPID
  5
12
330
9
100
AcDbSymbolTableRecord
100
AcDbRegAppTableRecord
  2
ACAD
 70
     0
  0
ENDTAB
  0
TABLE
  2
DIMSTYLE
  5
A
330
0
100
AcDbSymbolTable
 70
     1
100
AcDbDimStyleTable
  0
DIMSTYLE
105
27
330
A
100
AcDbSymbolTableRecord
100
AcDbDimStyleTableRecord
  2
ISO-25
 70
     0
 41
2.5
 42
0.625
 43
3.75
 44
1.25
 73
     0
 74
     0
 77
     1
 78
     8
140
2.5
141
2.5
143
0.0393700787
147
0.625
171
     3
172
     1
178
     0
271
     2
272
     2
274
     3
278
    44
283
     0
284
     8
340
11
  0
ENDTAB
  0
TABLE
  2
BLOCK_RECORD
  5
1
330
0
100
AcDbSymbolTable
 70
     1
  0
BLOCK_RECORD
  5
1F
330
1
100
AcDbSymbolTableRecord
100
AcDbBlockTableRecord
  2
*Model_Space
340
22
  0
BLOCK_RECORD
  5
1B
330
1
100
AcDbSymbolTableRecord
100
AcDbBlockTableRecord
  2
*Paper_Space
340
1E
  0
BLOCK_RECORD
  5
23
330
1
100
AcDbSymbolTableRecord
100
AcDbBlockTableRecord
  2
*Paper_Space0
340
26
  0
ENDTAB
  0
ENDSEC
  0
SECTION
  2
BLOCKS
  0
BLOCK
  5
20
330
1F
100
AcDbEntity
  8
0
100
AcDbBlockBegin
  2
*Model_Space
 70
     0
 10
0.0
 20
0.0
 30
0.0
  3
*Model_Space
  1

  0
ENDBLK
  5
21
330
1F
100
AcDbEntity
  8
0
100
AcDbBlockEnd
  0
BLOCK
  5
1C
330
1B
100
AcDbEntity
 67
     1
  8
0
100
AcDbBlockBegin
  2
*Paper_Space
 70
     0
 10
0.0
 20
0.0
 30
0.0
  3
*Paper_Space
  1

  0
ENDBLK
  5
1D
330
1B
100
AcDbEntity
 67
     1
  8
0
100
AcDbBlockEnd
  0
BLOCK
  5
24
330
23
100
AcDbEntity
  8
0
100
AcDbBlockBegin
  2
*Paper_Space0
 70
     0
 10
0.0
 20
0.0
 30
0.0
  3
*Paper_Space0
  1

  0
ENDBLK
  5
25
330
23
100
AcDbEntity
  8
0
100
AcDbBlockEnd
  0
ENDSEC
  0
SECTION
  2
ENTITIES
  0
ARC
  5
63
330
1F
100
AcDbEntity
  8
0
  6
Continuous
 62
     7
100
AcDbCircle
 10
19.2699319573
 20
57.4054832888
 30
0.0
 40
21.56462429106157
100
AcDbArc
 50
249.1767884579
 51
301.6018350649
  0
ARC
  5
64
330
1F
100
AcDbEntity
  8
0
  6
Continuous
 62
     7
100
AcDbCircle
 10
-8216.3333079544
 20
-712.9090213878
 30
0.0
 40
8262.063321184389
100
AcDbArc
 50
5.0144128098
 51
5.2093751702
  0
CIRCLE
  5
65
330
1F
100
AcDbEntity
  8
0
  6
Continuous
 62
     7
100
AcDbCircle
 10
14.0062323607
 20
45.8919970065
 30
0.0
 40
1.127024926802292
  0
CIRCLE
  5
66
330
1F
100
AcDbEntity
  8
0
  6
Continuous
 62
     7
100
AcDbCircle
 10
26.8343964896
 20
46.4425158695
 30
0.0
 40
1.12702492680229
  0
LINE
  5
67
330
1F
100
AcDbEntity
  8
0
  6
Continuous
 62
     7
100
AcDbLine
 10
20.0249021002
 20
7.4998652439
 30
0.0
 11
21.931632612
 21
7.4998652439
 31
0.0
  0
LINE
  5
68
330
1F
100
AcDbEntity
  8
0
  6
Continuous
 62
     7
100
AcDbLine
 10
20.103989927
 20
34.5208781504
 30
0.0
 11
20.103989927
 21
35.8569945223
 31
0.0
  0
LINE
  5
69
330
1F
100
AcDbEntity
  8
0
  6
Continuous
 62
     7
100
AcDbLine
 10
20.7707601122
 20
34.4942026266
 30
0.0
 11
20.7707601122
 21
35.8931487882
 31
0.0
  0
LINE
  5
6A
330
1F
100
AcDbEntity
  8
0
  6
Continuous
 62
     7
100
AcDbLine
 10
9.5224786734
 20
49.8095413443
 30
0.0
 11
13.1989788161
 21
54.5762631388
 31
0.0
  0
LINE
  5
6B
330
1F
100
AcDbEntity
  8
0
  6
Continuous
 62
     7
100
AcDbLine
 10
13.1989788161
 20
54.5762631388
 30
0.0
 11
10.6730033073
 21
59.0313537771
 31
0.0
  0
LINE
  5
6C
330
1F
100
AcDbEntity
  8
0
  6
Continuous
 62
     7
100
AcDbLine
 10
26.0267377864
 20
55.255600556
 30
0.0
 11
30.57007941
 21
51.3591142216
 31
0.0
  0
LINE
  5
6D
330
1F
100
AcDbEntity
  8
0
  6
Continuous
 62
     7
100
AcDbLine
 10
30.57007941
 20
51.3591142216
 30
0.0
 11
28.9251094891
 21
59.5857173679
 31
0.0
  0
LINE
  5
6E
330
1F
100
AcDbEntity
  8
0
  6
Continuous
 62
     7
100
AcDbLine
 10
28.9251094891
 20
59.5857173679
 30
0.0
 11
26.0267377864
 21
55.255600556
 31
0.0
  0
LINE
  5
6F
330
1F
100
AcDbEntity
  8
0
  6
Continuous
 62
     7
100
AcDbLine
 10
18.8296903621
 20
45.7836064501
 30
0.0
 11
20.0249021002
 21
44.4312429667
 31
0.0
  0
LINE
  5
70
330
1F
100
AcDbEntity
  8
0
  6
Continuous
 62
     7
100
AcDbLine
 10
20.0249021002
 20
44.4312429667
 30
0.0
 11
21.179138467
 21
45.9291500308
 31
0.0
  0
SPLINE
  5
71
330
1F
100
AcDbEntity
  8
0
  6
Continuous
 62
     7
100
AcDbSpline
210
0.0
220
0.0
230
1.0
 70
     8
 71
     3
 72
    16
 73
    12
 74
     0
 42
0.00000001
 43
0.00000001
 40
0.0
 40
0.0
 40
0.0
 40
0.0
 40
0.0641033875067255
 40
0.0959937924779128
 40
0.1280805260587605
 40
0.1917271281157668
 40
0.2557147202236745
 40
0.3499361074960147
 40
0.4447551065547067
 40
0.6287688630993771
 40
1.0
 40
1.0
 40
1.0
 40
1.0
 10
14.10896331071854
 20
9.24764269218275
 30
0.0
 10
13.80856593313551
 20
8.70764823986204
 30
0.0
 10
13.35872568839666
 20
7.899015226671281
 30
0.0
 10
13.47213757503535
 20
6.644334384310171
 30
0.0
 10
14.23976888053213
 20
5.644869958329546
 30
0.0
 10
15.8307568704297
 20
5.291189820708958
 30
0.0
 10
17.82528174964261
 20
5.544793734568077
 30
0.0
 10
20.4324308890242
 20
6.650262296857306
 30
0.0
 10
19.88753034482103
 20
10.59449579212566
 30
0.0
 10
20.32767165708379
 20
16.431284356249
 30
0.0
 10
19.8163305440056
 20
21.69463548654799
 30
0.0
 10
19.4744530319511
 20
25.21365897883804
 30
0.0
  0
SPLINE
  5
72
330
1F
100
AcDbEntity
  8
0
  6
Continuous
 62
     7
100
AcDbSpline
210
0.0
220
0.0
230
1.0
 70
     8
 71
     3
 72
    24
 73
    20
 74
     0
 42
0.00000001
 43
0.00000001
 40
0.0
 40
0.0
 40
0.0
 40
0.0
 40
0.1405664856064815
 40
0.2814512659573061
 40
0.3515989740121425
 40
0.422544008996218
 40
0.4923829862194213
 40
0.5619525047737209
 40
0.6414303671983466
 40
0.703238826825361
 40
0.7264502370308937
 40
0.7494065296758423
 40
0.7808916116786727
 40
0.7966896674472012
 40
0.8120192016957392
 40
0.84357011272806
 40
0.8749690431917394
 40
0.9375749862337481
 40
1.0
 40
1.0
 40
1.0
 40
1.0
 10
30.57007491588593
 20
39.03867386625448
 30
0.0
 10
32.31120333769265
 20
36.5957341602845
 30
0.0
 10
35.79740274288822
 20
31.70432302528974
 30
0.0
 10
41.45514931198182
 20
26.3781713469214
 30
0.0
 10
43.22186866327376
 20
20.50145498776673
 30
0.0
 10
43.82540606973167
 20
15.98630224982692
 30
0.0
 10
42.64807438839593
 20
11.47925926131365
 30
0.0
 10
39.14402303249632
 20
7.907675155600195
 30
0.0
 10
34.62941833153506
 20
7.186996476831917
 30
0.0
 10
30.9954985939531
 20
6.452504098522682
 30
0.0
 10
28.87558992159848
 20
8.223995253247134
 30
0.0
 10
29.69342444361702
 20
9.943448172392275
 30
0.0
 10
30.34634905833767
 20
11.26674164529563
 30
0.0
 10
31.85812909899255
 20
11.78696066910396
 30
0.0
 10
31.54950525870876
 20
13.3253805446092
 30
0.0
 10
31.92419890045375
 20
14.89528184376649
 30
0.0
 10
32.34415545758633
 20
17.57536886383392
 30
0.0
 10
33.53041166753975
 20
20.76020751273309
 30
0.0
 10
35.16416141031152
 20
22.89556788947525
 30
0.0
 10
35.97985420181387
 20
23.96170306365023
 30
0.0
  0
SPLINE
  5
73
330
1F
100
AcDbEntity
  8
0
  6
Continuous
 62
     7
100
AcDbSpline
210
0.0
220
0.0
230
1.0
 70
     8
 71
     3
 72
     9
 73
     5
 74
     0
 42
0.00000001
 43
0.00000001
 40
0.0
 40
0.0
 40
0.0
 40
0.0
 40
0.5658991578554171
 40
1.0
 40
1.0
 40
1.0
 40
1.0
 10
29.28413450717926
 20
8.120267170638444
 30
0.0
 10
28.96951818666921
 20
8.0196662041253
 30
0.0
 10
28.41355991010568
 20
7.841894307636908
 30
0.0
 10
27.84464203841381
 20
7.956999120868428
 30
0.0
 10
27.59767431120127
 20
8.006966217227124
 30
0.0
  0
SPLINE
  5
74
330
1F
100
AcDbEntity
  8
0
  6
Continuous
 62
     7
100
AcDbSpline
210
0.0
220
0.0
230
1.0
 70
     8
 71
     3
 72
    21
 73
    17
 74
     0
 42
0.00000001
 43
0.00000001
 40
0.0
 40
0.0
 40
0.0
 40
0.0
 40
0.1252249653428197
 40
0.2502903545355861
 40
0.3441278946983759
 40
0.3912812124624182
 40
0.4142841224821983
 40
0.4378792436050751
 40
0.5000564479379541
 40
0.5321022212520052
 40
0.5624557352314669
 40
0.6145025358331371
 40
0.667127389810056
 40
0.7497041465551662
 40
0.8748884690477051
 40
1.0
 40
1.0
 40
1.0
 40
1.0
 10
22.46305346488953
 20
25.21365897883805
 30
0.0
 10
22.41314711625038
 20
23.34317573198823
 30
0.0
 10
22.31339801541994
 20
19.60459282461624
 30
0.0
 10
22.2453472880666
 20
14.47006047268109
 30
0.0
 10
22.33104662810493
 20
10.479547180148
 30
0.0
 10
21.76273091241521
 20
8.064665890330645
 30
0.0
 10
22.17558560950378
 20
6.630652281354335
 30
0.0
 10
23.59837658750694
 20
5.724633094614829
 30
0.0
 10
25.19042821550126
 20
4.949856144821108
 30
0.0
 10
27.2368079733981
 20
5.219075532639889
 30
0.0
 10
28.06829955502796
 20
7.009366770079959
 30
0.0
 10
26.97360293161199
 20
8.914551560614655
 30
0.0
 10
27.42791254734884
 20
11.75491474879641
 30
0.0
 10
27.93962727818768
 20
15.57448433945909
 30
0.0
 10
28.60977950163768
 20
20.51895607832198
 30
0.0
 10
29.32166931143788
 20
24.18807929768968
 30
0.0
 10
29.6775106997295
 20
26.02210737650036
 30
0.0
  0
SPLINE
  5
75
330
1F
100
AcDbEntity
  8
0
  6
Continuous
 62
     7
100
AcDbSpline
210
0.0
220
0.0
230
1.0
 70
     8
 71
     3
 72
    25
 73
    21
 74
     0
 42
0.00000001
 43
0.00000001
 40
0.0
 40
0.0
 40
0.0
 40
0.0
 40
0.039004785381073
 40
0.0782551651326841
 40
0.1398941075043596
 40
0.249609911212223
 40
0.3285127556360217
 40
0.3629554562135238
 40
0.3908150835281565
 40
0.4133651144259112
 40
0.4371859809145467
 40
0.4569495103577919
 40
0.4724332654111973
 40
0.5075156220446853
 40
0.5779858473549103
 40
0.7183834000754126
 40
0.8589180613392908
 40
0.9057091235741126
 40
0.9525274008680835
 40
1.0
 40
1.0
 40
1.0
 40
1.0
 10
43.47142577171326
 20
17.25207391927729
 30
0.0
 10
43.67469357344464
 20
17.95551403274478
 30
0.0
 10
44.08250905647422
 20
19.36682348368886
 30
0.0
 10
44.45360139955183
 20
21.96828123426342
 30
0.0
 10
44.77515430220956
 20
25.91067959419305
 30
0.0
 10
44.10648268568218
 20
30.6225318835412
 30
0.0
 10
42.39546561157275
 20
34.52586028492507
 30
0.0
 10
42.02851405989103
 20
37.08584387906942
 30
0.0
 10
41.89191558231565
 20
38.83281598866973
 30
0.0
 10
43.02435790815066
 20
39.74808115592636
 30
0.0
 10
44.25089771862838
 20
40.43278960520921
 30
0.0
 10
45.23167490217538
 20
39.64754571312037
 30
0.0
 10
46.01568300352618
 20
38.61790902653435
 30
0.0
 10
46.96269569069337
 20
36.51260584691636
 30
0.0
 10
48.03396842853131
 20
32.0132953119226
 30
0.0
 10
48.24111195709671
 20
25.41125576792713
 30
0.0
 10
47.58217246335386
 20
19.16585273339486
 30
0.0
 10
45.7913149383181
 20
15.17413619712201
 30
0.0
 10
44.51392767323387
 20
12.76393876708359
 30
0.0
 10
42.9417055017793
 20
11.87629034729202
 30
0.0
 10
42.15013927903411
 20
11.42938626494461
 30
0.0
  0
SPLINE
  5
76
330
1F
100
AcDbEntity
  8
0
  6
Continuous
 62
     7
100
AcDbSpline
210
0.0
220
0.0
230
1.0
 70
     8
 71
     3
 72
    17
 73
    13
 74
     0
 42
0.00000001
 43
0.00000001
 40
0.0
 40
0.0
 40
0.0
 40
0.0
 40
0.1257114911219244
 40
0.2506644514899798
 40
0.3147766954639787
 40
0.37473299264258
 40
0.4369153089947683
 40
0.5002310841093618
 40
0.5685829682955018
 40
0.6397417870221711
 40
0.7500378105938775
 40
1.0
 40
1.0
 40
1.0
 40
1.0
 10
11.79833710193634
 20
35.1149326234792
 30
0.0
 10
12.62348473933509
 20
34.79794874030895
 30
0.0
 10
14.26880115457197
 20
34.16589362349409
 30
0.0
 10
16.4377612669788
 20
34.11904944442459
 30
0.0
 10
18.18527356335525
 20
33.45674711346496
 30
0.0
 10
19.31691549400375
 20
34.19727648335292
 30
0.0
 10
20.60836906731184
 20
34.78590081934113
 30
0.0
 10
21.79086504893635
 20
33.81139706403506
 30
0.0
 10
23.25343728802357
 20
34.04578830170931
 30
0.0
 10
24.95107298826231
 20
34.29178068705888
 30
0.0
 10
27.82942172987019
 20
35.26699562709256
 30
0.0
 10
29.89211234082332
 20
36.71056285682287
 30
0.0
 10
31.32329320667918
 20
37.71217007159168
 30
0.0
  0
SPLINE
  5
77
330
1F
100
AcDbEntity
  8
0
  6
Continuous
 62
     7
100
AcDbSpline
210
0.0
220
0.0
230
1.0
 70
     8
 71
     3
 72
    12
 73
     8
 74
     0
 42
0.00000001
 43
0.00000001
 40
0.0
 40
0.0
 40
0.0
 40
0.0
 40
0.2504256979419815
 40
0.3738168935020235
 40
0.5042245949346068
 40
0.7473724467312298
 40
0.9999999999999999
 40
0.9999999999999999
 40
0.9999999999999999
 40
0.9999999999999999
 10
18.67565512657166
 20
33.69467396189278
 30
0.0
 10
18.63365265843697
 20
33.08552200110189
 30
0.0
 10
18.57095449172902
 20
32.17622516964703
 30
0.0
 10
19.5640553261292
 20
31.45214052872715
 30
0.0
 10
20.68102236874304
 20
31.34907000882977
 30
0.0
 10
22.17938567838058
 20
32.09593589025943
 30
0.0
 10
22.1101510797828
 20
33.29630806146435
 30
0.0
 10
22.07487186450386
 20
33.90797028093937
 30
0.0
  0
SPLINE
  5
78
330
1F
100
AcDbEntity
  8
0
  6
Continuous
 62
     7
100
AcDbSpline
210
0.0
220
0.0
230
1.0
 70
     8
 71
     3
 72
    44
 73
    40
 74
     0
 42
0.00000001
 43
0.00000001
 40
0.0
 40
0.0
 40
0.0
 40
0.0
 40
0.0699868598779088
 40
0.1053673207374743
 40
0.140857617417446
 40
0.1798120402479557
 40
0.2195305653779746
 40
0.2820112849683413
 40
0.3152728077892745
 40
0.3441456305509121
 40
0.3478203071612427
 40
0.3524597115111239
 40
0.3759975120756651
 40
0.4381467490568091
 40
0.4508156576152296
 40
0.4575102264738667
 40
0.4601194401306055
 40
0.4622397726952542
 40
0.4661383501710616
 40
0.470049856809654
 40
0.5016070900158793
 40
0.5329931096290618
 40
0.5639965187434253
 40
0.5815643132584242
 40
0.586362067304111
 40
0.5910856624253348
 40
0.6040838987600499
 40
0.6273288152249794
 40
0.6624851785796416
 40
0.6801939356568644
 40
0.6889417626339895
 40
0.6976491894359834
 40
0.721205707533892
 40
0.7675578140492239
 40
0.8143129845543893
 40
0.8588706509647253
 40
0.8954175897769654
 40
0.9305201823325664
 40
1.0
 40
1.0
 40
1.0
 40
1.0
 10
11.60401105880737
 20
37.24942274422597
 30
0.0
 10
10.16762787234772
 20
38.43235698314244
 30
0.0
 10
8.005109820049995
 20
40.21330002846106
 30
0.0
 10
7.161076447148468
 20
43.82719025286826
 30
0.0
 10
7.161679473903322
 20
46.66771275740616
 30
0.0
 10
8.3441402175273
 20
49.43722184113817
 30
0.0
 10
7.808574709674791
 20
53.09817010459608
 30
0.0
 10
8.351857361289149
 20
56.53376589573244
 30
0.0
 10
9.20402510724269
 20
59.6500078218614
 30
0.0
 10
9.436854548632711
 20
61.2365419608096
 30
0.0
 10
9.916608666266482
 20
62.18460884838897
 30
0.0
 10
10.8465932435129
 20
61.98431947070023
 30
0.0
 10
12.49221415212631
 20
60.40833106246792
 30
0.0
 10
13.88461046571528
 20
58.25424010171268
 30
0.0
 10
14.79120641145773
 20
56.35439921737373
 30
0.0
 10
14.87875831724169
 20
55.79902403378911
 30
0.0
 10
14.99486563616206
 20
55.5222440306146
 30
0.0
 10
15.19691247586593
 20
55.39504882752097
 30
0.0
 10
15.46089661693901
 20
55.48421808849854
 30
0.0
 10
16.35173767659129
 20
55.90960624805375
 30
0.0
 10
18.07597559693113
 20
56.31704046959995
 30
0.0
 10
20.42627951016143
 20
56.37304798218904
 30
0.0
 10
22.61098632291371
 20
56.46235019433929
 30
0.0
 10
23.69867560650065
 20
55.6469207877854
 30
0.0
 10
24.44646039646965
 20
55.4738667969845
 30
0.0
 10
24.85316282795952
 20
55.97224941270017
 30
0.0
 10
25.08042861774236
 20
56.9835139584753
 30
0.0
 10
26.19028107137396
 20
58.48905223297804
 30
0.0
 10
27.34820875238394
 20
60.07064638230501
 30
0.0
 10
28.35098378514242
 20
61.21169462715609
 30
0.0
 10
29.17355928004302
 20
61.80868938307822
 30
0.0
 10
30.18192165127599
 20
61.14008105120259
 30
0.0
 10
30.74587114595164
 20
59.1673993237755
 30
0.0
 10
31.69970688121171
 20
56.35783521765535
 30
0.0
 10
32.2353154170779
 20
52.85173561507331
 30
0.0
 10
32.25617507730939
 20
49.56838986385382
 30
0.0
 10
32.86030622849356
 20
46.65938664927776
 30
0.0
 10
32.92278146106575
 20
42.96613140340401
 30
0.0
 10
31.50919935297105
 20
40.60638351173512
 30
0.0
 10
30.57007940996237
 20
39.03867386625448
 30
0.0
  0
LWPOLYLINE
  5
79
330
1F
100
AcDbEntity
  8
0
  6
Continuous
 62
     7
100
AcDbPolyline
 90
        3
 70
   128
 43
0.0
 10
9.5224753022
 20
49.8095413443
 10
10.1667724684
 20
54.9737563067
 10
10.6730033073
 20
59.0313537771
  0
SPLINE
  5
7A
330
1F
100
AcDbEntity
  8
0
  6
Continuous
 62
     7
100
AcDbSpline
210
0.0
220
0.0
230
1.0
 70
     8
 71
     3
 72
     9
 73
     5
 74
     0
 42
0.00000001
 43
0.00000001
 40
0.0
 40
0.0
 40
0.0
 40
0.0
 40
0.5747310534951768
 40
1.0
 40
1.0
 40
1.0
 40
1.0
 10
18.82968842983246
 20
45.78360645012359
 30
0.0
 10
19.2757284865529
 20
45.95957645810312
 30
0.0
 10
20.05181332485752
 20
46.26575446416244
 30
0.0
 10
20.84276940716782
 20
46.02958539993024
 30
0.0
 10
21.1791384670235
 20
45.92915003078719
 30
0.0
  0
SPLINE
  5
7B
330
1F
100
AcDbEntity
  8
0
  6
Continuous
 62
     7
100
AcDbSpline
210
0.0
220
0.0
230
1.0
 70
     8
 71
     3
 72
    10
 73
     6
 74
     0
 42
0.00000001
 43
0.00000001
 40
0.0
 40
0.0
 40
0.0
 40
0.0
 40
0.2513239731417883
 40
0.5048127711169607
 40
1.0
 40
1.0
 40
1.0
 40
1.0
 10
17.1830803155899
 20
43.99663548265351
 30
0.0
 10
17.39629836386922
 20
43.81454769636787
 30
0.0
 10
17.8245710529346
 20
43.44880367747338
 30
0.0
 10
19.00769473498271
 20
43.46165504192548
 30
0.0
 10
19.61994754106722
 20
44.04524590841163
 30
0.0
 10
20.02490210024167
 20
44.43124296669789
 30
0.0
  0
SPLINE
  5
7C
330
1F
100
AcDbEntity
  8
0
  6
Continuous
 62
     7
100
AcDbSpline
210
0.0
220
0.0
230
1.0
 70
     8
 71
     3
 72
     9
 73
     5
 74
     0
 42
0.00000001
 43
0.00000001
 40
0.0
 40
0.0
 40
0.0
 40
0.0
 40
0.5572794591946104
 40
1.0
 40
1.0
 40
1.0
 40
1.0
 10
23.37001264095306
 20
43.99663548265351
 30
0.0
 10
22.67417684321494
 20
43.67167716073037
 30
0.0
 10
21.4255469390305
 20
43.08856160432212
 30
0.0
 10
20.45471107777152
 20
44.01922095545761
 30
0.0
 10
20.02490210024167
 20
44.43124296669789
 30
0.0
  0
SPLINE
  5
7D
330
1F
100
AcDbEntity
  8
0
  6
Continuous
 62
     7
100
AcDbSpline
210
0.0
220
0.0
230
1.0
 70
     8
 71
     3
 72
     9
 73
     5
 74
     0
 42
0.00000001
 43
0.00000001
 40
0.0
 40
0.0
 40
0.0
 40
0.0
 40
0.5603144095678945
 40
1.0
 40
1.0
 40
1.0
 40
1.0
 10
3.461267799139023
 20
43.56762649297835
 30
0.0
 10
4.56958625512039
 20
43.9737716280796
 30
0.0
 10
6.54761579899038
 20
44.69862383278097
 30
0.0
 10
8.613943957183299
 20
44.34985723458538
 30
0.0
 10
9.522478673444835
 20
44.19650958693475
 30
0.0
  0
SPLINE
  5
7E
330
1F
100
AcDbEntity
  8
0
  6
Continuous
 62
     7
100
AcDbSpline
210
0.0
220
0.0
230
1.0
 70
     8
 71
     3
 72
     9
 73
     5
 74
     0
 42
0.00000001
 43
0.00000001
 40
0.0
 40
0.0
 40
0.0
 40
0.0
 40
0.5607092064720364
 40
1.0
 40
1.0
 40
1.0
 40
1.0
 10
3.249632194638252
 20
38.58299607017189
 30
0.0
 10
4.286270204610157
 20
39.66473357431651
 30
0.0
 10
6.135068116266353
 20
41.59396443348301
 30
0.0
 10
8.693998628425975
 20
42.30938011815821
 30
0.0
 10
9.818113243695493
 20
42.62365564198152
 30
0.0
  0
SPLINE
  5
7F
330
1F
100
AcDbEntity
  8
0
  6
Continuous
 62
     7
100
AcDbSpline
210
0.0
220
0.0
230
1.0
 70
     8
 71
     3
 72
    10
 73
     6
 74
     0
 42
0.00000001
 43
0.00000001
 40
0.0
 40
0.0
 40
0.0
 40
0.0
 40
0.2798691386733878
 40
0.5613953791607332
 40
1.0
 40
1.0
 40
1.0
 40
1.0
 10
30.74163198471069
 20
44.19650958693475
 30
0.0
 10
31.43902984559345
 20
44.51794637540915
 30
0.0
 10
32.83795485173022
 20
45.1627231757279
 30
0.0
 10
35.60591777252642
 20
45.24243681493277
 30
0.0
 10
37.53574378474696
 20
44.93479692444394
 30
0.0
 10
38.71112822087079
 20
44.74742503862542
 30
0.0
  0
SPLINE
  5
80
330
1F
100
AcDbEntity
  8
0
  6
Continuous
 62
     7
100
AcDbSpline
210
0.0
220
0.0
230
1.0
 70
     8
 71
     3
 72
    10
 73
     6
 74
     0
 42
0.00000001
 43
0.00000001
 40
0.0
 40
0.0
 40
0.0
 40
0.0
 40
0.5583059111661979
 40
0.7815059260690914
 40
1.0
 40
1.0
 40
1.0
 40
1.0
 10
30.93300759792328
 20
42.43722804247487
 30
0.0
 10
32.1422008520389
 20
42.24274253623899
 30
0.0
 10
33.83480641997964
 20
41.97050544790076
 30
0.0
 10
35.98563253631875
 20
41.26952645111513
 30
0.0
 10
36.64838381167465
 20
40.53246704944724
 30
0.0
 10
36.97622887416519
 20
40.16786377430564
 30
0.0
  0
SPLINE
  5
81
330
1F
100
AcDbEntity
  8
0
  6
Continuous
 62
     7
100
AcDbSpline
210
0.0
220
0.0
230
1.0
 70
     8
 71
     3
 72
     9
 73
     5
 74
     0
 42
0.00000001
 43
0.00000001
 40
0.0
 40
0.0
 40
0.0
 40
0.0
 40
0.560081776815691
 40
1.0
 40
1.0
 40
1.0
 40
1.0
 10
15.10865241289139
 20
6.976315399943591
 30
0.0
 10
14.89850334329256
 20
6.804902240751665
 30
0.0
 10
14.52329193971216
 20
6.498852006147563
 30
0.0
 10
14.23555139634059
 20
6.110167365438592
 30
0.0
 10
14.10896908776248
 20
5.939177908918872
 30
0.0
  0
SPLINE
  5
82
330
1F
100
AcDbEntity
  8
0
  6
Continuous
 62
     7
100
AcDbSpline
210
0.0
220
0.0
230
1.0
 70
     8
 71
     3
 72
     9
 73
     5
 74
     0
 42
0.00000001
 43
0.00000001
 40
0.0
 40
0.0
 40
0.0
 40
0.0
 40
0.5601575509392276
 40
0.9999999999999999
 40
0.9999999999999999
 40
0.9999999999999999
 40
0.9999999999999999
 10
16.23524725437164
 20
6.581579254128474
 30
0.0
 10
16.08402012598642
 20
6.380087946430585
 30
0.0
 10
15.81404763676145
 20
6.020383239495824
 30
0.0
 10
15.6675956698982
 20
5.596066002558792
 30
0.0
 10
15.6031798781233
 20
5.409433269885709
 30
0.0
  0
SPLINE
  5
83
330
1F
100
AcDbEntity
  8
0
  6
Continuous
 62
     7
100
AcDbSpline
210
0.0
220
0.0
230
1.0
 70
     8
 71
     3
 72
     9
 73
     5
 74
     0
 42
0.00000001
 43
0.00000001
 40
0.0
 40
0.0
 40
0.0
 40
0.0
 40
0.559120433183536
 40
1.0
 40
1.0
 40
1.0
 40
1.0
 10
25.10350942611694
 20
6.165009630055354
 30
0.0
 10
25.26450899293761
 20
5.988158097674248
 30
0.0
 10
25.55246049187311
 20
5.671854986778902
 30
0.0
 10
25.72254120483668
 20
5.280363145313366
 30
0.0
 10
25.79752631589189
 20
5.107762391835859
 30
0.0
  0
SPLINE
  5
84
330
1F
100
AcDbEntity
  8
0
  6
Continuous
 62
     7
100
AcDbSpline
210
0.0
220
0.0
230
1.0
 70
     8
 71
     3
 72
     9
 73
     5
 74
     0
 42
0.00000001
 43
0.00000001
 40
0.0
 40
0.0
 40
0.0
 40
0.0
 40
0.5599904237716186
 40
1.0
 40
1.0
 40
1.0
 40
1.0
 10
26.30884945392609
 20
6.508759974183992
 30
0.0
 10
26.42352693809245
 20
6.289457954375147
 30
0.0
 10
26.62831166172039
 20
5.897840507898453
 30
0.0
 10
26.85122551660033
 20
5.516273690367997
 30
0.0
 10
26.94930974742149
 20
5.348380636683609
 30
0.0
  0
SPLINE
  5
85
330
1F
100
AcDbEntity
  8
0
  6
Continuous
 62
     7
100
AcDbSpline
210
0.0
220
0.0
230
1.0
 70
     8
 71
     3
 72
     9
 73
     5
 74
     0
 42
0.00000001
 43
0.00000001
 40
0.0
 40
0.0
 40
0.0
 40
0.0
 40
0.5589442606822714
 40
1.0
 40
1.0
 40
1.0
 40
1.0
 10
30.74163198471069
 20
8.564316463869593
 30
0.0
 10
30.52537421804988
 20
8.394441088736714
 30
0.0
 10
30.13847022444444
 20
8.090519236268776
 30
0.0
 10
29.86811862440237
 20
7.680643354093853
 30
0.0
 10
29.74887849957008
 20
7.499865243852684
 30
0.0
  0
SPLINE
  5
86
330
1F
100
AcDbEntity
  8
0
  6
Continuous
 62
     7
100
AcDbSpline
210
0.0
220
0.0
230
1.0
 70
     8
 71
     3
 72
     9
 73
     5
 74
     0
 42
0.00000001
 43
0.00000001
 40
0.0
 40
0.0
 40
0.0
 40
0.0
 40
0.5601810861104889
 40
1.0
 40
1.0
 40
1.0
 40
1.0
 10
31.86759352684021
 20
7.927964965380282
 30
0.0
 10
31.66882076419148
 20
7.802972149327921
 30
0.0
 10
31.31398414514591
 20
7.579842844980597
 30
0.0
 10
31.13739561118654
 20
7.202635992114624
 30
0.0
 10
31.05972863397519
 20
7.03673328377543
 30
0.0
  0
MTEXT
  5
88
330
1F
100
AcDbEntity
  8
0
  6
Continuous
 62
     7
100
AcDbMText
 10
3.2496321946
 20
4.0881960002
 30
0.0
 40
4.83362
 41
0.0
 71
     1
 72
     1
  1
Producto SOLIDWORKS Educational.
  7
SLDTEXTSTYLE0
 73
     1
 44
1.0
  0
MTEXT
  5
89
330
1F
100
AcDbEntity
  8
0
  6
Continuous
 62
     7
100
AcDbMText
 10
3.2496321946
 20
-3.1622339998
 30
0.0
 40
4.83362
 41
0.0
 71
     1
 72
     1
  1
Solo para uso en la enseñanza.
  7
SLDTEXTSTYLE0
 73
     1
 44
1.0
  0
ENDSEC
  0
SECTION
  2
OBJECTS
  0
DICTIONARY
  5
C
330
0
100
AcDbDictionary
281
     1
  3
ACAD_GROUP
350
D
  3
ACAD_LAYOUT
350
1A
  3
ACAD_MLINESTYLE
350
17
  3
ACAD_PLOTSETTINGS
350
19
  3
ACAD_PLOTSTYLENAME
350
E
  3
ACAD_SCALELIST
350
47
  3
DWGPROPS
350
8A
  0
DICTIONARY
  5
D
102
{ACAD_REACTORS
330
C
102
}
330
C
100
AcDbDictionary
281
     1
  0
DICTIONARY
  5
1A
102
{ACAD_REACTORS
330
C
102
}
330
C
100
AcDbDictionary
281
     1
  3
Layout1
350
1E
  3
Layout2
350
26
  3
Model
350
22
  0
DICTIONARY
  5
17
102
{ACAD_REACTORS
330
C
102
}
330
C
100
AcDbDictionary
281
     1
  3
Standard
350
18
  0
DICTIONARY
  5
19
102
{ACAD_REACTORS
330
C
102
}
330
C
100
AcDbDictionary
281
     1
  0
ACDBDICTIONARYWDFLT
  5
E
102
{ACAD_REACTORS
330
C
102
}
330
C
100
AcDbDictionary
281
     1
  3
Normal
350
F
100
AcDbDictionaryWithDefault
340
F
  0
DICTIONARY
  5
47
102
{ACAD_REACTORS
330
C
102
}
330
C
100
AcDbDictionary
281
     1
  3
A0
350
48
  3
A1
350
49
  3
A2
350
4A
  3
A3
350
4B
  3
A4
350
4C
  3
A5
350
4D
  3
A6
350
4E
  3
A7
350
4F
  3
A8
350
50
  3
A9
350
51
  3
B0
350
52
  3
B1
350
53
  3
B2
350
54
  3
B3
350
55
  3
B4
350
56
  3
B5
350
57
  3
B6
350
58
  0
XRECORD
  5
8A
102
{ACAD_REACTORS
330
C
102
}
330
C
100
AcDbXrecord
280
     1
  1
DWGPROPS COOKIE
  2

  3

  4

  6

  7

  8
KAREN
  9

300
=
301
=
302
=
303
=
304
=
305
=
306
=
307
=
308
=
309
=
 40
0.0
 41
2460955.199927743
 42
2460955.200248773
  1

 90
        0
  0
LAYOUT
  5
1E
102
{ACAD_REACTORS
330
1A
102
}
330
1A
100
AcDbPlotSettings
  1

  2
none_device
  4

  6

 40
0.0
 41
0.0
 42
0.0
 43
0.0
 44
0.0
 45
0.0
 46
0.0
 47
0.0
 48
0.0
 49
0.0
140
0.0
141
0.0
142
1.0
143
1.0
 70
   688
 72
     1
 73
     0
 74
     5
  7

 75
    16
147
1.0
148
0.0
149
0.0
100
AcDbLayout
  1
Layout1
 70
     1
 71
     1
 10
0.0
 20
0.0
 11
420.0
 21
297.0
 12
0.0
 22
0.0
 32
0.0
 14
1.0000000000E+20
 24
1.0000000000E+20
 34
1.0000000000E+20
 15
-1.0000000000E+20
 25
-1.0000000000E+20
 35
-1.0000000000E+20
146
0.0
 13
0.0
 23
0.0
 33
0.0
 16
1.0
 26
0.0
 36
0.0
 17
0.0
 27
1.0
 37
0.0
 76
     0
330
1B
  0
LAYOUT
  5
26
102
{ACAD_REACTORS
330
1A
102
}
330
1A
100
AcDbPlotSettings
  1

  2
none_device
  4

  6

 40
0.0
 41
0.0
 42
0.0
 43
0.0
 44
0.0
 45
0.0
 46
0.0
 47
0.0
 48
0.0
 49
0.0
140
0.0
141
0.0
142
1.0
143
1.0
 70
   688
 72
     1
 73
     0
 74
     5
  7

 75
    16
147
1.0
148
0.0
149
0.0
100
AcDbLayout
  1
Layout2
 70
     1
 71
     2
 10
0.0
 20
0.0
 11
0.0
 21
0.0
 12
0.0
 22
0.0
 32
0.0
 14
0.0
 24
0.0
 34
0.0
 15
0.0
 25
0.0
 35
0.0
146
0.0
 13
0.0
 23
0.0
 33
0.0
 16
1.0
 26
0.0
 36
0.0
 17
0.0
 27
1.0
 37
0.0
 76
     0
330
23
  0
LAYOUT
  5
22
102
{ACAD_REACTORS
330
1A
102
}
330
1A
100
AcDbPlotSettings
  1

  2
none_device
  4
ANSI_A_(11.00_x_8.50_Inches)
  6

 40
6.35
 41
19.05
 42
6.35000508
 43
19.05000254
 44
279.4
 45
215.9
 46
37.130789387
 47
-37.113864964
 48
0.0
 49
0.0
140
0.0
141
0.0
142
0.1475549719
143
1.0
 70
  1696
 72
     0
 73
     0
 74
     0
  7

 75
     0
147
0.0179189148
148
-1300.4909072572
149
0.0
100
AcDbLayout
  1
Model
 70
     1
 71
     0
 10
0.0
 20
0.0
 11
420.0
 21
297.0
 12
0.0
 22
0.0
 32
0.0
 14
3.2496321946
 24
5.1077623918
 34
0.0
 15
48.0960832422
 25
62.1373554585
 35
0.0
146
0.0
 13
0.0
 23
0.0
 33
0.0
 16
1.0
 26
0.0
 36
0.0
 17
0.0
 27
1.0
 37
0.0
 76
     0
330
1F
331
29
  0
MLINESTYLE
  5
18
102
{ACAD_REACTORS
330
17
102
}
330
17
100
AcDbMlineStyle
  2
Standard
 70
     0
  3

 62
   256
 51
90.0
 52
90.0
 71
     2
 49
0.5
 62
   256
  6
BYLAYER
 49
-0.5
 62
   256
  6
BYLAYER
  0
ACDBPLACEHOLDER
  5
F
102
{ACAD_REACTORS
330
E
102
}
330
E
  0
SCALE
  5
48
102
{ACAD_REACTORS
330
47
102
}
330
47
100
AcDbScale
 70
     0
300
1:1
140
1.0
141
1.0
290
     1
  0
SCALE
  5
49
102
{ACAD_REACTORS
330
47
102
}
330
47
100
AcDbScale
 70
     0
300
1:2
140
1.0
141
2.0
290
     0
  0
SCALE
  5
4A
102
{ACAD_REACTORS
330
47
102
}
330
47
100
AcDbScale
 70
     0
300
1:4
140
1.0
141
4.0
290
     0
  0
SCALE
  5
4B
102
{ACAD_REACTORS
330
47
102
}
330
47
100
AcDbScale
 70
     0
300
1:5
140
1.0
141
5.0
290
     0
  0
SCALE
  5
4C
102
{ACAD_REACTORS
330
47
102
}
330
47
100
AcDbScale
 70
     0
300
1:8
140
1.0
141
8.0
290
     0
  0
SCALE
  5
4D
102
{ACAD_REACTORS
330
47
102
}
330
47
100
AcDbScale
 70
     0
300
1:10
140
1.0
141
10.0
290
     0
  0
SCALE
  5
4E
102
{ACAD_REACTORS
330
47
102
}
330
47
100
AcDbScale
 70
     0
300
1:16
140
1.0
141
16.0
290
     0
  0
SCALE
  5
4F
102
{ACAD_REACTORS
330
47
102
}
330
47
100
AcDbScale
 70
     0
300
1:20
140
1.0
141
20.0
290
     0
  0
SCALE
  5
50
102
{ACAD_REACTORS
330
47
102
}
330
47
100
AcDbScale
 70
     0
300
1:30
140
1.0
141
30.0
290
     0
  0
SCALE
  5
51
102
{ACAD_REACTORS
330
47
102
}
330
47
100
AcDbScale
 70
     0
300
1:40
140
1.0
141
40.0
290
     0
  0
SCALE
  5
52
102
{ACAD_REACTORS
330
47
102
}
330
47
100
AcDbScale
 70
     0
300
1:50
140
1.0
141
50.0
290
     0
  0
SCALE
  5
53
102
{ACAD_REACTORS
330
47
102
}
330
47
100
AcDbScale
 70
     0
300
1:100
140
1.0
141
100.0
290
     0
  0
SCALE
  5
54
102
{ACAD_REACTORS
330
47
102
}
330
47
100
AcDbScale
 70
     0
300
2:1
140
2.0
141
1.0
290
     0
  0
SCALE
  5
55
102
{ACAD_REACTORS
330
47
102
}
330
47
100
AcDbScale
 70
     0
300
4:1
140
4.0
141
1.0
290
     0
  0
SCALE
  5
56
102
{ACAD_REACTORS
330
47
102
}
330
47
100
AcDbScale
 70
     0
300
8:1
140
8.0
141
1.0
290
     0
  0
SCALE
  5
57
102
{ACAD_REACTORS
330
47
102
}
330
47
100
AcDbScale
 70
     0
300
10:1
140
10.0
141
1.0
290
     0
  0
SCALE
  5
58
102
{ACAD_REACTORS
330
47
102
}
330
47
100
AcDbScale
 70
     0
300
100:1
140
100.0
141
1.0
290
     0
  0
ENDSEC
  0
EOF
