  0
SECTION
  2
HEADER
  9
$ACADVER
  1
AC1015
  9
$ACADMAINTVER
 70
     6
  9
$DWGCODEPAGE
  3
ANSI_1252
  9
$INSBASE
 10
0.0
 20
0.0
 30
0.0
  9
$EXTMIN
 10
-140.0
 20
-100.0
 30
0.0
  9
$EXTMAX
 10
140.0
 20
100.0
 30
0.0
  9
$LIMMIN
 10
0.0
 20
0.0
  9
$LIMMAX
 10
420.0
 20
297.0
  9
$ORTHOMODE
 70
     0
  9
$REGENMODE
 70
     1
  9
$FILLMODE
 70
     1
  9
$QTEXTMODE
 70
     0
  9
$MIRRTEXT
 70
     1
  9
$LTSCALE
 40
1.0
  9
$ATTMODE
 70
     1
  9
$TEXTSIZE
 40
3.5
  9
$TRACEWID
 40
1.0
  9
$TEXTSTYLE
  7
Standard
  9
$CLAYER
  8
0
  9
$CELTYPE
  6
ByLayer
  9
$CECOLOR
 62
   256
  9
$CELTSCALE
 40
1.0
  9
$DISPSILH
 70
     0
  9
$DIMSCALE
 40
1.0
  9
$DIMASZ
 40
3.302
  9
$DIMEXO
 40
0.0
  9
$DIMDLI
 40
3.75
  9
$DIMRND
 40
0.0
  9
$DIMDLE
 40
0.0
  9
$DIMEXE
 40
1.0
  9
$DIMTP
 40
0.0
  9
$DIMTM
 40
0.0
  9
$DIMTXT
 40
3.5
  9
$DIMCEN
 40
2.5
  9
$DIMTSZ
 40
0.0
  9
$DIMTOL
 70
     0
  9
$DIMLIM
 70
     0
  9
$DIMTIH
 70
     1
  9
$DIMTOH
 70
     1
  9
$DIMSE1
 70
     0
  9
$DIMSE2
 70
     0
  9
$DIMTAD
 70
     1
  9
$DIMZIN
 70
     1
  9
$DIMBLK
  1

  9
$DIMASO
 70
     1
  9
$DIMSHO
 70
     1
  9
$DIMPOST
  1

  9
$DIMAPOST
  1

  9
$DIMALT
 70
     0
  9
$DIMALTD
 70
     3
  9
$DIMALTF
 40
0.0393700787
  9
$DIMLFAC
 40
1.0
  9
$DIMTOFL
 70
     1
  9
$DIMTVP
 40
0.0
  9
$DIMTIX
 70
     0
  9
$DIMSOXD
 70
     0
  9
$DIMSAH
 70
     0
  9
$DIMBLK1
  1

  9
$DIMBLK2
  1

  9
$DIMSTYLE
  2
ISO-25
  9
$DIMCLRD
 70
     0
  9
$DIMCLRE
 70
     0
  9
$DIMCLRT
 70
     0
  9
$DIMTFAC
 40
1.0
  9
$DIMGAP
 40
1.524
  9
$DIMJUST
 70
     0
  9
$DIMSD1
 70
     0
  9
$DIMSD2
 70
     0
  9
$DIMTOLJ
 70
     0
  9
$DIMTZIN
 70
     1
  9
$DIMALTZ
 70
     0
  9
$DIMALTTZ
 70
     0
  9
$DIMUPT
 70
     0
  9
$DIMDEC
 70
     2
  9
$DIMTDEC
 70
     2
  9
$DIMALTU
 70
     2
  9
$DIMALTTD
 70
     3
  9
$DIMTXSTY
  7
Standard
  9
$DIMAUNIT
 70
     0
  9
$DIMADEC
 70
     2
  9
$DIMALTRND
 40
0.0
  9
$DIMAZIN
 70
     0
  9
$DIMDSEP
 70
    44
  9
$DIMATFIT
 70
     3
  9
$DIMFRAC
 70
     0
  9
$DIMLDRBLK
  1

  9
$DIMLUNIT
 70
     2
  9
$DIMLWD
 70
    -2
  9
$DIMLWE
 70
    -2
  9
$DIMTMOVE
 70
     0
  9
$LUNITS
 70
     2
  9
$LUPREC
 70
     2
  9
$SKETCHINC
 40
1.0
  9
$FILLETRAD
 40
0.0
  9
$AUNITS
 70
     0
  9
$AUPREC
 70
     2
  9
$MENU
  1
.
  9
$ELEVATION
 40
0.0
  9
$PELEVATION
 40
0.0
  9
$THICKNESS
 40
0.0
  9
$LIMCHECK
 70
     0
  9
$CHAMFERA
 40
0.0
  9
$CHAMFERB
 40
0.0
  9
$CHAMFERC
 40
0.0
  9
$CHAMFERD
 40
0.0
  9
$SKPOLY
 70
     0
  9
$TDCREATE
 40
2460994.392409271
  9
$TDUCREATE
 40
2460994.642409271
  9
$TDUPDATE
 40
2460994.39268191
  9
$TDUUPDATE
 40
2460994.64268191
  9
$TDINDWG
 40
0.0000000116
  9
$TDUSRTIMER
 40
0.0000000116
  9
$USRTIMER
 70
     1
  9
$ANGBASE
 50
0.0
  9
$ANGDIR
 70
     0
  9
$PDMODE
 70
     0
  9
$PDSIZE
 40
-1.0
  9
$PLINEWID
 40
0.0
  9
$SPLFRAME
 70
     0
  9
$SPLINETYPE
 70
     6
  9
$SPLINESEGS
 70
     8
  9
$HANDSEED
  5
80
  9
$SURFTAB1
 70
     6
  9
$SURFTAB2
 70
     6
  9
$SURFTYPE
 70
     6
  9
$SURFU
 70
     6
  9
$SURFV
 70
     6
  9
$UCSBASE
  2

  9
$UCSNAME
  2

  9
$UCSORG
 10
0.0
 20
0.0
 30
0.0
  9
$UCSXDIR
 10
1.0
 20
0.0
 30
0.0
  9
$UCSYDIR
 10
0.0
 20
1.0
 30
0.0
  9
$UCSORTHOREF
  2

  9
$UCSORTHOVIEW
 70
     0
  9
$UCSORGTOP
 10
0.0
 20
0.0
 30
0.0
  9
$UCSORGBOTTOM
 10
0.0
 20
0.0
 30
0.0
  9
$UCSORGLEFT
 10
0.0
 20
0.0
 30
0.0
  9
$UCSORGRIGHT
 10
0.0
 20
0.0
 30
0.0
  9
$UCSORGFRONT
 10
0.0
 20
0.0
 30
0.0
  9
$UCSORGBACK
 10
0.0
 20
0.0
 30
0.0
  9
$PUCSBASE
  2

  9
$PUCSNAME
  2

  9
$PUCSORG
 10
0.0
 20
0.0
 30
0.0
  9
$PUCSXDIR
 10
1.0
 20
0.0
 30
0.0
  9
$PUCSYDIR
 10
0.0
 20
1.0
 30
0.0
  9
$PUCSORTHOREF
  2

  9
$PUCSORTHOVIEW
 70
     0
  9
$PUCSORGTOP
 10
0.0
 20
0.0
 30
0.0
  9
$PUCSORGBOTTOM
 10
0.0
 20
0.0
 30
0.0
  9
$PUCSORGLEFT
 10
0.0
 20
0.0
 30
0.0
  9
$PUCSORGRIGHT
 10
0.0
 20
0.0
 30
0.0
  9
$PUCSORGFRONT
 10
0.0
 20
0.0
 30
0.0
  9
$PUCSORGBACK
 10
0.0
 20
0.0
 30
0.0
  9
$USERI1
 70
     0
  9
$USERI2
 70
     0
  9
$USERI3
 70
     0
  9
$USERI4
 70
     0
  9
$USERI5
 70
     0
  9
$USERR1
 40
0.0
  9
$USERR2
 40
0.0
  9
$USERR3
 40
0.0
  9
$USERR4
 40
0.0
  9
$USERR5
 40
0.0
  9
$WORLDVIEW
 70
     1
  9
$SHADEDGE
 70
     3
  9
$SHADEDIF
 70
    70
  9
$TILEMODE
 70
     1
  9
$MAXACTVP
 70
    64
  9
$PINSBASE
 10
0.0
 20
0.0
 30
0.0
  9
$PLIMCHECK
 70
     0
  9
$PEXTMIN
 10
1.0000000000E+20
 20
1.0000000000E+20
 30
1.0000000000E+20
  9
$PEXTMAX
 10
-1.0000000000E+20
 20
-1.0000000000E+20
 30
-1.0000000000E+20
  9
$PLIMMIN
 10
0.0
 20
0.0
  9
$PLIMMAX
 10
420.0
 20
297.0
  9
$UNITMODE
 70
     0
  9
$VISRETAIN
 70
     1
  9
$PLINEGEN
 70
     0
  9
$PSLTSCALE
 70
     1
  9
$TREEDEPTH
 70
  3020
  9
$CMLSTYLE
  2
Standard
  9
$CMLJUST
 70
     0
  9
$CMLSCALE
 40
20.0
  9
$PROXYGRAPHICS
 70
     1
  9
$MEASUREMENT
 70
     1
  9
$CELWEIGHT
370
    -1
  9
$ENDCAPS
280
     0
  9
$JOINSTYLE
280
     0
  9
$LWDISPLAY
290
     1
  9
$INSUNITS
 70
     4
  9
$HYPERLINKBASE
  1

  9
$STYLESHEET
  1

  9
$XEDIT
290
     1
  9
$CEPSNTYPE
380
     0
  9
$PSTYLEMODE
290
     1
  9
$FINGERPRINTGUID
  2
{03df0bd6-b13e-4716-9d5b-e09856068b9e}
  9
$VERSIONGUID
  2
{FAEB1C32-E019-11D5-929B-00C0DF256EC4}
  9
$EXTNAMES
290
     1
  9
$PSVPSCALE
 40
0.0
  9
$OLESTARTUP
290
     0
  0
ENDSEC
  0
SECTION
  2
CLASSES
  0
CLASS
  1
ACDBDICTIONARYWDFLT
  2
AcDbDictionaryWithDefault
  3
ObjectDBX Classes
 90
        0
280
     0
281
     0
  0
CLASS
  1
VISUALSTYLE
  2
AcDbVisualStyle
  3
ObjectDBX Classes
 90
     4095
280
     0
281
     0
  0
CLASS
  1
MATERIAL
  2
AcDbMaterial
  3
ObjectDBX Classes
 90
     1153
280
     0
281
     0
  0
CLASS
  1
SCALE
  2
AcDbScale
  3
ObjectDBX Classes
 90
     1153
280
     0
281
     0
  0
CLASS
  1
TABLESTYLE
  2
AcDbTableStyle
  3
ObjectDBX Classes
 90
     4095
280
     0
281
     0
  0
CLASS
  1
MLEADERSTYLE
  2
AcDbMLeaderStyle
  3
ACDB_MLEADERSTYLE_CLASS
 90
     4095
280
     0
281
     0
  0
CLASS
  1
SUN
  2
AcDbSun
  3
SCENEOE
 90
     1153
280
     0
281
     0
  0
CLASS
  1
ACDBPLACEHOLDER
  2
AcDbPlaceHolder
  3
ObjectDBX Classes
 90
        0
280
     0
281
     0
  0
CLASS
  1
LAYOUT
  2
AcDbLayout
  3
ObjectDBX Classes
 90
        0
280
     0
281
     0
  0
ENDSEC
  0
SECTION
  2
TABLES
  0
TABLE
  2
VPORT
  5
8
330
0
100
AcDbSymbolTable
 70
     1
  0
VPORT
  5
29
330
8
100
AcDbSymbolTableRecord
100
AcDbViewportTableRecord
  2
*Active
 70
     0
 10
0.0
 20
0.0
 11
1.0
 21
1.0
 12
0.0
 22
0.0
 13
0.0
 23
0.0
 14
10.0
 24
10.0
 15
10.0
 25
10.0
 16
0.0
 26
0.0
 36
1.0
 17
0.0
 27
0.0
 37
0.0
 40
204.0
 41
1.4
 42
50.0
 43
0.0
 44
0.0
 50
0.0
 51
0.0
 71
     0
 72
   100
 73
     1
 74
     3
 75
     0
 76
     0
 77
     0
 78
     0
281
     0
 65
     1
110
0.0
120
0.0
130
0.0
111
1.0
121
0.0
131
0.0
112
0.0
122
1.0
132
0.0
 79
     0
146
0.0
  0
ENDTAB
  0
TABLE
  2
LTYPE
  5
5
330
0
100
AcDbSymbolTable
 70
     6
  0
LTYPE
  5
14
330
5
100
AcDbSymbolTableRecord
100
AcDbLinetypeTableRecord
  2
ByBlock
 70
     0
  3

 72
    65
 73
     0
 40
0.0
  0
LTYPE
  5
15
330
5
100
AcDbSymbolTableRecord
100
AcDbLinetypeTableRecord
  2
ByLayer
 70
     0
  3

 72
    65
 73
     0
 40
0.0
  0
LTYPE
  5
16
330
5
100
AcDbSymbolTableRecord
100
AcDbLinetypeTableRecord
  2
Continuous
 70
     0
  3
Solid line
 72
    65
 73
     0
 40
0.0
  0
LTYPE
  5
5E
330
5
100
AcDbSymbolTableRecord
100
AcDbLinetypeTableRecord
  2
HIDDEN
 70
     0
  3
Hidden __ __ __ __ __ __ __ __ __ __ __ __ __ __
 72
    65
 73
     2
 40
1.905
 49
1.27
 74
     0
 49
-0.635
 74
     0
  0
LTYPE
  5
5F
330
5
100
AcDbSymbolTableRecord
100
AcDbLinetypeTableRecord
  2
PHANTOM
 70
     0
  3
Phantom ______  __  __  ______  __  __  ______
 72
    65
 73
     6
 40
12.7
 49
6.35
 74
     0
 49
-1.27
 74
     0
 49
1.27
 74
     0
 49
-1.27
 74
     0
 49
1.27
 74
     0
 49
-1.27
 74
     0
  0
LTYPE
  5
60
330
5
100
AcDbSymbolTableRecord
100
AcDbLinetypeTableRecord
  2
CENTER
 70
     0
  3
Center ____ _ ____ _ ____ _ ____ _ ____ _ ____
 72
    65
 73
     4
 40
10.16
 49
6.35
 74
     0
 49
-1.27
 74
     0
 49
1.27
 74
     0
 49
-1.27
 74
     0
  0
LTYPE
  5
61
330
5
100
AcDbSymbolTableRecord
100
AcDbLinetypeTableRecord
  2
CENTERX2
 70
     0
  3
Center (2x) ________  __  ________  __  _____
 72
    65
 73
     4
 40
20.32
 49
12.7
 74
     0
 49
-2.54
 74
     0
 49
2.54
 74
     0
 49
-2.54
 74
     0
  0
LTYPE
  5
62
330
5
100
AcDbSymbolTableRecord
100
AcDbLinetypeTableRecord
  2
DOT2
 70
     0
  3
Dot (.5x) ........................................
 72
    65
 73
     2
 40
0.635
 49
0.0
 74
     0
 49
-0.635
 74
     0
  0
ENDTAB
  0
TABLE
  2
LAYER
  5
2
330
0
100
AcDbSymbolTable
 70
     1
  0
LAYER
  5
10
330
2
100
AcDbSymbolTableRecord
100
AcDbLayerTableRecord
  2
0
 70
     0
 62
     7
  6
Continuous
370
    -3
390
F
  0
ENDTAB
  0
TABLE
  2
STYLE
  5
3
330
0
100
AcDbSymbolTable
 70
     1
  0
STYLE
  5
11
330
3
100
AcDbSymbolTableRecord
100
AcDbTextStyleTableRecord
  2
Standard
 70
     0
 40
0.0
 41
1.0
 50
0.0
 71
     0
 42
3.5
  3
txt
  4

  0
ENDTAB
  0
TABLE
  2
VIEW
  5
6
330
0
100
AcDbSymbolTable
 70
     0
  0
ENDTAB
  0
TABLE
  2
UCS
  5
7
330
0
100
AcDbSymbolTable
 70
     0
  0
ENDTAB
  0
TABLE
  2
APPID
  5
9
330
0
100
AcDbSymbolTable
 70
     1
  0
APPID
  5
12
330
9
100
AcDbSymbolTableRecord
100
AcDbRegAppTableRecord
  2
ACAD
 70
     0
  0
ENDTAB
  0
TABLE
  2
DIMSTYLE
  5
A
330
0
100
AcDbSymbolTable
 70
     1
100
AcDbDimStyleTable
  0
DIMSTYLE
105
27
330
A
100
AcDbSymbolTableRecord
100
AcDbDimStyleTableRecord
  2
ISO-25
 70
     0
 41
2.5
 42
0.625
 43
3.75
 44
1.25
 73
     0
 74
     0
 77
     1
 78
     8
140
2.5
141
2.5
143
0.0393700787
147
0.625
171
     3
172
     1
178
     0
271
     2
272
     2
274
     3
278
    44
283
     0
284
     8
340
11
  0
ENDTAB
  0
TABLE
  2
BLOCK_RECORD
  5
1
330
0
100
AcDbSymbolTable
 70
     1
  0
BLOCK_RECORD
  5
1F
330
1
100
AcDbSymbolTableRecord
100
AcDbBlockTableRecord
  2
*Model_Space
340
22
  0
BLOCK_RECORD
  5
1B
330
1
100
AcDbSymbolTableRecord
100
AcDbBlockTableRecord
  2
*Paper_Space
340
1E
  0
BLOCK_RECORD
  5
23
330
1
100
AcDbSymbolTableRecord
100
AcDbBlockTableRecord
  2
*Paper_Space0
340
26
  0
ENDTAB
  0
ENDSEC
  0
SECTION
  2
BLOCKS
  0
BLOCK
  5
20
330
1F
100
AcDbEntity
  8
0
100
AcDbBlockBegin
  2
*Model_Space
 70
     0
 10
0.0
 20
0.0
 30
0.0
  3
*Model_Space
  1

  0
ENDBLK
  5
21
330
1F
100
AcDbEntity
  8
0
100
AcDbBlockEnd
  0
BLOCK
  5
1C
330
1B
100
AcDbEntity
 67
     1
  8
0
100
AcDbBlockBegin
  2
*Paper_Space
 70
     0
 10
0.0
 20
0.0
 30
0.0
  3
*Paper_Space
  1

  0
ENDBLK
  5
1D
330
1B
100
AcDbEntity
 67
     1
  8
0
100
AcDbBlockEnd
  0
BLOCK
  5
24
330
23
100
AcDbEntity
  8
0
100
AcDbBlockBegin
  2
*Paper_Space0
 70
     0
 10
0.0
 20
0.0
 30
0.0
  3
*Paper_Space0
  1

  0
ENDBLK
  5
25
330
23
100
AcDbEntity
  8
0
100
AcDbBlockEnd
  0
ENDSEC
  0
SECTION
  2
ENTITIES
  0
ARC
  5
63
330
1F
100
AcDbEntity
  8
0
  6
Continuous
 62
     7
100
AcDbCircle
 10
130.0
 20
-90.0
 30
0.0
 40
10.0
100
AcDbArc
 50
270.0
 51
0.0
  0
ARC
  5
64
330
1F
100
AcDbEntity
  8
0
  6
Continuous
 62
     7
100
AcDbCircle
 10
-130.0
 20
90.0
 30
0.0
 40
9.999999999999972
100
AcDbArc
 50
90.0
 51
180.0
  0
ARC
  5
65
330
1F
100
AcDbEntity
  8
0
  6
Continuous
 62
     7
100
AcDbCircle
 10
130.0
 20
90.0
 30
0.0
 40
10.0
100
AcDbArc
 50
0.0
 51
90.0
  0
ARC
  5
66
330
1F
100
AcDbEntity
  8
0
  6
Continuous
 62
     7
100
AcDbCircle
 10
-130.0
 20
-90.0
 30
0.0
 40
10.0
100
AcDbArc
 50
180.0
 51
270.0
  0
CIRCLE
  5
67
330
1F
100
AcDbEntity
  8
0
  6
Continuous
 62
     7
100
AcDbCircle
 10
0.0
 20
75.8853370516
 30
0.0
 40
15.0
  0
LINE
  5
69
330
1F
100
AcDbEntity
  8
0
  6
Continuous
 62
     7
100
AcDbLine
 10
-130.0
 20
-100.0
 30
0.0
 11
130.0
 21
-100.0
 31
0.0
  0
LINE
  5
6A
330
1F
100
AcDbEntity
  8
0
  6
Continuous
 62
     7
100
AcDbLine
 10
-140.0
 20
-90.0
 30
0.0
 11
-140.0
 21
90.0
 31
0.0
  0
LINE
  5
6B
330
1F
100
AcDbEntity
  8
0
  6
Continuous
 62
     7
100
AcDbLine
 10
-130.0
 20
100.0
 30
0.0
 11
130.0
 21
100.0
 31
0.0
  0
LINE
  5
6C
330
1F
100
AcDbEntity
  8
0
  6
Continuous
 62
     7
100
AcDbLine
 10
140.0
 20
-90.0
 30
0.0
 11
140.0
 21
90.0
 31
0.0
  0
LWPOLYLINE
  5
71
330
1F
100
AcDbEntity
  8
0
  6
Continuous
 62
     7
100
AcDbPolyline
 90
       79
 70
   128
 43
0.0
 10
-111.9657754898
 20
-18.3958052835
 10
-112.9075833174
 20
-33.6697778863
 10
-112.9075833174
 20
-33.6697778863
 10
-112.9161449612
 20
-34.0636135027
 10
-112.8818983859
 20
-34.3718326808
 10
-112.8134052352
 20
-34.5944354205
 10
-112.7021038653
 20
-34.7228600781
 10
-112.4195696187
 20
-34.8255998041
 10
-112.1199120845
 20
-34.7999148726
 10
-112.1199120845
 20
-34.7999148726
 10
-109.5000490708
 20
-34.0636135027
 10
-109.5000490708
 20
-34.0636135027
 10
-109.6541586598
 20
-36.5978600781
 10
-109.6541586598
 20
-36.5978600781
 10
-121.7774463311
 20
-39.9797093931
 10
-121.7774463311
 20
-39.9797093931
 10
-121.623336742
 20
-37.4454628178
 10
-121.623336742
 20
-37.4454628178
 10
-119.54285729
 20
-36.8718326808
 10
-119.54285729
 20
-36.8718326808
 10
-119.1575833174
 20
-36.7434080233
 10
-118.8322408516
 20
-36.5978600781
 10
-118.5839531804
 20
-36.4266272013
 10
-118.395597016
 20
-36.2468326808
 10
-118.1558709886
 20
-35.767380626
 10
-118.0445696187
 20
-35.1081340507
 10
-118.0445696187
 20
-35.1081340507
 10
-115.9298435913
 20
-0.8273121329
 10
-115.9298435913
 20
-0.8273121329
 10
-115.9212819475
 20
-0.4934080233
 10
-115.9555285228
 20
-0.2194354205
 10
-116.0325833174
 20
-0.0053943246
 10
-116.1524463311
 20
0.1401536206
 10
-116.3236792078
 20
0.2343317028
 10
-116.5634052352
 20
0.2600166343
 10
-116.8801860571
 20
0.2343317028
 10
-117.2568983859
 20
0.1487152644
 10
-117.2568983859
 20
0.1487152644
 10
-119.1147750982
 20
-0.3649833657
 10
-119.1147750982
 20
-0.3649833657
 10
-118.9606655091
 20
2.1692632096
 10
-118.9606655091
 20
2.1692632096
 10
-105.5360079749
 20
5.9107015658
 10
-105.5360079749
 20
5.9107015658
 10
-104.071966879
 20
6.2702906069
 10
-102.6935422215
 20
6.5014549904
 10
-101.41785729
 20
6.6127563603
 10
-100.2363504407
 20
6.5956330726
 10
-99.1575833174
 20
6.4415234836
 10
-98.1644326324
 20
6.1675508808
 10
-97.2740216735
 20
5.7737152644
 10
-96.4777887968
 20
5.2428933466
 10
-95.7757340023
 20
4.6178933466
 10
-95.1849805776
 20
3.9244001959
 10
-94.6884052352
 20
3.1624138945
 10
-94.3031312626
 20
2.3319344425
 10
-94.0120353722
 20
1.4244001959
 10
-93.8322408516
 20
0.4483727987
 10
-93.7466244133
 20
-0.5961477493
 10
-93.7723093448
 20
-1.7091614479
 10
-93.7723093448
 20
-1.7091614479
 10
-93.9092956461
 20
-3.0875861055
 10
-94.1490216735
 20
-4.4146409
 10
-94.491487427
 20
-5.6903258315
 10
-94.9281312626
 20
-6.9232025438
 10
-95.4760764681
 20
-8.113271037
 10
-96.1267613996
 20
-9.2434080233
 10
-96.8716244133
 20
-10.3307367904
 10
-97.7277887968
 20
-11.3752573383
 10
-98.6524463311
 20
-12.3512847356
 10
-99.6199120845
 20
-13.2331340507
 10
-100.6216244133
 20
-14.0379285712
 10
-101.674706605
 20
-14.7656682972
 10
-102.7620353722
 20
-15.3992299411
 10
-103.9007340023
 20
-15.9557367904
 10
-105.0736792078
 20
-16.4266272013
 10
-106.2894326324
 20
-16.811901174
 10
-106.2894326324
 20
-16.811901174
 10
-111.9658024955
 20
-18.3958052835
  0
LWPOLYLINE
  5
72
330
1F
100
AcDbEntity
  8
0
  6
Continuous
 62
     7
100
AcDbPolyline
 90
       43
 70
   128
 43
0.0
 10
-107.4366569519
 20
-14.6458052835
 10
-105.9384052352
 20
-14.1064217219
 10
-104.5171723585
 20
-13.3358737767
 10
-103.1729942763
 20
-12.3512847356
 10
-101.9058709886
 20
-11.1355313109
 10
-101.3236792078
 20
-10.4334765164
 10
-100.8099805776
 20
-9.6543669274
 10
-100.3647750982
 20
-8.8067641876
 10
-99.9795011256
 20
-7.8821066534
 10
-99.6712819475
 20
-6.8803943246
 10
-99.4229942763
 20
-5.8101888452
 10
-99.2431997557
 20
-4.6629285712
 10
-99.1318983859
 20
-3.4471751466
 10
-99.1318983859
 20
-3.4471751466
 10
-99.0976518105
 20
-2.3512847356
 10
-99.123336742
 20
-1.3495724068
 10
-99.2175148242
 20
-0.4420381603
 10
-99.3716244133
 20
0.379879648
 10
-99.594227153
 20
1.0990577302
 10
-99.8853230434
 20
1.7240577302
 10
-100.2363504407
 20
2.2634412918
 10
-100.6558709886
 20
2.7000851274
 10
-101.1438846872
 20
3.0511125247
 10
-101.7089531804
 20
3.3165234836
 10
-102.3596381119
 20
3.4963180041
 10
-103.0873778379
 20
3.5904960863
 10
-103.8921723585
 20
3.5904960863
 10
-104.7740216735
 20
3.504879648
 10
-105.7329257831
 20
3.3336467713
 10
-106.7774463311
 20
3.0767974562
 10
-106.7774463311
 20
3.0767974562
 10
-109.8339531804
 20
2.2206330726
 10
-109.8339531804
 20
2.2206330726
 10
-110.1336107146
 20
2.0750851274
 10
-110.4332682489
 20
1.8011125247
 10
-110.5702545502
 20
1.6041947165
 10
-110.6729942763
 20
1.3387837576
 10
-110.7500490708
 20
1.0134412918
 10
-110.79285729
 20
0.6110440315
 10
-110.79285729
 20
0.6110440315
 10
-111.8031312626
 20
-15.8615587082
 10
-111.8031312626
 20
-15.8615587082
 10
-107.4366929064
 20
-14.6458052835
  0
LWPOLYLINE
  5
73
330
1F
100
AcDbEntity
  8
0
  6
Continuous
 62
     7
100
AcDbPolyline
 90
       68
 70
   128
 43
0.0
 10
-73.6231207848
 20
-13.7093586013
 10
-82.2275845807
 20
-15.3703175054
 10
-82.2275845807
 20
-15.3703175054
 10
-85.3697078684
 20
-24.3257969575
 10
-85.3697078684
 20
-24.3257969575
 10
-85.5323791013
 20
-24.8737421629
 10
-85.6693654026
 20
-25.3617558616
 10
-85.7635434848
 20
-25.7898380534
 10
-85.8234749917
 20
-26.1494270944
 10
-85.8234749917
 20
-26.1494270944
 10
-85.8919681424
 20
-27.0312764095
 10
-85.8234749917
 20
-27.7418928479
 10
-85.7207352656
 20
-28.0073038068
 10
-85.5495023889
 20
-28.1699750397
 10
-85.3183380054
 20
-28.2470298342
 10
-85.0186804711
 20
-28.2299065465
 10
-85.0186804711
 20
-28.2299065465
 10
-83.254981841
 20
-27.8960024369
 10
-83.254981841
 20
-27.8960024369
 10
-83.6231325259
 20
-30.4216873684
 10
-83.6231325259
 20
-30.4216873684
 10
-93.5032695122
 20
-32.3223722999
 10
-93.5032695122
 20
-32.3223722999
 10
-93.1351188273
 20
-29.7966873684
 10
-93.1351188273
 20
-29.7966873684
 10
-91.9193654026
 20
-29.5655229849
 10
-91.9193654026
 20
-29.5655229849
 10
-91.2601188273
 20
-29.3257969575
 10
-90.6608037588
 20
-28.880591478
 10
-90.3868311561
 20
-28.5552490123
 10
-90.129981841
 20
-28.1357284643
 10
-89.9073791013
 20
-27.6220298342
 10
-89.7018996492
 20
-27.0141531218
 10
-89.7018996492
 20
-27.0141531218
 10
-75.6608037588
 20
11.3163263302
 10
-75.6608037588
 20
11.3163263302
 10
-70.7635434848
 20
13.5423537275
 10
-70.7635434848
 20
13.5423537275
 10
-67.6214201971
 20
-22.7418928479
 10
-67.6214201971
 20
-22.7418928479
 10
-67.4929955396
 20
-23.3668928479
 10
-67.3474475944
 20
-23.8463449027
 10
-67.1933380054
 20
-24.1973722999
 10
-67.0221051287
 20
-24.4114133958
 10
-66.6625160876
 20
-24.608331204
 10
-66.3200503341
 20
-24.6340161355
 10
-66.3200503341
 20
-24.6340161355
 10
-64.556351704
 20
-24.2915503821
 10
-64.556351704
 20
-24.2915503821
 10
-64.9245023889
 20
-26.8172353136
 10
-64.9245023889
 20
-26.8172353136
 10
-76.1402558136
 20
-28.9747695602
 10
-76.1402558136
 20
-28.9747695602
 10
-75.7721051287
 20
-26.4490846287
 10
-75.7721051287
 20
-26.4490846287
 10
-74.3337489643
 20
-26.175112026
 10
-74.3337489643
 20
-26.175112026
 10
-73.9056667725
 20
-26.0723722999
 10
-73.5632010191
 20
-25.9439476424
 10
-73.3320366355
 20
-25.7812764095
 10
-73.1864886903
 20
-25.601481889
 10
-73.0323791013
 20
-25.2076462725
 10
-72.9467626629
 20
-24.8223722999
 10
-72.9467626629
 20
-24.8223722999
 10
-72.8782695122
 20
-24.0518243547
 10
-72.9296393752
 20
-23.4097010671
 10
-72.9296393752
 20
-23.4097010671
 10
-73.6231325259
 20
-13.7093586013
  0
LWPOLYLINE
  5
74
330
1F
100
AcDbEntity
  8
0
  6
Continuous
 62
     7
100
AcDbPolyline
 90
        8
 70
   128
 43
0.0
 10
-75.2412676811
 20
6.5389290699
 10
-74.0597763615
 20
6.7615318097
 10
-74.0597763615
 20
6.7615318097
 10
-81.2858037588
 20
-12.733331204
 10
-81.2858037588
 20
-12.733331204
 10
-73.5803243067
 20
-11.2436051766
 10
-73.5803243067
 20
-11.2436051766
 10
-75.2412832108
 20
6.5389290699
  0
LWPOLYLINE
  5
75
330
1F
100
AcDbEntity
  8
0
  6
Continuous
 62
     7
100
AcDbPolyline
 90
      206
 70
   128
 43
0.0
 10
-46.2703108788
 20
-6.0216886079
 10
-47.5973857876
 20
-5.4994283339
 10
-48.8045775684
 20
-4.9771680599
 10
-49.9004679794
 20
-4.4634694298
 10
-50.8850570205
 20
-3.9583324435
 10
-51.7497830479
 20
-3.4531954572
 10
-52.5032077054
 20
-2.9566201147
 10
-53.1453309931
 20
-2.4686064161
 10
-53.6761529109
 20
-1.9805927174
 10
-54.0956734588
 20
-1.4497707996
 10
-54.4295775684
 20
-0.8418940873
 10
-54.6778652396
 20
-0.1398392928
 10
-54.8234131848
 20
0.6392702963
 10
-54.8833446917
 20
1.5125579675
 10
-54.8576597602
 20
2.4629004332
 10
-54.7377967465
 20
3.5074209812
 10
-54.5237556506
 20
4.6289963237
 10
-54.5237556506
 20
4.6289963237
 10
-54.2754679794
 20
5.5536538579
 10
-53.9330022259
 20
6.4783113921
 10
-53.5049200342
 20
7.4029689264
 10
-52.991221404
 20
8.3276264606
 10
-52.3833446917
 20
9.2437223511
 10
-51.6812898972
 20
10.1683798853
 10
-50.8936186643
 20
11.0844757757
 10
-50.0203309931
 20
12.0005716661
 10
-49.0699885273
 20
12.8738593374
 10
-48.0682761985
 20
13.6444072826
 10
-47.0066323629
 20
14.3293387894
 10
-45.8936186643
 20
14.9115305702
 10
-44.7292351027
 20
15.4081059127
 10
-43.513481678
 20
15.8019415291
 10
-42.2463583903
 20
16.1015990634
 10
-40.9193035958
 20
16.3070785154
 10
-40.9193035958
 20
16.3070785154
 10
-39.6949885273
 20
16.4012565976
 10
-38.5049200342
 20
16.4012565976
 10
-37.3490981164
 20
16.2813935839
 10
-36.2360844177
 20
16.067352488
 10
-36.2360844177
 20
16.067352488
 10
-35.5083446917
 20
15.810503173
 10
-34.9090296232
 20
15.6307086524
 10
-34.4295775684
 20
15.5365305702
 10
-34.087111815
 20
15.5279689264
 10
-34.087111815
 20
15.5279689264
 10
-33.5734131848
 20
15.6563935839
 10
-33.0853994862
 20
15.9046812552
 10
-32.7514953766
 20
16.1187223511
 10
-32.2377967465
 20
16.4611881045
 10
-31.5443035958
 20
16.9235168716
 10
-30.6710159246
 20
17.5142702963
 10
-30.6710159246
 20
17.5142702963
 10
-31.7497830479
 20
7.317352488
 10
-31.7497830479
 20
7.317352488
 10
-34.4124542807
 20
6.2471470086
 10
-34.4124542807
 20
6.2471470086
 10
-34.6949885273
 20
7.4029689264
 10
-34.9946460616
 20
8.4560511182
 10
-35.3199885273
 20
9.3978319401
 10
-35.6538926369
 20
10.236873036
 10
-36.0049200342
 20
10.9560511182
 10
-36.3730707191
 20
11.5810511182
 10
-36.7583446917
 20
12.0947497483
 10
-37.160741952
 20
12.4971470086
 10
-37.5973857876
 20
12.8224894743
 10
-38.0768378424
 20
13.0879004332
 10
-38.5990981164
 20
13.3019415291
 10
-39.1812898972
 20
13.464612762
 10
-39.8062898972
 20
13.567352488
 10
-40.4740981164
 20
13.6101607072
 10
-41.1932761985
 20
13.6015990634
 10
-41.9638241438
 20
13.5331059127
 10
-41.9638241438
 20
13.5331059127
 10
-42.8199885273
 20
13.3961196113
 10
-43.6247830479
 20
13.2077634469
 10
-44.3782077054
 20
12.9509141319
 10
-45.0802624999
 20
12.6426949538
 10
-45.7309474314
 20
12.265982625
 10
-46.3217008561
 20
11.8293387894
 10
-46.8696460616
 20
11.3327634469
 10
-47.366221404
 20
10.7762565976
 10
-48.2223857876
 20
9.5776264606
 10
-48.9158789383
 20
8.3190648168
 10
-49.4638241438
 20
7.0005716661
 10
-49.8490981164
 20
5.6307086524
 10
-49.8490981164
 20
5.6307086524
 10
-49.9603994862
 20
5.0228319401
 10
-50.0203309931
 20
4.4577634469
 10
-50.0374542807
 20
3.935503173
 10
-50.0032077054
 20
3.4474894743
 10
-49.917591267
 20
2.9937223511
 10
-49.7806049657
 20
2.5913250908
 10
-49.5922488013
 20
2.2231744058
 10
-49.3610844177
 20
1.8892702963
 10
-49.0271803081
 20
1.5639278305
 10
-48.5562898972
 20
1.2129004332
 10
-47.9312898972
 20
0.8276264606
 10
-47.160741952
 20
0.4081059127
 10
-46.2532077054
 20
-0.0370995668
 10
-45.1915638698
 20
-0.5079899777
 10
-43.9929337328
 20
-1.013126964
 10
-42.6401940068
 20
-1.5525105257
 10
-42.6401940068
 20
-1.5525105257
 10
-41.4244405821
 20
-2.0062776489
 10
-40.3199885273
 20
-2.4942913476
 10
-39.3097145547
 20
-3.0079899777
 10
-38.4021803081
 20
-3.564496827
 10
-37.5973857876
 20
-4.1466886079
 10
-36.8953309931
 20
-4.7545653202
 10
-36.2874542807
 20
-5.4052502517
 10
-35.7908789383
 20
-6.0816201147
 10
-35.3799200342
 20
-6.7922365531
 10
-35.0545775684
 20
-7.5370995668
 10
-34.814851541
 20
-8.3247707996
 10
-34.660741952
 20
-9.1466886079
 10
-34.5836871575
 20
-10.0114146352
 10
-34.5922488013
 20
-10.910387238
 10
-34.6864268835
 20
-11.8521680599
 10
-34.866221404
 20
-12.8281954572
 10
-34.866221404
 20
-12.8281954572
 10
-35.1401940068
 20
-13.8812776489
 10
-35.5083446917
 20
-14.9257981969
 10
-35.962111815
 20
-15.9531954572
 10
-36.5100570205
 20
-16.9720310736
 10
-37.1436186643
 20
-17.9823050462
 10
-37.8713583903
 20
-18.984017375
 10
-38.6847145547
 20
-19.9686064161
 10
-39.5922488013
 20
-20.9446338133
 10
-40.5768378424
 20
-21.8607297037
 10
-41.6299200342
 20
-22.682647512
 10
-42.7600570205
 20
-23.4018255942
 10
-43.9586871575
 20
-24.0268255942
 10
-45.2258104451
 20
-24.5490858681
 10
-46.5614268835
 20
-24.9686064161
 10
-47.9655364725
 20
-25.2939488818
 10
-49.4467008561
 20
-25.5251132654
 10
-49.4467008561
 20
-25.5251132654
 10
-50.5939611301
 20
-25.6021680599
 10
-51.6556049657
 20
-25.5507981969
 10
-52.6230707191
 20
-25.3624420325
 10
-53.5049200342
 20
-25.0542228544
 10
-53.5049200342
 20
-25.0542228544
 10
-54.3353994862
 20
-24.8744283339
 10
-55.0717008561
 20
-24.763126964
 10
-55.7223857876
 20
-24.7203187448
 10
-56.2788926369
 20
-24.7460036763
 10
-56.2788926369
 20
-24.7460036763
 10
-56.4073172944
 20
-24.7888118955
 10
-56.5956734588
 20
-24.8829899777
 10
-56.8525227739
 20
-25.0456612106
 10
-57.160741952
 20
-25.2597023065
 10
-57.5888241438
 20
-25.5336749092
 10
-58.1967008561
 20
-25.8761406626
 10
-58.9758104451
 20
-26.2870995668
 10
-59.9261529109
 20
-26.7665516215
 10
-59.9261529109
 20
-26.7665516215
 10
-59.189851541
 20
-14.660387238
 10
-59.189851541
 20
-14.660387238
 10
-56.3131392122
 20
-13.6843598407
 10
-56.3131392122
 20
-13.6843598407
 10
-56.1847145547
 20
-15.1312776489
 10
-56.0049200342
 20
-16.432647512
 10
-55.7737556506
 20
-17.6055927174
 10
-55.4826597602
 20
-18.6415516215
 10
-55.1487556506
 20
-19.5490858681
 10
-54.7549200342
 20
-20.3110721695
 10
-54.3011529109
 20
-20.9446338133
 10
-53.8045775684
 20
-21.4412091558
 10
-53.2651940068
 20
-21.8350447722
 10
-52.6915638698
 20
-22.160387238
 10
-52.0922488013
 20
-22.4257981969
 10
-51.4586871575
 20
-22.6227160051
 10
-50.7908789383
 20
-22.7597023065
 10
-50.0973857876
 20
-22.8281954572
 10
-49.3782077054
 20
-22.836757101
 10
-48.6247830479
 20
-22.7768255942
 10
-48.6247830479
 20
-22.7768255942
 10
-47.7514953766
 20
-22.6398392928
 10
-46.9210159246
 20
-22.4429214846
 10
-46.1333446917
 20
-22.1860721695
 10
-45.388481678
 20
-21.8692913476
 10
-44.6864268835
 20
-21.4925790188
 10
-44.0186186643
 20
-21.0559351832
 10
-43.4021803081
 20
-20.5507981969
 10
-42.8199885273
 20
-19.9942913476
 10
-42.2806049657
 20
-19.3778529914
 10
-41.7840296232
 20
-18.6929214846
 10
-41.3217008561
 20
-17.9566201147
 10
-40.9021803081
 20
-17.160387238
 10
-40.5340296232
 20
-16.3042228544
 10
-40.2001255136
 20
-15.3966886079
 10
-39.9004679794
 20
-14.4206612106
 10
-39.6521803081
 20
-13.3932639503
 10
-39.6521803081
 20
-13.3932639503
 10
-39.5494405821
 20
-12.3573050462
 10
-39.6949885273
 20
-11.3470310736
 10
-40.0973857876
 20
-10.3710036763
 10
-40.7566323629
 20
-9.4206612106
 10
-41.1847145547
 20
-8.9583324435
 10
-41.689851541
 20
-8.5045653202
 10
-42.263481678
 20
-8.0679214846
 10
-42.9141666095
 20
-7.6398392928
 10
-43.6419063355
 20
-7.2203187448
 10
-44.4467008561
 20
-6.8093598407
 10
-45.3199885273
 20
-6.4069625805
 10
-46.2703309931
 20
-6.0216886079
  0
LWPOLYLINE
  5
76
330
1F
100
AcDbEntity
  8
0
  6
Continuous
 62
     7
100
AcDbPolyline
 90
       90
 70
   128
 43
0.0
 10
-12.3970210552
 20
-22.9958334324
 10
-25.8388057679
 20
-23.3554224735
 10
-25.8388057679
 20
-23.3554224735
 10
-25.0596961789
 20
-20.881107405
 10
-25.0596961789
 20
-20.881107405
 10
-22.4740797405
 20
-20.8126142543
 10
-22.4740797405
 20
-20.8126142543
 10
-22.0545591926
 20
-20.778367679
 10
-21.6949701515
 20
-20.7184361721
 10
-21.4038742611
 20
-20.6156964461
 10
-21.1727098775
 20
-20.4787101447
 10
-20.8216824802
 20
-20.0763128845
 10
-20.5648331652
 20
-19.4855594598
 10
-20.5648331652
 20
-19.4855594598
 10
-10.4107235761
 20
12.5777967046
 10
-10.4107235761
 20
12.5777967046
 10
-10.1966824802
 20
13.2798514991
 10
-10.0425728912
 20
13.7935501292
 10
-9.9655180967
 20
14.1103309512
 10
-9.9569564528
 20
14.2387556087
 10
-10.0596961789
 20
14.2644405402
 10
-10.3336687816
 20
14.2815638279
 10
-10.7617509734
 20
14.2815638279
 10
-11.3610660419
 20
14.273002184
 10
-11.3610660419
 20
14.273002184
 10
-12.5768194665
 20
14.1873857457
 10
-13.6299016583
 20
13.9819062936
 10
-14.5203126172
 20
13.6736871155
 10
-15.2566139871
 20
13.2456049238
 10
-15.624764672
 20
12.9373857457
 10
-16.0614085076
 20
12.4836186224
 10
-16.5836687816
 20
11.8843035539
 10
-17.1744222063
 20
11.148002184
 10
-17.8507920693
 20
10.266152869
 10
-18.595655083
 20
9.2473172525
 10
-19.426134535
 20
8.0829336909
 10
-20.3251071378
 20
6.773002184
 10
-20.3251071378
 20
6.773002184
 10
-22.970655083
 20
7.0298514991
 10
-22.970655083
 20
7.0298514991
 10
-17.7480523433
 20
16.7815638279
 10
-17.7480523433
 20
16.7815638279
 10
5.2142764239
 20
17.3894405402
 10
5.2142764239
 20
17.3894405402
 10
4.1183860129
 20
7.8517693073
 10
4.1183860129
 20
7.8517693073
 10
1.404344917
 20
7.346632321
 10
1.404344917
 20
7.346632321
 10
1.3187284787
 20
8.5367008142
 10
1.2159887526
 20
9.6069062936
 10
1.1132490266
 20
10.5572487594
 10
1.0105093006
 20
11.3877282114
 10
0.8906462869
 20
12.0897830059
 10
0.7707832732
 20
12.6719747868
 10
0.6423586156
 20
13.1343035539
 10
0.5053723143
 20
13.4682076635
 10
0.3255777937
 20
13.7250569786
 10
0.0772901225
 20
13.9476597183
 10
-0.2394906994
 20
14.1360158827
 10
-0.6418879597
 20
14.2815638279
 10
-1.1127783707
 20
14.3928651977
 10
-1.6521619323
 20
14.4613583484
 10
-2.2686002885
 20
14.4956049238
 10
-2.9620934391
 20
14.4956049238
 10
-2.9620934391
 20
14.4956049238
 10
-3.6812715213
 20
14.4784816361
 10
-4.1949701515
 20
14.4699199923
 10
-4.5031893296
 20
14.4613583484
 10
-4.5973674118
 20
14.4613583484
 10
-4.6059290556
 20
14.4356734169
 10
-4.6316139871
 20
14.3414953347
 10
-4.6744222063
 20
14.1873857457
 10
-4.742915357
 20
13.9733446498
 10
-4.8285317953
 20
13.699372047
 10
-4.9398331652
 20
13.3569062936
 10
-5.0682578227
 20
12.9545090333
 10
-5.2138057679
 20
12.4836186224
 10
-5.2138057679
 20
12.4836186224
 10
-15.2908605624
 20
-19.3485731584
 10
-15.2908605624
 20
-19.3485731584
 10
-15.3936002885
 20
-19.7252854872
 10
-15.4364085076
 20
-20.0249430214
 10
-15.4278468638
 20
-20.256107405
 10
-15.3507920693
 20
-20.4016553502
 10
-15.0939427542
 20
-20.5557649393
 10
-14.7600386446
 20
-20.6071348023
 10
-14.7600386446
 20
-20.6071348023
 10
-11.617915357
 20
-20.5215183639
 10
-11.617915357
 20
-20.5215183639
 10
-12.397024946
 20
-22.9958334324
  0
LWPOLYLINE
  5
77
330
1F
100
AcDbEntity
  8
0
  6
Continuous
 62
     7
100
AcDbPolyline
 90
       96
 70
   128
 43
0.0
 10
34.6854925156
 20
6.5274269012
 10
34.2146178452
 20
5.4144132025
 10
33.6923575712
 20
4.3698926546
 10
33.1016041465
 20
3.3853036135
 10
32.4423575712
 20
2.4606460792
 10
31.7317411328
 20
1.5959200518
 10
30.9526315438
 20
0.7911255313
 10
30.1135904479
 20
0.0462625176
 10
29.2146178452
 20
-0.6301073454
 10
28.2985219548
 20
-1.2379840577
 10
27.4081109959
 20
-1.7773676194
 10
26.5433849685
 20
-2.2482580303
 10
25.7043438726
 20
-2.6335320029
 10
24.8824260643
 20
-2.9588744687
 10
24.0947548315
 20
-3.2071621399
 10
23.3242068863
 20
-3.3869566605
 10
22.5879055164
 20
-3.4896963865
 10
22.5879055164
 20
-3.4896963865
 10
23.1615356534
 20
-19.7311347427
 10
23.1615356534
 20
-19.7311347427
 10
23.2129055164
 20
-20.1420936468
 10
23.2899603109
 20
-20.4588744687
 10
23.3755767493
 20
-20.6900388523
 10
23.4783164753
 20
-20.8270251536
 10
23.7094808589
 20
-20.9554498112
 10
23.9663301739
 20
-21.0068196742
 10
23.9663301739
 20
-21.0068196742
 10
26.4235219548
 20
-21.0924361125
 10
26.4235219548
 20
-21.0924361125
 10
25.4817411328
 20
-23.5410662495
 10
25.4817411328
 20
-23.5410662495
 10
17.6563986671
 20
-23.2842169345
 10
17.6563986671
 20
-23.2842169345
 10
17.5622205849
 20
-3.7122991262
 10
17.5622205849
 20
-3.7122991262
 10
13.8207822287
 20
-3.5924361125
 10
13.8207822287
 20
-3.5924361125
 10
7.8361931876
 20
-19.2259977564
 10
7.8361931876
 20
-19.2259977564
 10
7.7163301739
 20
-19.5941484413
 10
7.6563986671
 20
-19.8938059756
 10
7.6563986671
 20
-20.1164087153
 10
7.7248918178
 20
-20.2705183043
 10
7.973179489
 20
-20.441751181
 10
8.3070835986
 20
-20.5102443317
 10
8.3070835986
 20
-20.5102443317
 10
10.7642753794
 20
-20.5872991262
 10
10.7642753794
 20
-20.5872991262
 10
9.8224945575
 20
-23.0359292632
 10
9.8224945575
 20
-23.0359292632
 10
-2.2579848946
 20
-22.6506552906
 10
-2.2579848946
 20
-22.6506552906
 10
-1.3162040726
 20
-20.2020251536
 10
-1.3162040726
 20
-20.2020251536
 10
0.5930425027
 20
-20.2619566605
 10
0.5930425027
 20
-20.2619566605
 10
1.0125630506
 20
-20.2533950166
 10
1.3721520917
 20
-20.2105867975
 10
1.671809626
 20
-20.1335320029
 10
1.9029740095
 20
-20.0136689892
 10
2.2711246945
 20
-19.6369566605
 10
2.5622205849
 20
-19.0633265235
 10
2.5622205849
 20
-19.0633265235
 10
14.8567411328
 20
13.0685227916
 10
14.8567411328
 20
13.0685227916
 10
14.950919215
 20
13.3767419697
 10
14.9937274342
 20
13.6421529286
 10
14.9851657904
 20
13.8561940244
 10
14.9166726397
 20
14.035988545
 10
14.7796863383
 20
14.1729748464
 10
14.5485219548
 20
14.2757145724
 10
14.2317411328
 20
14.3356460792
 10
13.8293438726
 20
14.3698926546
 10
13.8293438726
 20
14.3698926546
 10
11.9200972972
 20
14.4298241614
 10
11.9200972972
 20
14.4298241614
 10
12.8618781191
 20
16.8784542984
 10
12.8618781191
 20
16.8784542984
 10
26.3464671602
 20
16.4503721066
 10
26.3464671602
 20
16.4503721066
 10
27.7248918178
 20
16.3647556683
 10
28.9920151054
 20
16.2106460792
 10
30.1392753794
 20
15.9709200518
 10
31.1837959274
 20
15.6627008738
 10
32.1170151054
 20
15.285988545
 10
32.9389329137
 20
14.8236597779
 10
33.649549352
 20
14.2928378601
 10
34.2488644205
 20
13.6849611477
 10
34.7368781191
 20
13.0085912847
 10
35.0964671602
 20
12.2722899149
 10
35.3361931876
 20
11.4674953943
 10
35.4474945575
 20
10.6113310108
 10
35.4389329137
 20
9.6781118327
 10
35.3105082561
 20
8.6935227916
 10
35.0622205849
 20
7.6404405998
 10
34.6855082561
 20
6.5274269012
  0
LWPOLYLINE
  5
78
330
1F
100
AcDbEntity
  8
0
  6
Continuous
 62
     7
100
AcDbPolyline
 90
       43
 70
   128
 43
0.0
 10
14.7539973259
 20
-1.1523676194
 10
18.649549352
 20
-1.2807922769
 10
18.649549352
 20
-1.2807922769
 10
20.2248918178
 20
-1.2122991262
 10
21.7488644205
 20
-0.9040799482
 10
23.2214671602
 20
-0.3646963865
 10
24.6512616808
 20
0.4229748464
 10
25.3361931876
 20
0.910988545
 10
25.9783164753
 20
1.4674953943
 10
26.5861931876
 20
2.0924953943
 10
27.1512616808
 20
2.785988545
 10
27.6735219548
 20
3.5479748464
 10
28.1615356534
 20
4.3784542984
 10
28.6067411328
 20
5.285988545
 10
29.0091383931
 20
6.2534542984
 10
29.0091383931
 20
6.2534542984
 10
29.3087959274
 20
7.1267419697
 10
29.5399603109
 20
7.9572214217
 10
29.6855082561
 20
8.7277693669
 10
29.7540014068
 20
9.4555090929
 10
29.745439763
 20
10.1404405998
 10
29.6512616808
 20
10.7654405998
 10
29.4885904479
 20
11.3476323806
 10
29.2403027767
 20
11.8784542984
 10
28.9063986671
 20
12.3579063532
 10
28.4868781191
 20
12.7774269012
 10
27.973179489
 20
13.1370159423
 10
27.3738644205
 20
13.4366734765
 10
26.6803712698
 20
13.6763995039
 10
25.8927000369
 20
13.8647556683
 10
25.0108507219
 20
13.984618682
 10
24.0433849685
 20
14.0445501888
 10
24.0433849685
 20
14.0445501888
 10
21.5433849685
 20
14.1216049834
 10
21.5433849685
 20
14.1216049834
 10
21.1666726397
 20
14.0787967642
 10
20.7985219548
 20
13.9246871751
 10
20.6187274342
 20
13.7791392299
 10
20.4560562013
 20
13.565098134
 10
20.2848233246
 20
13.2740022436
 10
20.1307137356
 20
12.9058515587
 10
20.1307137356
 20
12.9058515587
 10
14.7540014068
 20
-1.1523676194
  0
LWPOLYLINE
  5
79
330
1F
100
AcDbEntity
  8
0
  6
Continuous
 62
     7
100
AcDbPolyline
 90
       68
 70
   128
 43
0.0
 10
50.9848296642
 20
-11.7453818807
 10
42.2776464086
 20
-10.8121627026
 10
42.2776464086
 20
-10.8121627026
 10
36.6526464086
 20
-18.4833955793
 10
36.6526464086
 20
-18.4833955793
 10
36.3358655867
 20
-18.9628476341
 10
36.0704546278
 20
-19.3823681821
 10
35.8649751757
 20
-19.7590805108
 10
35.7023039428
 20
-20.0844229766
 10
35.7023039428
 20
-20.0844229766
 10
35.3683998332
 20
-20.9149024286
 10
35.222851888
 20
-21.5998339355
 10
35.2485368195
 20
-21.8652448944
 10
35.3598381894
 20
-22.0707243464
 10
35.5738792853
 20
-22.2077106478
 10
35.8735368195
 20
-22.2762037985
 10
35.8735368195
 20
-22.2762037985
 10
37.6457970935
 20
-22.4645599629
 10
37.6457970935
 20
-22.4645599629
 10
36.5156601072
 20
-24.8703818807
 10
36.5156601072
 20
-24.8703818807
 10
26.5584683264
 20
-23.8087380451
 10
26.5584683264
 20
-23.8087380451
 10
27.6886053127
 20
-21.4029161273
 10
27.6886053127
 20
-21.4029161273
 10
28.9043587374
 20
-21.5313407848
 10
28.9043587374
 20
-21.5313407848
 10
29.6149751757
 20
-21.4970942095
 10
30.3255916141
 20
-21.2488065382
 10
30.6766190113
 20
-21.0262037985
 10
31.0362080524
 20
-20.7179846204
 10
31.3786738058
 20
-20.3155873601
 10
31.7297012031
 20
-19.8361353053
 10
31.7297012031
 20
-19.8361353053
 10
56.4814135319
 20
12.9892071604
 10
56.4814135319
 20
12.9892071604
 10
61.7639477785
 20
13.7083852426
 10
61.7639477785
 20
13.7083852426
 10
54.0413450387
 20
-22.1220942095
 10
54.0413450387
 20
-22.1220942095
 10
53.9814135319
 20
-22.7470942095
 10
53.972851888
 20
-23.2436695519
 10
54.0242217511
 20
-23.6203818807
 10
54.1183998332
 20
-23.8772311958
 10
54.4094957237
 20
-24.17688873
 10
54.7519614771
 20
-24.2967517437
 10
54.7519614771
 20
-24.2967517437
 10
56.5242217511
 20
-24.4851079081
 10
56.5242217511
 20
-24.4851079081
 10
55.3940847648
 20
-26.8909298259
 10
55.3940847648
 20
-26.8909298259
 10
44.0841532579
 20
-25.6837380451
 10
44.0841532579
 20
-25.6837380451
 10
45.2142902442
 20
-23.2779161273
 10
45.2142902442
 20
-23.2779161273
 10
46.6612080524
 20
-23.4320257163
 10
46.6612080524
 20
-23.4320257163
 10
47.1064135319
 20
-23.4577106478
 10
47.466002573
 20
-23.4320257163
 10
47.7399751757
 20
-23.3464092779
 10
47.9283313401
 20
-23.2179846204
 10
48.193742299
 20
-22.8926421547
 10
48.3735368195
 20
-22.5844229766
 10
48.3735368195
 20
-22.5844229766
 10
48.6731943538
 20
-21.8395599629
 10
48.818742299
 20
-21.1631900999
 10
48.818742299
 20
-21.1631900999
 10
50.9848381894
 20
-11.7453818807
  0
LWPOLYLINE
  5
7A
330
1F
100
AcDbEntity
  8
0
  6
Continuous
 62
     7
100
AcDbPolyline
 90
        8
 70
   128
 43
0.0
 10
55.4197430611
 20
8.1946866125
 10
56.5755916141
 20
8.0662619549
 10
56.5755916141
 20
8.0662619549
 10
43.9985368195
 20
-8.4662722916
 10
43.9985368195
 20
-8.4662722916
 10
51.78963271
 20
-9.3053133875
 10
51.78963271
 20
-9.3053133875
 10
55.4197696963
 20
8.1946866125
  0
LWPOLYLINE
  5
7B
330
1F
100
AcDbEntity
  8
0
  6
Continuous
 62
     7
100
AcDbPolyline
 90
       83
 70
   128
 43
0.0
 10
85.045337677
 20
-21.4188496223
 10
84.1463779919
 20
-21.2647400333
 10
84.1463779919
 20
-21.2647400333
 10
97.0744601837
 20
2.9818353092
 10
97.0744601837
 20
2.9818353092
 10
97.2028848412
 20
3.2643695558
 10
97.2799396357
 20
3.512657227
 10
97.2885012796
 20
3.7266983229
 10
97.2456930604
 20
3.9064928434
 10
97.1343916905
 20
4.0606024325
 10
96.9203505946
 20
4.18902709
 10
96.6206930604
 20
4.291766816
 10
96.2268574439
 20
4.3773832544
 10
96.2268574439
 20
4.3773832544
 10
93.8980903207
 20
4.7797805147
 10
93.8980903207
 20
4.7797805147
 10
95.1566519645
 20
7.1427942133
 10
95.1566519645
 20
7.1427942133
 10
105.70459717
 20
5.3448490078
 10
105.70459717
 20
5.3448490078
 10
104.4460355261
 20
2.9818353092
 10
104.4460355261
 20
2.9818353092
 10
101.5693231974
 20
3.4698490078
 10
101.5693231974
 20
3.4698490078
 10
101.1926108686
 20
3.4869722955
 10
100.8158985398
 20
3.3842325694
 10
100.6361040193
 20
3.2729311996
 10
100.4477478549
 20
3.0845750352
 10
100.2508300467
 20
2.8191640763
 10
100.0539122385
 20
2.4766983229
 10
100.0539122385
 20
2.4766983229
 10
82.0230903207
 20
-31.3417948278
 10
82.0230903207
 20
-31.3417948278
 10
79.2576793618
 20
-30.8709044169
 10
79.2576793618
 20
-30.8709044169
 10
79.1720629234
 20
3.5897120215
 10
79.1720629234
 20
3.5897120215
 10
80.1566519645
 20
3.4184791448
 10
80.1566519645
 20
3.4184791448
 10
65.1994601837
 20
-24.6380277045
 10
65.1994601837
 20
-24.6380277045
 10
65.028227307
 20
-24.9890551018
 10
64.9340492248
 20
-25.2715893484
 10
64.8998026494
 20
-25.4856304442
 10
64.9426108686
 20
-25.6397400333
 10
65.1566519645
 20
-25.8280961977
 10
65.4905560741
 20
-25.9393975675
 10
65.4905560741
 20
-25.9393975675
 10
68.3672684028
 20
-26.4274112662
 10
68.3672684028
 20
-26.4274112662
 10
67.108706759
 20
-28.7989866086
 10
67.108706759
 20
-28.7989866086
 10
56.5607615535
 20
-27.0010414032
 10
56.5607615535
 20
-27.0010414032
 10
57.8193231974
 20
-24.6294660607
 10
57.8193231974
 20
-24.6294660607
 10
60.1480903207
 20
-25.0233016771
 10
60.1480903207
 20
-25.0233016771
 10
60.5676108686
 20
-25.0746715401
 10
60.9271999097
 20
-25.083233184
 10
61.2268574439
 20
-25.0404249648
 10
61.4665834713
 20
-24.9548085264
 10
61.8689807316
 20
-24.6380277045
 10
62.2200081289
 20
-24.1243290744
 10
62.2200081289
 20
-24.1243290744
 10
78.3758300467
 20
6.1753284599
 10
78.3758300467
 20
6.1753284599
 10
78.5042547042
 20
6.4578627064
 10
78.5813094987
 20
6.7061503777
 10
78.5898711426
 20
6.9116298297
 10
78.5470629234
 20
7.0914243503
 10
78.4357615535
 20
7.2455339393
 10
78.2217204576
 20
7.3739585968
 10
77.9220629234
 20
7.4852599667
 10
77.528227307
 20
7.5708764051
 10
77.528227307
 20
7.5708764051
 10
75.6446656631
 20
7.887657227
 10
75.6446656631
 20
7.887657227
 10
76.903227307
 20
10.2506709256
 10
76.903227307
 20
10.2506709256
 10
84.7028848412
 20
8.9236161311
 10
84.7028848412
 20
8.9236161311
 10
85.0453505946
 20
-21.4188496223
  0
LWPOLYLINE
  5
7C
330
1F
100
AcDbEntity
  8
0
  6
Continuous
 62
     7
100
AcDbPolyline
 90
       68
 70
   128
 43
0.0
 10
111.8780970573
 20
-22.9394639336
 10
103.3507500073
 20
-20.9617242076
 10
103.3507500073
 20
-20.9617242076
 10
96.9552020621
 20
-27.9223406459
 10
96.9552020621
 20
-27.9223406459
 10
96.595613021
 20
-28.3504228377
 10
96.287393843
 20
-28.7442584542
 10
96.0391061717
 20
-29.0867242076
 10
95.8507500073
 20
-29.3949433857
 10
95.8507500073
 20
-29.3949433857
 10
95.4483527471
 20
-30.1740529747
 10
95.2343116512
 20
-30.8247379062
 10
95.2257500073
 20
-31.0901488651
 10
95.3199280895
 20
-31.304189961
 10
95.5082842539
 20
-31.4582995501
 10
95.7908185005
 20
-31.5696009199
 10
95.7908185005
 20
-31.5696009199
 10
97.5459554868
 20
-31.9719981802
 10
97.5459554868
 20
-31.9719981802
 10
96.1247226101
 20
-34.3007653035
 10
96.1247226101
 20
-34.3007653035
 10
86.3302020621
 20
-32.031929687
 10
86.3302020621
 20
-32.031929687
 10
87.7514349389
 20
-29.7031625638
 10
87.7514349389
 20
-29.7031625638
 10
88.9586267197
 20
-29.9856968103
 10
88.9586267197
 20
-29.9856968103
 10
89.6606815142
 20
-30.0370666733
 10
90.3884212402
 20
-29.8743954405
 10
90.765133569
 20
-29.6860392761
 10
91.1589691854
 20
-29.4120666733
 10
91.5613664457
 20
-29.0353543446
 10
91.9808869936
 20
-28.5730255775
 10
91.9808869936
 20
-28.5730255775
 10
120.0202705553
 20
1.1530018198
 10
120.0202705553
 20
1.1530018198
 10
125.3541746649
 20
1.2214949705
 10
125.3541746649
 20
1.2214949705
 10
113.838763706
 20
-33.6158337966
 10
113.838763706
 20
-33.6158337966
 10
113.7103390484
 20
-34.2322721528
 10
113.6589691854
 20
-34.7374091391
 10
113.6589691854
 20
-35.1141214679
 10
113.7360239799
 20
-35.3795324268
 10
113.9843116512
 20
-35.6963132487
 10
114.3096541169
 20
-35.8504228377
 10
114.3096541169
 20
-35.8504228377
 10
116.0647911032
 20
-36.2613817418
 10
116.0647911032
 20
-36.2613817418
 10
114.6435582265
 20
-38.5901488651
 10
114.6435582265
 20
-38.5901488651
 10
103.5219828841
 20
-36.0130940706
 10
103.5219828841
 20
-36.0130940706
 10
104.9432157608
 20
-33.6843269473
 10
104.9432157608
 20
-33.6843269473
 10
106.3730102813
 20
-34.0182310569
 10
106.3730102813
 20
-34.0182310569
 10
106.8182157608
 20
-34.0952858514
 10
107.1778048019
 20
-34.1209707829
 10
107.4517774046
 20
-34.0781625638
 10
107.640133569
 20
-33.9754228377
 10
107.9141061717
 20
-33.6928885912
 10
108.1281472676
 20
-33.4103543446
 10
108.1281472676
 20
-33.4103543446
 10
108.4877363087
 20
-32.7168611939
 10
108.7103390484
 20
-32.0576146186
 10
108.7103390484
 20
-32.0576146186
 10
111.8781472676
 20
-22.9394639336
  0
LWPOLYLINE
  5
7D
330
1F
100
AcDbEntity
  8
0
  6
Continuous
 62
     7
100
AcDbPolyline
 90
        8
 70
   128
 43
0.0
 10
118.4192299843
 20
-3.5815872213
 10
119.5579417882
 20
-3.8469981802
 10
119.5579417882
 20
-3.8469981802
 10
105.3541746649
 20
-18.7699433857
 10
105.3541746649
 20
-18.7699433857
 10
112.9654760347
 20
-20.5336420158
 10
112.9654760347
 20
-20.5336420158
 10
118.419243158
 20
-3.5815872213
  0
POINT
  5
7E
330
1F
100
AcDbEntity
  8
0
  6
Continuous
 62
     7
100
AcDbPoint
 10
0.0
 20
0.0
 30
0.0
  0
ENDSEC
  0
SECTION
  2
OBJECTS
  0
DICTIONARY
  5
C
330
0
100
AcDbDictionary
281
     1
  3
ACAD_GROUP
350
D
  3
ACAD_LAYOUT
350
1A
  3
ACAD_MLINESTYLE
350
17
  3
ACAD_PLOTSETTINGS
350
19
  3
ACAD_PLOTSTYLENAME
350
E
  3
ACAD_SCALELIST
350
47
  3
DWGPROPS
350
7F
  0
DICTIONARY
  5
D
102
{ACAD_REACTORS
330
C
102
}
330
C
100
AcDbDictionary
281
     1
  0
DICTIONARY
  5
1A
102
{ACAD_REACTORS
330
C
102
}
330
C
100
AcDbDictionary
281
     1
  3
Layout1
350
1E
  3
Layout2
350
26
  3
Model
350
22
  0
DICTIONARY
  5
17
102
{ACAD_REACTORS
330
C
102
}
330
C
100
AcDbDictionary
281
     1
  3
Standard
350
18
  0
DICTIONARY
  5
19
102
{ACAD_REACTORS
330
C
102
}
330
C
100
AcDbDictionary
281
     1
  0
ACDBDICTIONARYWDFLT
  5
E
102
{ACAD_REACTORS
330
C
102
}
330
C
100
AcDbDictionary
281
     1
  3
Normal
350
F
100
AcDbDictionaryWithDefault
340
F
  0
DICTIONARY
  5
47
102
{ACAD_REACTORS
330
C
102
}
330
C
100
AcDbDictionary
281
     1
  3
A0
350
48
  3
A1
350
49
  3
A2
350
4A
  3
A3
350
4B
  3
A4
350
4C
  3
A5
350
4D
  3
A6
350
4E
  3
A7
350
4F
  3
A8
350
50
  3
A9
350
51
  3
B0
350
52
  3
B1
350
53
  3
B2
350
54
  3
B3
350
55
  3
B4
350
56
  3
B5
350
57
  3
B6
350
58
  0
XRECORD
  5
7F
102
{ACAD_REACTORS
330
C
102
}
330
C
100
AcDbXrecord
280
     1
  1
DWGPROPS COOKIE
  2

  3

  4

  6

  7

  8
195949
  9

300
=
301
=
302
=
303
=
304
=
305
=
306
=
307
=
308
=
309
=
 40
0.0
 41
2460994.642409271
 42
2460994.64268191
  1

 90
        0
  0
LAYOUT
  5
1E
102
{ACAD_REACTORS
330
1A
102
}
330
1A
100
AcDbPlotSettings
  1

  2
none_device
  4

  6

 40
0.0
 41
0.0
 42
0.0
 43
0.0
 44
0.0
 45
0.0
 46
0.0
 47
0.0
 48
0.0
 49
0.0
140
0.0
141
0.0
142
1.0
143
1.0
 70
   688
 72
     1
 73
     0
 74
     5
  7

 75
    16
147
1.0
148
0.0
149
0.0
100
AcDbLayout
  1
Layout1
 70
     1
 71
     1
 10
0.0
 20
0.0
 11
420.0
 21
297.0
 12
0.0
 22
0.0
 32
0.0
 14
1.0000000000E+20
 24
1.0000000000E+20
 34
1.0000000000E+20
 15
-1.0000000000E+20
 25
-1.0000000000E+20
 35
-1.0000000000E+20
146
0.0
 13
0.0
 23
0.0
 33
0.0
 16
1.0
 26
0.0
 36
0.0
 17
0.0
 27
1.0
 37
0.0
 76
     0
330
1B
  0
LAYOUT
  5
26
102
{ACAD_REACTORS
330
1A
102
}
330
1A
100
AcDbPlotSettings
  1

  2
none_device
  4

  6

 40
0.0
 41
0.0
 42
0.0
 43
0.0
 44
0.0
 45
0.0
 46
0.0
 47
0.0
 48
0.0
 49
0.0
140
0.0
141
0.0
142
1.0
143
1.0
 70
   688
 72
     1
 73
     0
 74
     5
  7

 75
    16
147
1.0
148
0.0
149
0.0
100
AcDbLayout
  1
Layout2
 70
     1
 71
     2
 10
0.0
 20
0.0
 11
0.0
 21
0.0
 12
0.0
 22
0.0
 32
0.0
 14
0.0
 24
0.0
 34
0.0
 15
0.0
 25
0.0
 35
0.0
146
0.0
 13
0.0
 23
0.0
 33
0.0
 16
1.0
 26
0.0
 36
0.0
 17
0.0
 27
1.0
 37
0.0
 76
     0
330
23
  0
LAYOUT
  5
22
102
{ACAD_REACTORS
330
1A
102
}
330
1A
100
AcDbPlotSettings
  1

  2
none_device
  4
ANSI_A_(11.00_x_8.50_Inches)
  6

 40
6.35
 41
19.05
 42
6.35000508
 43
19.05000254
 44
279.4
 45
215.9
 46
133.34999746
 47
88.89999873
 48
0.0
 49
0.0
140
0.0
141
0.0
142
0.0388928571
143
1.0
 70
  1696
 72
     0
 73
     0
 74
     0
  7

 75
     0
147
0.0179189148
148
-1300.4909072572
149
0.0
100
AcDbLayout
  1
Model
 70
     1
 71
     0
 10
0.0
 20
0.0
 11
420.0
 21
297.0
 12
0.0
 22
0.0
 32
0.0
 14
-140.0
 24
-100.0
 34
0.0
 15
140.0
 25
100.0
 35
0.0
146
0.0
 13
0.0
 23
0.0
 33
0.0
 16
1.0
 26
0.0
 36
0.0
 17
0.0
 27
1.0
 37
0.0
 76
     0
330
1F
331
29
  0
MLINESTYLE
  5
18
102
{ACAD_REACTORS
330
17
102
}
330
17
100
AcDbMlineStyle
  2
Standard
 70
     0
  3

 62
   256
 51
90.0
 52
90.0
 71
     2
 49
0.5
 62
   256
  6
BYLAYER
 49
-0.5
 62
   256
  6
BYLAYER
  0
ACDBPLACEHOLDER
  5
F
102
{ACAD_REACTORS
330
E
102
}
330
E
  0
SCALE
  5
48
102
{ACAD_REACTORS
330
47
102
}
330
47
100
AcDbScale
 70
     0
300
1:1
140
1.0
141
1.0
290
     1
  0
SCALE
  5
49
102
{ACAD_REACTORS
330
47
102
}
330
47
100
AcDbScale
 70
     0
300
1:2
140
1.0
141
2.0
290
     0
  0
SCALE
  5
4A
102
{ACAD_REACTORS
330
47
102
}
330
47
100
AcDbScale
 70
     0
300
1:4
140
1.0
141
4.0
290
     0
  0
SCALE
  5
4B
102
{ACAD_REACTORS
330
47
102
}
330
47
100
AcDbScale
 70
     0
300
1:5
140
1.0
141
5.0
290
     0
  0
SCALE
  5
4C
102
{ACAD_REACTORS
330
47
102
}
330
47
100
AcDbScale
 70
     0
300
1:8
140
1.0
141
8.0
290
     0
  0
SCALE
  5
4D
102
{ACAD_REACTORS
330
47
102
}
330
47
100
AcDbScale
 70
     0
300
1:10
140
1.0
141
10.0
290
     0
  0
SCALE
  5
4E
102
{ACAD_REACTORS
330
47
102
}
330
47
100
AcDbScale
 70
     0
300
1:16
140
1.0
141
16.0
290
     0
  0
SCALE
  5
4F
102
{ACAD_REACTORS
330
47
102
}
330
47
100
AcDbScale
 70
     0
300
1:20
140
1.0
141
20.0
290
     0
  0
SCALE
  5
50
102
{ACAD_REACTORS
330
47
102
}
330
47
100
AcDbScale
 70
     0
300
1:30
140
1.0
141
30.0
290
     0
  0
SCALE
  5
51
102
{ACAD_REACTORS
330
47
102
}
330
47
100
AcDbScale
 70
     0
300
1:40
140
1.0
141
40.0
290
     0
  0
SCALE
  5
52
102
{ACAD_REACTORS
330
47
102
}
330
47
100
AcDbScale
 70
     0
300
1:50
140
1.0
141
50.0
290
     0
  0
SCALE
  5
53
102
{ACAD_REACTORS
330
47
102
}
330
47
100
AcDbScale
 70
     0
300
1:100
140
1.0
141
100.0
290
     0
  0
SCALE
  5
54
102
{ACAD_REACTORS
330
47
102
}
330
47
100
AcDbScale
 70
     0
300
2:1
140
2.0
141
1.0
290
     0
  0
SCALE
  5
55
102
{ACAD_REACTORS
330
47
102
}
330
47
100
AcDbScale
 70
     0
300
4:1
140
4.0
141
1.0
290
     0
  0
SCALE
  5
56
102
{ACAD_REACTORS
330
47
102
}
330
47
100
AcDbScale
 70
     0
300
8:1
140
8.0
141
1.0
290
     0
  0
SCALE
  5
57
102
{ACAD_REACTORS
330
47
102
}
330
47
100
AcDbScale
 70
     0
300
10:1
140
10.0
141
1.0
290
     0
  0
SCALE
  5
58
102
{ACAD_REACTORS
330
47
102
}
330
47
100
AcDbScale
 70
     0
300
100:1
140
100.0
141
1.0
290
     0
  0
ENDSEC
  0
EOF
